<svg width="220" height="1298" viewBox="0 0 235 683" fill="none" xmlns="http://www.w3.org/2000/svg">
<path d="M29.921 549.606C30.051 541.556 24.805 534.806 18.0803 534.634C11.5366 534.465 6.2448 540.398 5.73953 548.208C5.22196 556.211 10.0675 563.279 16.7462 563.981C23.6809 564.711 29.7862 557.94 29.921 549.606Z" stroke="#A88771" stroke-width="10.1302" stroke-linecap="round" stroke-linejoin="round"/>
<path d="M31.348 547.425C31.348 547.425 91.4524 549.123 127.627 536.072C153.582 526.709 172.409 525.277 190.669 501.292C206.433 480.582 217.638 462.746 213.799 435.108C210.574 411.899 184.229 386.354 184.229 386.354" stroke="#A88771" stroke-width="10.1302" stroke-linecap="round" stroke-linejoin="round"/>
<path d="M72.8381 486.404C71.0831 484.56 73.9794 459.366 100.345 454.845C126.712 450.32 161.72 491.185 177.34 489.774C192.96 488.362 191.524 485.938 200.612 483.479C200.612 483.479 197.12 494.207 185.416 499.448C173.712 504.689 170.317 505.965 159.078 502.048C147.838 498.128 114.271 478.512 99.5077 478.82C84.7445 479.123 74.5931 488.244 72.8381 486.404Z" stroke="#A88771" stroke-width="5.74047" stroke-linecap="round" stroke-linejoin="round"/>
<path d="M75.285 480.39C73.5522 478.948 75.3132 460.761 100.088 458.937C124.864 457.11 159.582 488.828 174.31 488.673C189.037 488.514 187.582 486.671 196.087 485.384C196.087 485.384 193.201 493.005 182.329 496.169C171.457 499.33 168.293 500.073 157.505 496.591C146.717 493.113 114.188 476.952 100.228 476.351C86.269 475.75 77.0174 481.828 75.285 480.39Z" stroke="#A88771" stroke-width="5.74047" stroke-linecap="round" stroke-linejoin="round"/>
<path d="M78.7125 476.095C76.9639 475.004 77.6911 463.037 101.496 463.719C125.301 464.401 160.491 488.166 174.691 489.19C188.891 490.209 187.39 488.872 195.526 488.67C195.526 488.67 193.148 493.519 182.828 494.792C172.508 496.065 169.496 496.314 158.901 493.171C148.307 490.03 116.061 476.787 102.561 475.318C89.0619 473.849 80.461 477.185 78.7125 476.095Z" stroke="#A88771" stroke-width="5.74047" stroke-linecap="round" stroke-linejoin="round"/>
<path d="M79.4303 471.897C77.6242 471.144 77.2942 465.356 100.651 468.662C124.007 471.965 160.515 488.025 174.502 490.297C188.487 492.57 186.902 491.725 194.847 492.641C194.847 492.641 192.942 494.724 182.953 494.062C172.963 493.4 170.037 493.147 159.395 490.284C148.754 487.42 116.043 476.895 102.703 474.491C89.3637 472.086 81.2367 472.65 79.4303 471.897Z" stroke="#A88771" stroke-width="5.74047" stroke-linecap="round" stroke-linejoin="round"/>
<path d="M184.495 385.5C184.625 377.45 179.379 370.696 172.654 370.524C166.11 370.358 160.818 376.288 160.313 384.102C159.796 392.105 164.641 399.172 171.32 399.875C178.255 400.601 184.36 393.83 184.495 385.5Z" stroke="#A88771" stroke-width="10.1302" stroke-linecap="round" stroke-linejoin="round"/>
<path d="M98.1228 543.265C98.1228 543.265 77.0895 551.784 70.0846 564.944C64.1682 576.06 64.2745 597.968 64.2745 597.968" stroke="#A88771" stroke-width="10.1302" stroke-linecap="round" stroke-linejoin="round"/>
<path d="M105.858 677.751C106.814 680.3 127.779 684.389 139.139 655.548C150.499 626.708 128.153 574.638 133.871 557.18C139.588 539.719 141.101 542.076 145.733 532.398C145.733 532.398 136.142 533.243 128.52 545.095C120.897 556.947 118.879 560.459 118.705 574.469C118.531 588.483 124.331 632.657 119.749 649.46C115.169 666.266 104.902 675.201 105.858 677.751Z" stroke="#A88771" stroke-width="5.74047" stroke-linecap="round" stroke-linejoin="round"/>
<path d="M111.378 676.717C112.019 679.125 127.058 682.451 135.795 654.64C144.532 626.826 129.407 577.775 133.861 560.972C138.314 544.166 139.359 546.371 142.883 537.018C142.883 537.018 135.952 538.081 130.231 549.593C124.511 561.104 122.989 564.505 122.598 577.873C122.207 591.242 125.552 633.211 121.93 649.362C118.309 665.513 110.737 674.313 111.378 676.717Z" stroke="#A88771" stroke-width="5.74047" stroke-linecap="round" stroke-linejoin="round"/>
<path d="M115.814 674.056C116.171 676.38 125.94 679.064 132.39 651.625C138.84 624.182 130.204 576.931 133.56 560.382C136.916 543.832 137.544 545.946 140.096 536.694C140.096 536.694 135.526 537.99 131.478 549.424C127.429 560.861 126.344 564.234 125.739 577.279C125.136 590.327 126.235 631.118 123.441 646.995C120.648 662.876 115.457 671.737 115.814 674.056Z" stroke="#A88771" stroke-width="5.74047" stroke-linecap="round" stroke-linejoin="round"/>
<path d="M119.377 674.468C119.449 676.758 123.971 678.834 128.195 651.138C132.42 623.439 130.325 576.944 132.619 560.273C134.913 543.602 135.122 545.666 136.725 536.305C136.725 536.305 134.501 537.872 132.095 549.498C129.689 561.121 129.031 564.545 128.191 577.562C127.351 590.583 126.143 631.107 124.144 647.076C122.145 663.048 119.306 672.182 119.377 674.468Z" stroke="#A88771" stroke-width="5.74047" stroke-linecap="round" stroke-linejoin="round"/>
<path d="M78.4369 613.427C78.5669 605.377 73.3207 598.627 66.5962 598.454C60.0525 598.286 54.7606 604.219 54.2554 612.029C53.7378 620.032 58.5835 627.099 65.262 627.802C72.1967 628.531 78.302 621.761 78.4369 613.427Z" stroke="#A88771" stroke-width="10.1302" stroke-linecap="round" stroke-linejoin="round"/>
<path d="M143.281 435.783C149.812 440.598 160.787 440.983 162.18 438.991C163.573 437.002 156.539 425.484 151.461 422.107C146.632 418.896 140.702 418.521 138.345 423.647C136.324 428.047 136.751 430.971 143.281 435.783Z" stroke="#F74700" stroke-width="4.0521" stroke-linecap="round" stroke-linejoin="round"/>
<path d="M144.843 434.368C149.698 437.948 157.86 438.235 158.896 436.756C159.932 435.277 154.701 426.71 150.925 424.201C147.334 421.81 142.925 421.533 141.172 425.346C139.669 428.618 139.987 430.789 144.843 434.368Z" stroke="#F74700" stroke-width="4.0521" stroke-linecap="round" stroke-linejoin="round"/>
<path d="M145.688 432.974C148.695 435.331 154.007 436.32 154.75 435.661C155.492 435.003 152.465 430.026 150.114 428.337C147.879 426.727 145.015 426.129 143.7 427.922C142.572 429.458 142.681 430.62 145.688 432.974Z" stroke="#F74700" stroke-width="7.09117" stroke-linecap="round" stroke-linejoin="round"/>
<path d="M20.259 622.493C25.8328 616.186 28.9838 603.594 27.7386 601.47C26.4936 599.342 15.3803 604.495 11.3416 609.493C7.5 614.247 5.66212 621.008 9.18982 625.06C12.2159 628.534 14.6852 628.798 20.259 622.493Z" stroke="#F74700" stroke-width="4.0521" stroke-linecap="round" stroke-linejoin="round"/>
<path d="M19.522 620.322C23.6668 615.632 26.0099 606.268 25.084 604.688C24.1582 603.107 15.8941 606.94 12.8909 610.655C10.0342 614.19 8.66755 619.215 11.2908 622.23C13.5411 624.813 15.3773 625.009 19.522 620.322Z" stroke="#F74700" stroke-width="4.0521" stroke-linecap="round" stroke-linejoin="round"/>
<path d="M18.6149 618.982C21.2938 616.115 23.4686 610.229 23.1288 609.199C22.789 608.169 17.9906 610.384 16.0182 612.664C14.142 614.831 12.9162 617.989 14.0232 619.974C14.9729 621.676 15.9361 621.848 18.6149 618.982Z" stroke="#F74700" stroke-width="7.09117" stroke-linecap="round" stroke-linejoin="round"/>
<path d="M189.842 386.567C189.842 386.567 221.979 363.412 221.979 334.649C221.979 256.646 123.556 251.498 123.556 251.498" stroke="#A88771" stroke-width="10.1302" stroke-linecap="round" stroke-linejoin="round"/>
<path d="M95.3565 292.568C110.894 306.963 116.163 257.631 118.19 257.793C120.217 257.955 108.192 306.478 128.323 300.655C148.454 294.832 121.838 256.823 123.729 254.882C125.621 252.941 143.725 297.582 156.155 277.202C168.585 256.823 125.08 251.324 125.621 248.412C126.161 245.501 164.607 264.263 162.235 238.546C159.863 212.829 125.215 245.662 124.675 243.236C124.135 240.81 160.209 218.328 143.185 203.286C126.161 188.244 122.919 240.163 120.487 239.516C118.055 238.869 129.674 189.861 109.543 194.875C89.4116 199.889 117.514 239.031 115.353 240.648C113.191 242.266 95.3565 197.463 82.3862 217.519C69.4158 237.575 111.164 243.236 110.894 246.148C110.624 249.059 73.0632 233.855 75.9011 257.962C78.7387 282.069 110.894 251.647 112.38 253.588C113.866 255.529 79.819 278.173 95.3565 292.568Z" stroke="#F74700" stroke-width="2.02605" stroke-linecap="round" stroke-linejoin="round"/>
<path d="M118.25 255.653C117.495 255.593 117.006 256.125 116.825 256.352C116.614 256.619 116.464 256.922 116.362 257.154C116.151 257.634 115.953 258.257 115.767 258.917C115.396 260.232 114.967 262.068 114.482 264.146L114.452 264.275C113.444 268.593 112.152 274.107 110.461 279.17C108.744 284.307 106.722 288.638 104.395 290.869C103.273 291.944 102.149 292.465 100.982 292.444C99.8016 292.423 98.3656 291.845 96.6371 290.244C94.9157 288.649 93.9831 287.038 93.5504 285.489C93.118 283.942 93.1383 282.291 93.5552 280.52C94.4107 276.888 96.8777 272.997 99.9785 269.255C103.015 265.592 106.477 262.28 109.172 259.703L109.252 259.626C110.582 258.354 111.761 257.226 112.555 256.354C112.94 255.93 113.32 255.476 113.582 255.036C113.706 254.827 113.889 254.483 113.977 254.047C114.079 253.549 114.075 252.766 113.576 252.115C113.103 251.498 112.499 251.425 112.21 251.425C111.896 251.425 111.604 251.506 111.387 251.581C110.942 251.736 110.428 252.006 109.906 252.31C108.844 252.929 107.431 253.882 105.841 254.953L105.805 254.977C102.585 257.148 98.4962 259.903 94.3851 261.988C90.1978 264.11 86.2747 265.381 83.3412 264.896C81.9306 264.662 80.813 264.034 79.9674 262.95C79.1096 261.85 78.405 260.119 78.0866 257.414C77.769 254.715 78.0361 252.742 78.6174 251.282C79.1943 249.835 80.1457 248.729 81.4477 247.892C84.1358 246.164 88.1415 245.694 92.5536 245.9C96.7175 246.094 100.98 246.871 104.386 247.492C104.544 247.521 104.7 247.549 104.855 247.577C106.563 247.888 108.085 248.158 109.19 248.253C109.726 248.299 110.282 248.317 110.751 248.228C110.977 248.186 111.318 248.095 111.646 247.857C112.02 247.585 112.438 247.062 112.513 246.257C112.588 245.449 112.267 244.856 112.045 244.552C111.823 244.248 111.56 244.033 111.357 243.887C110.941 243.588 110.404 243.323 109.847 243.082C108.712 242.591 107.122 242.042 105.333 241.432C105.204 241.388 105.073 241.343 104.942 241.298C101.372 240.081 96.9268 238.565 92.8512 236.576C88.5623 234.482 84.9933 232.006 83.216 229.112C82.363 227.723 81.9568 226.293 82.031 224.755C82.1066 223.19 82.6905 221.295 84.1561 219.029C85.6136 216.775 87.0471 215.572 88.3928 215.031C89.7287 214.493 91.1244 214.547 92.6058 215.116C95.66 216.288 98.8824 219.57 101.974 223.705C104.893 227.608 107.525 232.032 109.633 235.575C109.731 235.74 109.828 235.902 109.923 236.062C110.983 237.843 111.931 239.423 112.685 240.503C113.054 241.031 113.445 241.542 113.831 241.9C114.02 242.075 114.299 242.302 114.647 242.433C115.023 242.574 115.61 242.643 116.179 242.217C116.775 241.771 116.97 241.068 117.013 240.584C117.053 240.141 116.986 239.737 116.926 239.46C116.801 238.888 116.56 238.244 116.293 237.614C115.747 236.323 114.884 234.603 113.902 232.666C113.776 232.417 113.647 232.163 113.516 231.905C111.581 228.094 109.186 223.377 107.271 218.582C105.2 213.397 103.828 208.445 104.028 204.626C104.125 202.777 104.585 201.292 105.445 200.143C106.31 198.986 107.712 197.996 109.958 197.436C112.202 196.878 113.842 197.109 115.06 197.759C116.271 198.406 117.229 199.555 117.98 201.199C119.527 204.59 120.043 209.757 120.001 215.469C119.963 220.837 119.441 226.374 119.022 230.823C119 231.051 118.979 231.276 118.958 231.498C118.747 233.743 118.567 235.733 118.519 237.184C118.496 237.895 118.499 238.596 118.578 239.174C118.616 239.456 118.688 239.84 118.854 240.21C119.025 240.593 119.396 241.162 120.07 241.342C120.775 241.529 121.331 241.166 121.634 240.86C121.915 240.576 122.1 240.233 122.217 239.987C122.459 239.476 122.663 238.815 122.844 238.139C123.213 236.753 123.614 234.795 124.058 232.582C124.105 232.349 124.152 232.112 124.2 231.873C125.078 227.493 126.169 222.053 127.651 217.017C129.237 211.627 131.169 207.08 133.513 204.731C134.637 203.604 135.798 203.042 137.048 203.058C138.321 203.073 139.892 203.689 141.812 205.385C143.727 207.077 144.78 208.77 145.284 210.381C145.784 211.979 145.793 213.659 145.382 215.445C144.536 219.125 141.954 223.057 138.638 226.85C135.363 230.597 131.574 233.984 128.581 236.627C128.425 236.764 128.272 236.9 128.12 237.034C126.831 238.17 125.69 239.177 124.865 239.979C124.409 240.422 123.99 240.86 123.682 241.263C123.532 241.459 123.354 241.717 123.216 242.019C123.103 242.269 122.856 242.896 123.027 243.666C123.123 244.097 123.341 244.504 123.679 244.791C123.989 245.053 124.305 245.135 124.517 245.161C124.906 245.208 125.254 245.1 125.445 245.032C125.872 244.88 126.376 244.598 126.878 244.29C127.844 243.698 129.155 242.787 130.655 241.744C130.76 241.671 130.867 241.597 130.974 241.523C134.286 239.221 138.596 236.251 142.941 233.993C147.352 231.701 151.505 230.305 154.583 230.799C156.061 231.037 157.22 231.698 158.081 232.848C158.958 234.017 159.661 235.871 159.93 238.778C160.198 241.685 159.873 243.78 159.232 245.298C158.598 246.799 157.587 247.899 156.227 248.688C153.412 250.322 149.26 250.532 144.691 249.99C140.326 249.473 135.862 248.311 132.314 247.387C132.197 247.357 132.081 247.327 131.966 247.297C130.194 246.836 128.618 246.431 127.468 246.238C126.907 246.144 126.336 246.08 125.855 246.124C125.621 246.146 125.281 246.202 124.944 246.395C124.571 246.609 124.093 247.066 123.942 247.876C123.786 248.718 124.089 249.38 124.331 249.734C124.561 250.068 124.839 250.295 125.043 250.442C125.465 250.744 126.015 251.009 126.581 251.248C127.741 251.736 129.381 252.279 131.237 252.885C131.415 252.943 131.596 253.002 131.779 253.062C135.46 254.262 140.049 255.758 144.3 257.727C148.823 259.822 152.668 262.325 154.677 265.289C155.647 266.721 156.139 268.186 156.138 269.742C156.137 271.314 155.633 273.216 154.238 275.503C152.841 277.794 151.456 279.022 150.157 279.586C148.871 280.145 147.518 280.119 146.07 279.582C143.078 278.472 139.884 275.254 136.808 271.177C133.89 267.31 131.255 262.919 129.161 259.429C129.074 259.285 128.989 259.143 128.905 259.003C127.856 257.256 126.921 255.709 126.186 254.664C125.829 254.157 125.443 253.656 125.058 253.31C124.874 253.144 124.575 252.907 124.192 252.793C123.747 252.66 123.118 252.687 122.586 253.233C122.086 253.746 121.97 254.418 121.952 254.825C121.934 255.23 121.997 255.603 122.059 255.879C122.184 256.441 122.416 257.077 122.676 257.71C123.205 258.999 124.029 260.702 124.962 262.614C125.034 262.763 125.108 262.914 125.182 263.066C127.041 266.876 129.361 271.632 131.166 276.479C133.067 281.581 134.274 286.472 133.957 290.301C133.803 292.16 133.295 293.7 132.376 294.924C131.451 296.155 130.001 297.211 127.75 297.862C125.491 298.515 123.856 298.357 122.661 297.783C121.481 297.216 120.557 296.159 119.839 294.615C118.349 291.41 117.888 286.415 118.004 280.84C118.118 275.344 118.777 269.644 119.297 265.226L119.333 264.92C119.575 262.869 119.787 261.066 119.881 259.758C119.93 259.088 119.956 258.43 119.915 257.897C119.896 257.649 119.851 257.26 119.703 256.877C119.548 256.477 119.116 255.723 118.25 255.653ZM119.5 238.19C119.5 238.19 119.502 238.186 119.506 238.179C119.502 238.187 119.5 238.19 119.5 238.19ZM121.648 238.627C121.648 238.627 121.648 238.624 121.646 238.618C121.648 238.623 121.648 238.627 121.648 238.627ZM124.533 241.48C124.533 241.479 124.54 241.477 124.552 241.474C124.539 241.479 124.533 241.48 124.533 241.48ZM126.605 247.23C126.605 247.23 126.608 247.232 126.613 247.237C126.608 247.233 126.605 247.23 126.605 247.23ZM126.07 249.831C126.07 249.831 126.074 249.83 126.082 249.829C126.074 249.83 126.07 249.831 126.07 249.831ZM125.046 254.868C125.046 254.868 125.047 254.87 125.047 254.874C125.047 254.87 125.046 254.868 125.046 254.868ZM123.181 256.269C123.181 256.269 123.185 256.271 123.192 256.278C123.185 256.272 123.181 256.269 123.181 256.269ZM116.821 258.198C116.821 258.198 116.822 258.203 116.823 258.214C116.821 258.205 116.821 258.199 116.821 258.198ZM113.931 240.434C113.93 240.434 113.93 240.429 113.929 240.421C113.93 240.43 113.931 240.434 113.931 240.434ZM115.755 238.985C115.756 238.985 115.753 238.983 115.747 238.978C115.752 238.982 115.755 238.984 115.755 238.985ZM111.055 252.88C111.06 252.871 111.062 252.866 111.063 252.866C111.063 252.866 111.061 252.871 111.055 252.88ZM109.803 247.105C109.803 247.105 109.801 247.103 109.798 247.101C109.802 247.104 109.803 247.105 109.803 247.105ZM110.271 244.559C110.28 244.556 110.284 244.555 110.284 244.556C110.283 244.556 110.279 244.557 110.271 244.559Z" stroke="#F74700" stroke-width="3.71442" stroke-linecap="round" stroke-linejoin="round"/>
<path d="M118.48 251.441C118.051 251.407 117.655 251.44 117.292 251.519C117.103 250.794 116.776 250.051 116.246 249.359C116.052 249.107 115.852 248.888 115.648 248.698C115.856 248.166 116.008 247.562 116.071 246.882C116.075 246.841 116.078 246.8 116.081 246.759C116.698 246.664 117.362 246.416 118.022 245.922C118.251 245.751 118.458 245.566 118.645 245.372C118.844 245.459 119.054 245.533 119.278 245.593C119.47 245.644 119.659 245.681 119.843 245.704C120.004 246.177 120.221 246.634 120.494 247.054C120.488 247.084 120.482 247.114 120.476 247.145L120.571 247.17L120.476 247.145C120.289 248.153 120.342 249.06 120.509 249.836C120.421 249.914 120.334 249.998 120.247 250.087C119.795 250.551 119.461 251.058 119.214 251.564C118.983 251.504 118.738 251.462 118.48 251.441ZM116.707 217.576C116.677 221.741 116.322 226.044 115.97 229.847C114.286 226.52 112.399 222.714 110.865 218.873C108.954 214.087 108.002 210.215 108.134 207.688C108.191 206.605 108.43 206.098 108.651 205.803C108.889 205.486 109.517 204.868 111.148 204.462C112.774 204.057 113.596 204.31 113.974 204.512C114.333 204.704 114.759 205.096 115.205 206.074C116.235 208.332 116.745 212.316 116.707 217.576ZM121.235 278.961C121.335 274.136 121.909 269.082 122.395 264.955C124.059 268.372 125.955 272.335 127.447 276.34C129.19 281.019 130.01 284.819 129.8 287.353C129.709 288.454 129.442 289.078 129.124 289.501C128.791 289.945 128.062 290.616 126.417 291.092C124.747 291.575 123.927 291.348 123.592 291.187C123.302 291.047 122.946 290.758 122.552 289.911C121.604 287.87 121.129 284.097 121.235 278.961ZM133.529 244.138C136.297 242.24 139.491 240.138 142.678 238.481C146.754 236.364 149.94 235.459 151.888 235.772C152.68 235.899 153.01 236.186 153.209 236.452C153.455 236.78 153.94 237.674 154.142 239.871C154.345 242.071 154.062 243.242 153.813 243.832C153.586 244.369 153.21 244.853 152.457 245.29C150.668 246.328 147.546 246.641 143.359 246.145C140.007 245.748 136.564 244.919 133.529 244.138ZM127.034 233.478C127.845 229.434 128.809 224.698 130.094 220.332C131.563 215.341 133.143 211.967 134.623 210.484C135.222 209.883 135.593 209.806 135.849 209.809C136.172 209.813 137.004 209.969 138.445 211.242C139.871 212.502 140.398 213.531 140.602 214.184C140.795 214.8 140.844 215.534 140.606 216.569C140.056 218.962 138.187 222.042 135.161 225.503C132.589 228.445 129.63 231.169 127.034 233.478ZM138.031 267.242C135.526 263.923 133.237 260.142 131.305 256.925C134.505 257.975 138.143 259.216 141.522 260.78C145.701 262.716 148.602 264.768 149.916 266.707C150.47 267.525 150.57 268.071 150.57 268.464C150.57 268.906 150.436 269.915 149.406 271.605C148.365 273.311 147.545 273.885 147.074 274.089C146.641 274.277 146.102 274.331 145.283 274.027C143.356 273.312 140.854 270.982 138.031 267.242ZM107.412 238.38C107.288 238.338 107.164 238.295 107.039 238.253C106.935 238.217 106.829 238.181 106.723 238.145C103.345 236.993 99.3269 235.622 95.6743 233.839C91.7175 231.908 89.1154 229.914 88.0156 228.123C87.5733 227.403 87.5028 226.925 87.522 226.531C87.5449 226.056 87.7412 225.002 88.8488 223.289C89.9311 221.616 90.7875 221.039 91.3082 220.83C91.7984 220.632 92.3959 220.595 93.2593 220.926C95.2594 221.694 97.798 224.094 100.63 227.881C103.156 231.259 105.459 235.1 107.412 238.38ZM104.853 251.415C101.847 253.44 98.2434 255.853 94.6552 257.672C90.7977 259.627 87.8193 260.432 85.9923 260.13C85.2477 260.007 84.9278 259.737 84.7323 259.487C84.4996 259.188 84.0351 258.379 83.7995 256.379C83.5663 254.397 83.8063 253.345 84.0165 252.818C84.2128 252.325 84.5603 251.839 85.2945 251.366C87.0146 250.261 90.0271 249.764 94.0626 249.953C97.7797 250.126 101.616 250.825 104.838 251.412C104.843 251.413 104.848 251.414 104.853 251.415ZM111.665 262.14L111.625 262.313C110.675 266.384 109.507 271.355 107.996 275.878C106.41 280.623 104.766 283.851 103.283 285.273C102.668 285.863 102.317 285.912 102.133 285.909C101.909 285.905 101.217 285.801 99.9725 284.648C98.7495 283.515 98.3207 282.596 98.1563 282.007C97.9938 281.425 97.9532 280.679 98.2059 279.606C98.7763 277.185 100.591 274.118 103.417 270.709C106.08 267.494 109.14 264.556 111.665 262.14Z" stroke="#F74700" stroke-width="11.1433" stroke-linecap="round" stroke-linejoin="round"/>
<path d="M118.166 254.866C117.422 254.806 116.944 255.33 116.775 255.543C116.576 255.794 116.439 256.074 116.35 256.276C116.165 256.696 115.997 257.23 115.842 257.777C115.534 258.87 115.179 260.391 114.781 262.097L114.754 262.212C113.922 265.774 112.861 270.303 111.473 274.458C110.059 278.688 108.414 282.188 106.554 283.971C105.666 284.822 104.8 285.214 103.914 285.198C103.017 285.182 101.888 284.742 100.495 283.452C99.1092 282.168 98.378 280.89 98.0418 279.686C97.7059 278.484 97.7174 277.192 98.0494 275.781C98.7351 272.87 100.727 269.712 103.276 266.635C105.769 263.628 108.613 260.908 110.837 258.781L110.899 258.721C111.993 257.675 112.973 256.737 113.636 256.009C113.956 255.657 114.288 255.264 114.521 254.871C114.631 254.686 114.804 254.362 114.889 253.944C114.987 253.463 114.985 252.694 114.495 252.054C114.03 251.446 113.439 251.379 113.168 251.379C112.872 251.378 112.603 251.455 112.413 251.52C112.023 251.656 111.582 251.889 111.149 252.141C110.265 252.657 109.091 253.448 107.783 254.33L107.759 254.346C105.1 256.138 101.741 258.402 98.3653 260.113C94.9187 261.86 91.7438 262.875 89.4037 262.488C88.2898 262.304 87.4301 261.813 86.7839 260.984C86.1252 260.14 85.5608 258.782 85.3039 256.597C85.0472 254.418 85.2666 252.859 85.7174 251.728C86.1636 250.608 86.9021 249.743 87.9342 249.079C90.0824 247.698 93.3217 247.306 96.951 247.475C100.368 247.635 103.869 248.273 106.679 248.785C106.809 248.809 106.937 248.832 107.063 248.855C108.468 249.11 109.734 249.335 110.658 249.415C111.104 249.453 111.588 249.47 112.007 249.391C112.209 249.353 112.53 249.271 112.844 249.042C113.204 248.78 113.615 248.269 113.688 247.48C113.761 246.688 113.447 246.111 113.237 245.824C113.026 245.536 112.782 245.338 112.604 245.21C112.237 244.948 111.775 244.72 111.312 244.52C110.366 244.11 109.044 243.654 107.572 243.152C107.467 243.116 107.361 243.08 107.254 243.044C104.309 242.039 100.656 240.794 97.3098 239.16C93.7789 237.437 90.8998 235.423 89.4824 233.115C88.8097 232.019 88.5011 230.914 88.5581 229.735C88.6162 228.529 89.0678 227.028 90.2536 225.195C91.431 223.374 92.5716 222.429 93.6181 222.008C94.6547 221.591 95.7449 221.628 96.9217 222.08C99.3664 223.018 101.982 225.666 104.525 229.067C106.922 232.272 109.084 235.906 110.824 238.83C110.904 238.964 110.983 239.097 111.061 239.228C111.933 240.693 112.72 242.007 113.351 242.909C113.657 243.348 113.995 243.791 114.337 244.11C114.504 244.264 114.764 244.477 115.095 244.602C115.454 244.737 116.027 244.807 116.584 244.39C117.168 243.953 117.358 243.264 117.399 242.802C117.436 242.379 117.373 242.002 117.32 241.757C117.209 241.251 116.999 240.695 116.777 240.171C116.321 239.093 115.604 237.663 114.796 236.07C114.691 235.865 114.586 235.656 114.478 235.444C112.882 232.3 110.913 228.424 109.341 224.486C107.636 220.218 106.534 216.2 106.694 213.141C106.771 211.672 107.134 210.523 107.793 209.642C108.458 208.754 109.555 207.963 111.366 207.512C113.176 207.062 114.468 207.256 115.406 207.757C116.339 208.255 117.089 209.144 117.686 210.452C118.926 213.169 119.353 217.356 119.319 222.058C119.287 226.466 118.859 231.016 118.513 234.686C118.495 234.873 118.478 235.058 118.461 235.239C118.287 237.086 118.137 238.74 118.097 239.951C118.078 240.541 118.079 241.146 118.149 241.657C118.182 241.905 118.248 242.261 118.405 242.613C118.568 242.976 118.928 243.534 119.589 243.71C120.281 243.894 120.824 243.536 121.113 243.243C121.381 242.973 121.552 242.652 121.655 242.435C121.869 241.984 122.044 241.412 122.194 240.85C122.503 239.694 122.835 238.067 123.201 236.246C123.239 236.055 123.278 235.86 123.317 235.664C124.042 232.051 124.938 227.58 126.155 223.445C127.461 219.006 129.034 215.333 130.906 213.457C131.794 212.566 132.69 212.142 133.643 212.154C134.619 212.166 135.859 212.637 137.412 214.009C138.959 215.376 139.789 216.725 140.181 217.98C140.57 219.223 140.581 220.536 140.255 221.954C139.578 224.898 137.496 228.089 134.769 231.208C132.082 234.281 128.972 237.062 126.503 239.242C126.375 239.355 126.248 239.467 126.123 239.578C125.062 240.513 124.115 241.348 123.429 242.015C123.051 242.383 122.693 242.756 122.425 243.106C122.295 243.277 122.131 243.512 122.003 243.795C121.899 244.024 121.654 244.635 121.823 245.392C121.918 245.816 122.132 246.218 122.466 246.501C122.772 246.76 123.082 246.84 123.287 246.865C123.662 246.91 123.991 246.805 124.157 246.746C124.535 246.612 124.97 246.367 125.385 246.113C126.188 245.62 127.275 244.865 128.509 244.008C128.596 243.946 128.685 243.885 128.775 243.823C131.507 241.925 135.047 239.485 138.613 237.632C142.245 235.745 145.609 234.628 148.067 235.023C149.235 235.21 150.126 235.727 150.784 236.606C151.458 237.505 152.023 238.962 152.24 241.314C152.457 243.666 152.191 245.326 151.692 246.506C151.201 247.67 150.416 248.53 149.339 249.155C147.091 250.46 143.733 250.643 139.974 250.198C136.391 249.773 132.725 248.819 129.796 248.056C129.701 248.032 129.607 248.007 129.513 247.983C128.056 247.604 126.746 247.266 125.785 247.105C125.319 247.027 124.824 246.97 124.396 247.01C124.19 247.029 123.871 247.08 123.549 247.264C123.191 247.469 122.722 247.914 122.574 248.708C122.421 249.535 122.72 250.18 122.951 250.517C123.168 250.835 123.429 251.045 123.608 251.174C123.981 251.441 124.455 251.668 124.926 251.866C125.893 252.274 127.256 252.724 128.783 253.223C128.929 253.271 129.077 253.319 129.227 253.368C132.264 254.358 136.035 255.588 139.527 257.205C143.25 258.929 146.361 260.968 147.969 263.34C148.738 264.476 149.113 265.615 149.112 266.806C149.112 268.015 148.725 269.517 147.599 271.364C146.469 273.216 145.368 274.178 144.361 274.616C143.366 275.048 142.313 275.034 141.165 274.608C138.772 273.72 136.181 271.126 133.65 267.771C131.255 264.597 129.09 260.99 127.362 258.11C127.291 257.993 127.222 257.877 127.153 257.762C126.291 256.325 125.513 255.039 124.898 254.165C124.602 253.744 124.267 253.306 123.924 252.998C123.76 252.851 123.48 252.626 123.112 252.516C122.683 252.388 122.067 252.413 121.545 252.948C121.056 253.451 120.945 254.106 120.928 254.491C120.911 254.873 120.97 255.218 121.024 255.461C121.135 255.957 121.336 256.504 121.552 257.03C121.993 258.105 122.679 259.521 123.446 261.094C123.505 261.216 123.565 261.338 123.626 261.462C125.159 264.607 127.065 268.514 128.548 272.494C130.111 276.691 131.08 280.657 130.826 283.725C130.704 285.203 130.303 286.403 129.591 287.35C128.874 288.304 127.732 289.148 125.916 289.673C124.092 290.201 122.804 290.064 121.885 289.623C120.982 289.188 120.264 288.377 119.696 287.155C118.505 284.594 118.122 280.554 118.216 275.965C118.31 271.455 118.851 266.773 119.28 263.129L119.311 262.871C119.51 261.186 119.686 259.691 119.764 258.603C119.804 258.048 119.828 257.481 119.791 257.011C119.774 256.794 119.734 256.43 119.592 256.063C119.444 255.679 119.02 254.934 118.166 254.866ZM114.32 242.711C114.32 242.711 114.319 242.707 114.318 242.697C114.32 242.707 114.32 242.711 114.32 242.711ZM118.948 240.619C118.948 240.619 118.95 240.615 118.954 240.607C118.95 240.616 118.948 240.62 118.948 240.619ZM121.215 241.084C121.215 241.083 121.214 241.08 121.213 241.071C121.215 241.08 121.215 241.084 121.215 241.084ZM123.274 243.186C123.251 243.193 123.254 243.19 123.277 243.184C123.276 243.185 123.275 243.185 123.274 243.186ZM125.188 247.976C125.188 247.976 125.191 247.978 125.197 247.984C125.191 247.979 125.188 247.976 125.188 247.976ZM124.636 250.713C124.636 250.713 124.637 250.713 124.637 250.713C124.623 250.715 124.622 250.714 124.636 250.713ZM124.018 254.478C124.018 254.478 124.018 254.482 124.019 254.489C124.018 254.482 124.017 254.478 124.018 254.478ZM122.061 255.968C122.062 255.969 122.063 255.971 122.065 255.972C122.054 255.964 122.053 255.961 122.061 255.968ZM119.112 257.972C119.112 257.972 119.111 257.974 119.108 257.98C119.111 257.974 119.112 257.971 119.112 257.972ZM116.7 257.333C116.7 257.332 116.7 257.338 116.702 257.35C116.7 257.339 116.699 257.333 116.7 257.333ZM113.308 255.078C113.308 255.079 113.305 255.079 113.3 255.08C113.305 255.079 113.308 255.078 113.308 255.078ZM111.989 252.724C111.996 252.71 111.998 252.708 111.992 252.719C111.991 252.72 111.99 252.722 111.989 252.724ZM111.03 248.412C111.029 248.412 111.027 248.41 111.022 248.406C111.027 248.41 111.03 248.412 111.03 248.412ZM111.52 245.723C111.531 245.72 111.533 245.721 111.525 245.722C111.523 245.722 111.522 245.723 111.52 245.723Z" stroke="#F74700" stroke-width="3.71442" stroke-linecap="round" stroke-linejoin="round"/>
<path d="M118.106 254.573C117.365 254.514 116.89 255.036 116.726 255.244C116.53 255.491 116.397 255.763 116.312 255.956C116.135 256.358 115.975 256.865 115.831 257.378C115.541 258.403 115.209 259.828 114.837 261.422L114.811 261.532C114.033 264.865 113.042 269.095 111.745 272.975C110.424 276.929 108.893 280.177 107.175 281.823C106.358 282.606 105.57 282.959 104.77 282.945C103.958 282.931 102.923 282.533 101.631 281.337C100.347 280.147 99.6775 278.97 99.3703 277.871C99.0637 276.774 99.0727 275.59 99.379 274.29C100.013 271.597 101.86 268.661 104.243 265.786C106.57 262.978 109.227 260.437 111.308 258.447L111.364 258.393C112.386 257.416 113.306 256.535 113.93 255.85C114.23 255.521 114.546 255.145 114.771 254.767C114.877 254.589 115.048 254.272 115.132 253.859C115.228 253.383 115.227 252.619 114.739 251.981C114.277 251.377 113.69 251.311 113.424 251.311C113.133 251.311 112.872 251.385 112.691 251.448C112.317 251.578 111.898 251.8 111.492 252.037C110.661 252.521 109.56 253.263 108.338 254.087L108.317 254.101C105.83 255.777 102.691 257.893 99.539 259.491C96.3169 261.124 93.369 262.061 91.2089 261.704C90.185 261.535 89.404 261.085 88.8181 260.334C88.2199 259.567 87.698 258.322 87.4597 256.295C87.2216 254.275 87.4264 252.841 87.8376 251.809C88.2444 250.789 88.918 249.997 89.868 249.386C91.8526 248.11 94.8595 247.741 98.2511 247.9C101.442 248.049 104.712 248.645 107.341 249.124C107.461 249.146 107.581 249.168 107.698 249.189C109.011 249.428 110.2 249.639 111.069 249.714C111.487 249.75 111.95 249.767 112.354 249.691C112.548 249.654 112.863 249.573 113.173 249.348C113.529 249.089 113.937 248.582 114.01 247.797C114.083 247.011 113.77 246.438 113.564 246.156C113.357 245.873 113.119 245.681 112.948 245.558C112.597 245.306 112.156 245.091 111.722 244.903C110.833 244.517 109.593 244.09 108.217 243.621C108.12 243.587 108.021 243.553 107.921 243.52C105.165 242.58 101.753 241.416 98.6285 239.891C95.3277 238.28 92.6576 236.406 91.3497 234.276C90.7317 233.27 90.4527 232.263 90.5043 231.193C90.5574 230.096 90.9686 228.715 92.0695 227.012C93.162 225.323 94.2135 224.457 95.1695 224.072C96.115 223.691 97.1126 223.723 98.1969 224.139C100.457 225.007 102.888 227.463 105.266 230.642C107.503 233.634 109.523 237.028 111.15 239.764C111.225 239.889 111.298 240.013 111.371 240.135C112.186 241.504 112.926 242.737 113.518 243.586C113.806 243.998 114.127 244.421 114.457 244.726C114.617 244.875 114.871 245.084 115.197 245.207C115.55 245.34 116.119 245.41 116.673 244.996C117.253 244.561 117.44 243.878 117.481 243.421C117.518 243.005 117.455 242.636 117.404 242.401C117.298 241.914 117.097 241.385 116.89 240.894C116.461 239.88 115.788 238.539 115.032 237.049C114.935 236.857 114.836 236.662 114.736 236.465C113.242 233.523 111.404 229.903 109.935 226.225C108.341 222.234 107.32 218.5 107.468 215.672C107.539 214.318 107.873 213.27 108.471 212.471C109.075 211.664 110.08 210.935 111.759 210.517C113.437 210.099 114.623 210.281 115.477 210.737C116.325 211.19 117.012 212 117.562 213.206C118.709 215.719 119.109 219.609 119.078 224.004C119.048 228.12 118.647 232.371 118.324 235.805C118.308 235.979 118.291 236.151 118.275 236.321C118.113 238.047 117.972 239.599 117.935 240.737C117.917 241.291 117.918 241.867 117.984 242.357C118.016 242.594 118.08 242.943 118.235 243.288C118.395 243.646 118.751 244.2 119.408 244.375C120.096 244.558 120.635 244.201 120.921 243.913C121.184 243.647 121.352 243.333 121.45 243.125C121.655 242.691 121.822 242.146 121.963 241.619C122.253 240.533 122.564 239.006 122.906 237.304C122.942 237.125 122.978 236.944 123.015 236.761C123.693 233.38 124.53 229.204 125.666 225.342C126.888 221.192 128.352 217.783 130.08 216.052C130.897 215.233 131.713 214.85 132.575 214.86C133.461 214.871 134.601 215.299 136.042 216.572C137.477 217.841 138.239 219.085 138.598 220.232C138.953 221.367 138.964 222.569 138.664 223.876C138.038 226.596 136.108 229.562 133.56 232.477C131.052 235.345 128.148 237.943 125.838 239.982C125.718 240.088 125.599 240.193 125.482 240.296C124.49 241.171 123.603 241.954 122.959 242.58C122.605 242.924 122.265 243.278 122.009 243.612C121.885 243.775 121.726 244.003 121.6 244.279C121.499 244.503 121.255 245.109 121.423 245.862C121.517 246.284 121.731 246.685 122.064 246.967C122.368 247.225 122.677 247.304 122.88 247.328C123.25 247.372 123.573 247.27 123.731 247.213C124.095 247.084 124.509 246.85 124.898 246.612C125.651 246.15 126.67 245.442 127.823 244.641C127.905 244.583 127.989 244.526 128.072 244.467C130.629 242.691 133.936 240.413 137.265 238.683C140.66 236.918 143.785 235.887 146.055 236.251C147.129 236.423 147.938 236.897 148.535 237.693C149.148 238.51 149.671 239.846 149.872 242.029C150.074 244.214 149.825 245.741 149.37 246.819C148.922 247.88 148.205 248.668 147.214 249.243C145.138 250.448 142.021 250.623 138.508 250.207C135.163 249.81 131.738 248.919 128.998 248.206C128.909 248.183 128.822 248.16 128.735 248.137C127.373 247.783 126.143 247.467 125.24 247.315C124.803 247.242 124.331 247.186 123.919 247.225C123.721 247.243 123.408 247.292 123.091 247.474C122.738 247.676 122.272 248.117 122.125 248.907C121.972 249.729 122.27 250.37 122.497 250.701C122.712 251.014 122.966 251.219 123.138 251.342C123.496 251.599 123.948 251.815 124.389 252C125.298 252.383 126.576 252.806 128.004 253.272C128.14 253.316 128.278 253.361 128.418 253.407C131.259 254.334 134.782 255.482 138.043 256.993C141.525 258.605 144.412 260.503 145.898 262.695C146.607 263.742 146.947 264.78 146.946 265.862C146.945 266.96 146.594 268.341 145.549 270.054C144.501 271.773 143.486 272.655 142.568 273.054C141.661 273.448 140.699 273.437 139.642 273.045C137.431 272.225 135.023 269.819 132.657 266.684C130.42 263.72 128.399 260.351 126.781 257.656C126.716 257.547 126.651 257.439 126.587 257.332C125.781 255.989 125.052 254.781 124.473 253.96C124.195 253.565 123.876 253.147 123.546 252.85C123.388 252.708 123.113 252.487 122.75 252.379C122.325 252.252 121.714 252.276 121.195 252.808C120.708 253.307 120.599 253.957 120.583 254.336C120.566 254.711 120.624 255.048 120.676 255.28C120.782 255.756 120.974 256.277 121.176 256.77C121.591 257.781 122.234 259.109 122.952 260.579C123.007 260.692 123.062 260.807 123.119 260.922C124.554 263.865 126.334 267.514 127.719 271.231C129.18 275.154 130.077 278.839 129.842 281.675C129.729 283.038 129.361 284.135 128.712 284.998C128.058 285.868 127.009 286.648 125.325 287.135C123.632 287.624 122.45 287.494 121.616 287.093C120.796 286.699 120.14 285.962 119.618 284.837C118.518 282.472 118.158 278.721 118.247 274.431C118.334 270.221 118.839 265.848 119.241 262.439L119.27 262.195C119.455 260.621 119.62 259.219 119.694 258.199C119.731 257.679 119.754 257.139 119.719 256.688C119.703 256.481 119.664 256.124 119.524 255.762C119.378 255.383 118.957 254.641 118.106 254.573ZM114.402 243.339C114.406 243.355 114.405 243.353 114.402 243.337C114.402 243.338 114.402 243.339 114.402 243.339ZM118.745 241.304C118.745 241.304 118.747 241.3 118.751 241.292V241.293C118.747 241.301 118.745 241.304 118.745 241.304ZM121.05 241.777C121.049 241.778 121.049 241.774 121.047 241.765C121.049 241.773 121.05 241.777 121.05 241.777ZM122.848 243.652C122.83 243.659 122.833 243.656 122.854 243.65C122.852 243.651 122.85 243.652 122.848 243.652ZM124.273 246.155C124.273 246.155 124.274 246.153 124.276 246.151C124.274 246.153 124.273 246.155 124.273 246.155ZM124.722 248.147C124.722 248.147 124.725 248.15 124.732 248.155C124.725 248.15 124.722 248.147 124.722 248.147ZM124.158 250.928C124.16 250.928 124.161 250.928 124.162 250.928C124.15 250.93 124.148 250.929 124.158 250.928ZM123.671 254.304C123.671 254.305 123.671 254.308 123.672 254.315C123.671 254.307 123.67 254.304 123.671 254.304ZM119.07 257.659C119.07 257.659 119.069 257.662 119.066 257.668C119.069 257.662 119.07 257.659 119.07 257.659ZM116.63 257.032V257.032C116.628 257.021 116.628 257.015 116.628 257.015C116.628 257.015 116.629 257.02 116.63 257.032ZM113.578 255.008C113.578 255.009 113.575 255.009 113.57 255.011C113.575 255.009 113.578 255.008 113.578 255.008ZM111.369 248.756C111.368 248.756 111.366 248.754 111.36 248.75C111.366 248.754 111.369 248.756 111.369 248.756ZM116.358 241.791C116.357 241.79 116.357 241.79 116.356 241.789C116.366 241.798 116.367 241.8 116.358 241.791Z" stroke="#F74700" stroke-width="3.71442" stroke-linecap="round" stroke-linejoin="round"/>
<path d="M118.331 251.586C117.988 251.559 117.672 251.588 117.385 251.656C117.244 251.089 116.993 250.507 116.578 249.966C116.421 249.761 116.258 249.585 116.092 249.434C116.259 249.02 116.381 248.547 116.431 248.012C116.435 247.964 116.439 247.916 116.442 247.869C116.921 247.802 117.44 247.614 117.954 247.229C118.138 247.092 118.302 246.943 118.45 246.787C118.609 246.858 118.779 246.919 118.959 246.967C119.116 247.009 119.269 247.038 119.419 247.055C119.545 247.435 119.718 247.802 119.939 248.137C119.932 248.169 119.926 248.202 119.92 248.235C119.775 249.017 119.819 249.718 119.953 250.315C119.877 250.382 119.801 250.453 119.727 250.53L120.292 251.319L119.727 250.53C119.372 250.894 119.113 251.293 118.924 251.689C118.738 251.638 118.541 251.603 118.331 251.586ZM121.309 261.761C121.31 261.749 121.312 261.738 121.313 261.726C122.61 264.388 124.105 267.497 125.275 270.64C126.616 274.238 127.251 277.172 127.088 279.138C127.018 279.994 126.809 280.487 126.556 280.824C126.29 281.177 125.72 281.698 124.448 282.066C123.157 282.44 122.515 282.266 122.245 282.136C122.008 282.022 121.727 281.788 121.419 281.128C120.683 279.543 120.318 276.628 120.4 272.678C120.478 268.909 120.932 264.96 121.309 261.761ZM133.325 263.713C131.361 261.109 129.568 258.137 128.065 255.633C130.559 256.45 133.417 257.418 136.067 258.645C139.28 260.134 141.522 261.716 142.541 263.22C142.972 263.857 143.055 264.291 143.055 264.61C143.055 264.967 142.947 265.755 142.15 267.062C141.346 268.38 140.707 268.831 140.334 268.993C139.988 269.143 139.562 269.183 138.924 268.946C137.428 268.391 135.496 266.589 133.325 263.713ZM116.44 235.113C115.125 232.518 113.638 229.53 112.433 226.514C110.964 222.834 110.226 219.845 110.329 217.884C110.373 217.042 110.561 216.637 110.739 216.398C110.931 216.142 111.426 215.662 112.687 215.348C113.945 215.034 114.588 215.229 114.891 215.391C115.18 215.545 115.515 215.857 115.862 216.618C116.661 218.369 117.053 221.446 117.024 225.49C117 228.762 116.715 232.144 116.44 235.113ZM124.826 237.867C125.457 234.723 126.207 231.008 127.214 227.588C128.343 223.75 129.562 221.142 130.711 219.99C131.179 219.521 131.476 219.455 131.687 219.457C131.95 219.46 132.599 219.587 133.713 220.571C134.815 221.544 135.228 222.345 135.389 222.861C135.542 223.349 135.579 223.926 135.393 224.733C134.967 226.589 133.521 228.967 131.194 231.629C129.176 233.937 126.85 236.07 124.826 237.867ZM129.76 245.937C131.915 244.456 134.418 242.802 136.916 241.504C140.05 239.875 142.511 239.173 144.023 239.416C144.642 239.515 144.908 239.742 145.071 239.96C145.269 240.224 145.645 240.925 145.801 242.623C145.958 244.322 145.74 245.235 145.543 245.702C145.362 246.13 145.064 246.51 144.477 246.851C143.088 247.657 140.675 247.896 137.455 247.514C134.826 247.203 132.125 246.546 129.76 245.937ZM113.189 259.58C113.176 259.635 113.163 259.69 113.15 259.745L113.115 259.898C112.384 263.028 111.486 266.852 110.323 270.333C109.104 273.982 107.836 276.477 106.684 277.581C106.204 278.04 105.923 278.086 105.767 278.083C105.581 278.08 105.037 277.993 104.075 277.101C103.128 276.224 102.792 275.508 102.661 275.041C102.532 274.579 102.502 273.993 102.699 273.159C103.141 271.281 104.544 268.914 106.718 266.292C108.806 263.771 111.211 261.471 113.173 259.595L113.189 259.58ZM109.954 241.592C109.812 241.543 109.668 241.494 109.525 241.445C109.444 241.418 109.363 241.39 109.281 241.362C106.685 240.477 103.593 239.422 100.783 238.05C97.74 236.565 95.7277 235.027 94.873 233.635C94.5272 233.072 94.468 232.69 94.4835 232.371C94.5018 231.989 94.6584 231.167 95.5142 229.844C96.3511 228.551 97.0173 228.098 97.4294 227.932C97.8187 227.776 98.2897 227.748 98.9616 228.006C100.513 228.602 102.473 230.458 104.651 233.371C106.633 236.021 108.435 239.039 109.954 241.592ZM108.015 251.469C105.68 253.043 102.853 254.944 100.039 256.371C97.0729 257.875 94.7718 258.5 93.3524 258.265C92.7705 258.169 92.5127 257.957 92.3527 257.751C92.1646 257.51 91.8044 256.875 91.6225 255.328C91.4419 253.796 91.6267 252.975 91.7937 252.555C91.9499 252.163 92.2261 251.779 92.7984 251.412C94.1337 250.553 96.4616 250.173 99.5655 250.317C102.426 250.451 105.378 250.989 107.854 251.44C107.908 251.45 107.962 251.459 108.015 251.469Z" stroke="#F74700" stroke-width="8.44187" stroke-linecap="round" stroke-linejoin="round"/>
<path d="M122.104 245.354C123.217 247.633 122.407 250.688 120.539 251.758C118.749 252.782 116.673 252.028 115.627 249.831C114.585 247.643 115.081 245.157 116.71 243.819C118.413 242.42 120.995 243.082 122.104 245.354Z" stroke="#A88771" stroke-width="9.11722" stroke-linecap="round" stroke-linejoin="round"/>
<path d="M238.198 131.54C237.211 129.007 216.197 125.293 205.196 154.333C194.195 183.373 217.184 235.037 211.683 252.596C206.183 270.155 204.642 267.826 200.13 277.585C200.13 277.585 209.709 276.571 217.184 264.584C224.659 252.596 226.633 249.051 226.633 235.037C226.633 221.024 220.287 176.957 224.659 160.073C229.031 143.19 239.185 134.073 238.198 131.54Z" stroke="#A88771" stroke-width="5.74047" stroke-linecap="round" stroke-linejoin="round"/>
<path d="M232.691 132.671C232.02 130.277 216.942 127.216 208.551 155.182C200.16 183.148 215.891 231.922 211.647 248.805C207.402 265.688 206.329 263.501 202.922 272.918C202.922 272.918 209.839 271.73 215.417 260.118C220.994 248.506 222.473 245.078 222.698 231.704C222.923 218.331 219.059 176.425 222.48 160.212C225.9 143.999 233.362 135.066 232.691 132.671Z" stroke="#A88771" stroke-width="5.74047" stroke-linecap="round" stroke-linejoin="round"/>
<path d="M228.288 135.41C227.902 133.095 218.101 130.585 211.993 158.137C205.884 185.689 215.105 232.781 211.954 249.388C208.804 265.995 208.15 263.895 205.713 273.19C205.713 273.19 210.266 271.813 214.172 260.307C218.078 248.801 219.122 245.409 219.564 232.353C220.007 219.298 218.401 178.532 220.998 162.605C223.594 146.678 228.675 137.725 228.288 135.41Z" stroke="#A88771" stroke-width="5.74047" stroke-linecap="round" stroke-linejoin="round"/>
<path d="M224.721 135.062C224.621 132.775 220.073 130.778 216.193 158.547C212.312 186.317 214.984 232.769 212.897 249.48C210.809 266.191 210.575 264.132 209.088 273.52C209.088 273.52 211.292 271.913 213.554 260.247C215.816 248.58 216.432 245.146 217.11 232.114C217.788 219.081 218.493 178.541 220.294 162.536C222.094 146.531 224.82 137.348 224.721 135.062Z" stroke="#A88771" stroke-width="5.74047" stroke-linecap="round" stroke-linejoin="round"/>
<path d="M186.579 390.703C186.579 390.703 224.317 393.229 240.525 376.98C262.879 354.572 270 314.557 270 314.557" stroke="#A88771" stroke-width="10.1302" stroke-linecap="round" stroke-linejoin="round"/>
<path d="M105.127 369.805C106.187 374.978 102.066 377.342 100.961 382.501C99.8385 387.745 102.858 392.611 99.5119 396.251C96.4088 399.625 92.9213 396.366 88.8204 397.406C83.9521 398.645 81.5675 404.548 76.8516 402.647C72.49 400.884 73.2995 394.975 69.9175 391.237C67.1651 388.194 63.536 388.934 61.9257 384.885C59.855 379.678 64.3537 376.339 65.3184 370.686C66.1787 365.648 63.9425 361.498 66.777 357.635C70.0676 353.147 74.6145 357.003 79.4026 355.332C83.4035 353.934 85.2076 349.234 89.2547 350.422C93.448 351.655 93.1027 357.098 96.1059 360.812C99.295 364.753 104.036 364.473 105.127 369.805Z" stroke="#B8CDB4" stroke-width="8.44187" stroke-linecap="round" stroke-linejoin="round"/>
<path d="M100.225 371.202C101.061 375.282 97.8401 377.135 96.9832 381.201C96.1124 385.331 98.4815 389.174 95.8687 392.037C93.4455 394.691 90.7125 392.115 87.5054 392.928C83.6986 393.891 81.8409 398.541 78.1489 397.031C74.7339 395.637 75.3589 390.977 72.7078 388.025C70.5499 385.621 67.7118 386.199 66.4461 383.004C64.8189 378.895 68.3337 376.271 69.0806 371.82C69.7469 367.849 67.9916 364.574 70.2038 361.535C72.7721 358.006 76.3346 361.052 80.0785 359.745C83.2066 358.651 84.6116 354.95 87.7795 355.896C91.062 356.875 90.7994 361.163 93.1544 364.098C95.6549 367.211 99.3635 366.998 100.225 371.202Z" stroke="#B8CDB4" stroke-width="8.44187" stroke-linecap="round" stroke-linejoin="round"/>
<path d="M96.1694 372.651C96.8096 375.775 94.3627 377.19 93.7154 380.296C93.0579 383.453 94.8634 386.398 92.8799 388.579C91.0402 390.605 88.9594 388.633 86.5218 389.248C83.6283 389.981 82.2211 393.533 79.4119 392.375C76.8138 391.301 77.2843 387.738 75.2652 385.476C73.6219 383.636 71.4644 384.071 70.4988 381.627C69.2569 378.479 71.9267 376.48 72.4897 373.077C72.9918 370.041 71.6536 367.532 73.3322 365.212C75.2813 362.514 77.9934 364.851 80.8386 363.858C83.2159 363.027 84.2802 360.198 86.6902 360.927C89.1867 361.68 88.9918 364.959 90.7858 367.208C92.6903 369.592 95.5099 369.436 96.1694 372.651Z" stroke="#F74700" stroke-width="4.72745" stroke-linecap="round" stroke-linejoin="round"/>
<path d="M93.4048 373.347C93.9072 375.795 92.0018 376.899 91.5006 379.334C90.9917 381.809 92.4018 384.115 90.8586 385.824C89.4271 387.411 87.8032 385.861 85.9043 386.341C83.6503 386.908 82.5573 389.69 80.367 388.779C78.3412 387.931 78.704 385.142 77.1281 383.366C75.8455 381.92 74.1646 382.258 73.4095 380.34C72.4384 377.875 74.5167 376.308 74.9519 373.641C75.34 371.263 74.2944 369.298 75.6001 367.478C77.1159 365.371 79.232 367.205 81.4482 366.431C83.3 365.783 84.1262 363.568 86.005 364.142C87.9516 364.736 87.8032 367.306 89.2034 369.072C90.6902 370.943 92.8875 370.824 93.4048 373.347Z" stroke="#F74700" stroke-width="4.72745" stroke-linecap="round" stroke-linejoin="round"/>
<path d="M91.2589 374.194C91.6521 376.112 90.1586 376.977 89.7651 378.881C89.3657 380.82 90.4702 382.626 89.2602 383.963C88.1381 385.206 86.866 383.99 85.3775 384.369C83.6109 384.814 82.7537 386.992 81.0373 386.276C79.4498 385.618 79.7349 383.433 78.5003 382.042C77.4956 380.911 76.178 381.178 75.5868 379.675C74.8261 377.747 76.4553 376.521 76.7972 374.434C77.1018 372.574 76.283 371.034 77.3066 369.609C78.4953 367.958 80.1533 369.393 81.8902 368.788C83.3415 368.278 83.9897 366.546 85.4618 366.995C86.9872 367.458 86.8705 369.47 87.9674 370.851C89.1321 372.317 90.8541 372.222 91.2589 374.194Z" stroke="#F74700" stroke-width="4.72745" stroke-linecap="round" stroke-linejoin="round"/>
<path d="M87.7867 375.052C88.5076 378.206 86.738 381.556 84.181 382.126C81.7499 382.667 79.4603 380.941 78.802 377.936C78.1467 374.941 79.4022 372.128 81.7239 371.145C84.1683 370.112 87.0683 371.912 87.7867 375.052Z" stroke="#B8CDB4" stroke-width="8.77955" stroke-linecap="round" stroke-linejoin="round"/>
<path d="M83.4947 378.132C84.2546 377.963 84.7383 377.007 84.5344 376.116C84.3313 375.228 83.5209 374.704 82.796 375.012C82.125 375.295 81.7727 376.119 81.9532 376.943C82.1346 377.774 82.7909 378.287 83.4947 378.132Z" stroke="#F74700" stroke-width="3.37675" stroke-linecap="round" stroke-linejoin="round"/>
<path d="M236.134 98.6128C244.46 99.3804 248.02 90.2027 254.928 84.5858C261.271 79.4282 267.655 83.0359 270.791 74.6595C273.754 66.7414 268.733 63.0094 268.931 54.3359C269.159 44.3755 275.619 37.6966 271.799 28.8438C267.782 19.5346 261.088 24.9646 253.523 19.6936C246.982 15.1355 244.531 4.62707 236.963 4.51794C229.166 4.40549 228.592 15.5044 221.773 20.0298C215.54 24.166 208.52 19.9532 204.473 26.9741C200.051 34.6451 206.833 41.3763 206.67 50.6941C206.494 60.8277 200.323 67.1679 204.652 75.2535C208.981 83.3391 215.894 78.7572 222.677 83.8848C229.669 89.1704 227.889 97.8531 236.134 98.6128Z" stroke="#F74700" stroke-width="7.42885" stroke-linecap="round" stroke-linejoin="round"/>
<path d="M236.249 92.4716C243.495 93.1395 246.593 85.1531 252.604 80.2653C258.123 75.7772 263.679 78.9166 266.407 71.6276C268.986 64.7373 264.617 61.4899 264.789 53.9422C264.987 45.2747 270.609 39.4623 267.285 31.759C263.789 23.6581 257.964 28.3832 251.381 23.7966C245.689 19.8299 243.557 10.6857 236.971 10.5907C230.186 10.4929 229.687 20.1511 223.752 24.0894C218.329 27.6883 212.22 24.0225 208.698 30.132C204.85 36.8072 210.751 42.6645 210.61 50.7731C210.456 59.5911 205.087 65.1084 208.854 72.1445C212.621 79.1807 218.637 75.1934 224.54 79.6554C230.624 84.2549 229.075 91.8104 236.249 92.4716Z" stroke="#F74700" stroke-width="7.42885" stroke-linecap="round" stroke-linejoin="round"/>
<path d="M236.376 86.8702C242.671 87.4507 245.364 80.5111 250.587 76.2639C255.383 72.3641 260.21 75.0921 262.581 68.7584C264.822 62.7714 261.025 59.9494 261.175 53.3915C261.347 45.86 266.232 40.8097 263.343 34.116C260.306 27.0771 255.244 31.1829 249.525 27.1973C244.578 23.751 242.726 15.8052 237.003 15.7227C231.108 15.6377 230.674 24.03 225.517 27.4516C220.805 30.5792 215.496 27.3935 212.436 32.7025C209.092 38.5024 214.22 43.5921 214.098 50.6377C213.964 58.2999 209.299 63.0939 212.572 69.2075C215.845 75.3214 221.072 71.8569 226.201 75.7341C231.488 79.7304 230.142 86.2955 236.376 86.8702Z" stroke="#F74700" stroke-width="7.42885" stroke-linecap="round" stroke-linejoin="round"/>
<path d="M236.522 81.776C241.909 82.2728 244.213 76.3347 248.682 72.7007C252.786 69.3634 256.917 71.6978 258.945 66.2781C260.863 61.1552 257.614 58.7405 257.742 53.1287C257.889 46.6842 262.069 42.363 259.598 36.635C256.999 30.6122 252.668 34.1251 247.774 30.7149C243.541 27.766 241.956 20.9669 237.059 20.8963C232.014 20.8234 231.643 28.0047 227.231 30.9327C223.198 33.6084 218.656 30.883 216.037 35.4254C213.176 40.3886 217.564 44.7436 217.459 50.7724C217.345 57.3291 213.352 61.4311 216.153 66.6624C218.954 71.894 223.427 68.9295 227.816 72.2472C232.34 75.6668 231.188 81.2844 236.522 81.776Z" stroke="#B53A25" stroke-width="9.4549" stroke-linecap="round" stroke-linejoin="round"/>
<path d="M236.864 73.5087C240.736 73.8657 242.392 69.5974 245.605 66.9852C248.555 64.5867 251.524 66.2643 252.982 62.3688C254.36 58.6865 252.025 56.9508 252.117 52.917C252.223 48.2848 255.227 45.1788 253.451 41.0616C251.583 36.7322 248.47 39.2574 244.952 36.8062C241.909 34.6863 240.77 29.7994 237.25 29.7484C233.624 29.6964 233.357 34.8581 230.186 36.9625C227.287 38.8863 224.022 36.9271 222.14 40.192C220.083 43.7596 223.237 46.8898 223.162 51.2235C223.08 55.9361 220.21 58.8847 222.223 62.6451C224.237 66.4054 227.452 64.2743 230.606 66.6593C233.858 69.1173 233.03 73.1552 236.864 73.5087Z" stroke="#B53A25" stroke-width="9.4549" stroke-linecap="round" stroke-linejoin="round"/>
<path d="M237.163 67.0939C239.97 67.3526 241.17 64.2585 243.499 62.3648C245.637 60.6261 247.789 61.8424 248.846 59.0184C249.846 56.3491 248.153 55.0909 248.22 52.167C248.296 48.8088 250.474 46.5572 249.186 43.5729C247.832 40.4345 245.575 42.265 243.025 40.4879C240.82 38.9514 239.994 35.4086 237.442 35.3717C234.814 35.3339 234.62 39.0757 232.321 40.6013C230.22 41.9956 227.853 40.5757 226.489 42.9424C224.998 45.5283 227.284 47.7978 227.23 50.9392C227.17 54.3555 225.09 56.493 226.549 59.2187C228.009 61.9447 230.339 60.3999 232.626 62.1288C234.983 63.9103 234.383 66.8376 237.163 67.0939Z" stroke="#B53A25" stroke-width="9.4549" stroke-linecap="round" stroke-linejoin="round"/>
<path d="M242.902 63.7567C248.844 60.356 251.071 51.2246 247.746 44.4181C244.439 37.646 236.801 35.4633 231.397 39.9007C226.395 44.0088 225.017 51.7429 228.021 58.0514C231.044 64.3976 237.397 66.9076 242.902 63.7567Z" stroke="#F74700" stroke-width="6.7535" stroke-linecap="round" stroke-linejoin="round"/>
<path d="M240.885 58.7797C244.512 56.7044 245.87 51.131 243.842 46.977C241.823 42.8438 237.161 41.5117 233.863 44.2198C230.81 46.7271 229.969 51.4474 231.803 55.2976C233.647 59.1711 237.525 60.7028 240.885 58.7797Z" stroke="#F74700" stroke-width="6.7535" stroke-linecap="round" stroke-linejoin="round"/>
<path d="M239.828 49.8749C240.559 51.3711 240.026 53.3783 238.801 54.0796C237.626 54.7523 236.263 54.2579 235.575 52.8144C234.891 51.3769 235.216 49.7449 236.287 48.8663C237.404 47.9485 239.1 48.3824 239.828 49.8749Z" stroke="#B53A25" stroke-width="6.07815" stroke-linecap="round" stroke-linejoin="round"/>
<path d="M237.069 531.011C226.774 529.998 225.787 523.582 225.787 523.582C225.787 523.582 213.938 529.052 213.799 534.05C213.653 539.247 220.004 540.972 220.85 544.349C221.697 547.726 203.926 544.349 198.708 555.323C194.303 564.586 217.029 558.275 212.952 564.44C207.593 572.545 183.335 568.661 180.797 584.532C178.217 600.656 198.99 590.104 204.208 596.857C215.218 611.104 185.169 612.221 187.284 619.988C188.645 624.982 198.073 623.831 198.99 632.144C199.977 641.093 194.195 645.482 198.99 647.508C206.139 650.531 210.696 634.545 215.773 630.625C220.85 626.704 225.504 637.547 232.133 632.144C238.975 626.566 226.785 619.65 233.684 610.702C235.377 608.507 244.595 619.836 250.185 609.689C258.93 593.818 232.064 585.231 238.762 571.194C242.977 562.36 254.118 569.607 252.865 559.544C251.74 550.508 236.928 552.284 232.133 548.907C227.121 545.379 242.864 531.581 237.069 531.011Z" stroke="#B53A25" stroke-width="8.44187" stroke-linecap="round" stroke-linejoin="round"/>
<path d="M234.805 533.871C226.199 532.993 223.399 527.445 223.399 527.445C223.399 527.445 215.468 532.199 215.325 536.917C215.176 541.82 220.479 543.4 221.169 546.581C221.859 549.758 207.013 546.706 202.591 557.099C198.857 565.876 217.9 559.747 214.457 565.595C209.932 573.284 189.662 569.803 187.455 584.796C185.213 600.028 202.643 589.915 206.972 596.249C216.106 609.608 190.966 610.888 192.695 618.202C193.807 622.902 201.699 621.747 202.422 629.581C203.201 638.016 198.341 642.204 202.341 644.078C208.306 646.877 212.201 631.759 216.468 628.021C220.735 624.283 224.571 634.481 230.144 629.332C235.897 624.02 225.737 617.584 231.554 609.088C232.981 607.004 240.632 617.624 245.362 608.011C252.759 592.967 230.333 585.069 236.009 571.775C239.581 563.407 248.862 570.161 247.867 560.675C246.973 552.159 234.575 553.946 230.582 550.795C226.408 547.503 239.649 534.367 234.805 533.871Z" stroke="#B53A25" stroke-width="9.11722" stroke-linecap="round" stroke-linejoin="round"/>
<path d="M221.22 534.884C221.568 534.566 221.919 534.266 222.256 533.992C222.536 534.276 222.843 534.566 223.179 534.857C224.775 536.241 226.962 537.592 229.855 538.419C229.651 538.784 229.428 539.175 229.187 539.601C229.146 539.675 229.105 539.75 229.063 539.824C228.066 541.587 226.764 543.906 226.041 546.088C225.679 547.178 225.314 548.654 225.42 550.248C225.541 552.081 226.277 553.851 227.737 555.033C229.35 556.34 231.472 556.927 233.086 557.315C233.88 557.505 234.595 557.656 235.281 557.802C236.287 558.014 237.23 558.217 238.273 558.507C239.925 558.967 241.081 559.483 241.815 560.084C242.407 560.574 242.635 561.02 242.705 561.715C242.746 562.127 242.754 562.418 242.75 562.614C242.546 562.684 242.18 562.796 241.553 562.928C241.4 562.961 241.234 562.995 241.056 563.029C238.68 563.502 234.147 564.4 231.711 570.258C229.762 574.945 230.287 579.281 231.784 582.979C233.02 586.028 235.022 588.871 236.695 591.248C236.875 591.502 237.051 591.755 237.222 591.998C239.16 594.767 240.594 597.002 241.277 599.221C241.858 601.112 241.919 603.06 240.69 605.627C239.923 607.227 239.336 607.436 239.148 607.491C238.81 607.588 238.227 607.558 237.224 607.102C236.512 606.778 235.963 606.437 235.322 606.042C234.955 605.816 234.557 605.569 234.081 605.299C233.592 605.019 232.797 604.583 231.938 604.408C231.034 604.218 229.143 604.175 227.806 606.18C225.908 609.03 225.187 611.958 225.248 614.821C225.306 617.472 226.045 619.826 226.555 621.43C227.165 623.351 227.398 624.128 227.418 624.732C227.418 624.736 227.42 624.742 227.422 624.749C227.437 624.8 227.48 624.938 226.995 625.401C226.359 626.005 226.063 625.961 225.905 625.941L225.9 625.938C225.509 625.88 224.968 625.624 223.923 624.918C223.815 624.844 223.693 624.763 223.56 624.668C222.718 624.087 221.42 623.189 220.112 622.743C218.244 622.105 216.062 622.22 214.009 624.074C212.435 625.492 211.142 627.71 210.142 629.554C209.599 630.554 209.15 631.425 208.72 632.262C208.186 633.299 207.68 634.285 207.055 635.396C206.405 636.551 205.832 637.449 205.324 638.108C205.9 635.852 206.577 632.566 206.223 628.561C205.971 625.718 205.044 623.493 203.702 621.778C202.44 620.163 200.936 619.171 199.791 618.489C199.295 618.195 198.897 617.969 198.559 617.776C198.156 617.55 197.838 617.371 197.544 617.178C197.653 617.094 197.773 617.006 197.908 616.912C198.687 616.358 199.661 615.787 200.835 615.132C201.067 615 201.308 614.865 201.556 614.73C202.5 614.203 203.534 613.629 204.52 613.028C206.84 611.617 209.887 609.527 211.467 606.248C212.344 604.428 212.752 602.29 212.43 599.954C212.122 597.718 211.19 595.611 209.867 593.615C207.823 590.539 204.594 589.945 202.394 589.763C201.181 589.665 199.924 589.675 198.786 589.692C198.609 589.695 198.434 589.698 198.263 589.698C197.286 589.715 196.398 589.732 195.542 589.702C193.339 589.624 192.428 589.239 192.106 588.929H192.106C192.053 588.878 191.976 588.804 191.906 588.483C191.817 588.078 191.743 587.244 191.959 585.748C192.624 581.138 195.841 578.896 201.537 576.938C202.459 576.62 203.523 576.289 204.623 575.948C206.418 575.388 208.31 574.8 209.845 574.192C212.379 573.183 215.412 571.626 217.203 568.499C217.832 567.398 218.843 565.048 217.734 562.502C216.809 560.381 215.012 559.737 214.316 559.517C213.392 559.223 212.36 559.098 211.489 559.017C210.955 558.967 210.331 558.926 209.742 558.886C209.392 558.862 209.054 558.838 208.755 558.815C207.972 558.757 207.282 558.686 206.687 558.582C208.19 556.144 210.929 554.877 214.358 554.084C215.276 553.871 216.17 553.706 217.045 553.547C217.096 553.537 217.148 553.527 217.2 553.52C217.99 553.375 218.821 553.226 219.538 553.051C220.208 552.885 221.245 552.598 222.134 551.963C222.614 551.622 223.307 551.001 223.786 549.944C224.317 548.769 224.383 547.499 224.15 546.385L220.73 547.415L224.15 546.385C223.746 544.46 222.741 543.106 222.025 542.272C221.557 541.725 220.914 541.083 220.429 540.597C220.24 540.408 220.075 540.243 219.954 540.118C218.761 538.882 218.681 538.436 218.685 538.122C218.692 538.105 218.757 537.791 219.181 537.16C219.664 536.437 220.381 535.65 221.22 534.884ZM231.345 535.387C231.348 535.387 231.341 535.421 231.317 535.495C231.33 535.427 231.342 535.387 231.345 535.387ZM242.712 562.961C242.711 562.961 242.714 562.938 242.727 562.904C242.72 562.944 242.713 562.965 242.712 562.961ZM203.863 639.296C203.86 639.293 203.858 639.293 203.858 639.293C203.858 639.293 203.86 639.293 203.863 639.296ZM196.776 616.557C196.776 616.557 196.781 616.564 196.789 616.577C196.779 616.564 196.775 616.557 196.776 616.557ZM206.015 560.007C206.015 560.007 206.016 560 206.019 559.986C206.017 560 206.015 560.007 206.015 560.007Z" stroke="#B53A25" stroke-width="8.44187" stroke-linecap="round" stroke-linejoin="round"/>
<path d="M213.116 573.659C213.198 573.686 213.177 573.693 213.09 573.652C213.1 573.656 213.109 573.659 213.116 573.659ZM220.596 547.408C220.645 547.357 220.694 547.314 220.743 547.266C220.787 547.307 220.83 547.347 220.875 547.388C221.968 548.387 223.395 549.353 225.204 550.045C225.177 550.096 225.15 550.147 225.123 550.197L225.088 550.265C224.385 551.572 223.438 553.344 222.849 555.067C222.447 553.702 221.745 552.723 221.245 552.105C220.869 551.643 220.324 551.069 219.959 550.684C219.832 550.549 219.726 550.437 219.657 550.363C219.23 549.893 219.055 549.637 218.975 549.478C218.972 549.471 218.969 549.465 218.967 549.461C219.003 549.38 219.07 549.245 219.189 549.059C219.505 548.563 219.993 547.989 220.596 547.408ZM226.715 547.01C226.73 546.942 226.743 546.902 226.745 546.902C226.748 546.902 226.74 546.935 226.715 547.01ZM221.166 561.03C221.5 560.777 221.937 560.375 222.318 559.77C222.545 561.128 223.16 562.452 224.281 563.407C225.671 564.596 227.455 565.092 228.661 565.393C229.309 565.555 229.859 565.676 230.374 565.788C231.1 565.946 231.757 566.092 232.524 566.315C233.724 566.662 234.444 567.027 234.845 567.371C235.102 567.594 235.166 567.729 235.198 568.067C235.198 568.07 235.199 568.074 235.199 568.081C235.137 568.094 235.069 568.111 234.995 568.128C234.885 568.155 234.763 568.179 234.63 568.209C232.814 568.594 228.989 569.408 226.973 574.5C225.409 578.454 225.821 582.108 227.001 585.201C227.962 587.72 229.52 590.06 230.765 591.927C230.901 592.133 231.033 592.332 231.16 592.522C232.614 594.723 233.611 596.381 234.077 597.995C234.457 599.309 234.506 600.656 233.664 602.503C233.35 603.195 233.121 603.442 233.026 603.52C232.965 603.52 232.729 603.509 232.214 603.263C231.727 603.03 231.384 602.807 230.944 602.52C230.665 602.338 230.348 602.132 229.931 601.882C229.563 601.662 228.854 601.247 228.053 601.075C227.159 600.882 225.306 600.872 224.037 602.881C222.509 605.299 221.923 607.784 221.966 610.202C222.006 612.434 222.59 614.399 222.97 615.672C223.375 617.03 223.526 617.58 223.565 617.925C223.549 617.945 223.529 617.965 223.507 617.989C223.43 618.063 223.373 618.114 223.335 618.144C223.29 618.127 223.226 618.1 223.14 618.053C222.93 617.942 222.678 617.78 222.316 617.523C222.247 617.472 222.166 617.415 222.074 617.347C221.46 616.898 220.358 616.095 219.239 615.693C218.494 615.426 217.573 615.257 216.55 615.453C215.507 615.652 214.573 616.189 213.767 616.956C212.46 618.205 211.425 620.096 210.677 621.548C210.246 622.385 209.906 623.081 209.583 623.743C209.533 623.844 209.483 623.949 209.433 624.05C209.48 623.139 209.475 622.163 209.391 621.129C209.197 618.735 208.456 616.807 207.337 615.294C206.287 613.876 205.043 613.018 204.151 612.461C203.939 612.33 203.754 612.215 203.591 612.117C203.986 611.86 204.437 611.587 204.95 611.279C205.121 611.178 205.299 611.073 205.483 610.965C206.195 610.543 206.993 610.074 207.751 609.584C209.511 608.45 212 606.663 213.306 603.813C214.032 602.226 214.368 600.376 214.111 598.367C213.865 596.439 213.111 594.649 212.068 592.984C210.295 590.161 207.487 589.665 205.774 589.523C204.814 589.445 203.831 589.459 202.975 589.476C202.839 589.479 202.706 589.479 202.577 589.482C201.842 589.499 201.201 589.513 200.583 589.493C199.392 589.452 198.873 589.28 198.688 589.199C198.645 588.952 198.611 588.409 198.756 587.369C199.199 584.191 201.211 582.574 205.413 581.034C206.049 580.801 206.821 580.544 207.636 580.271C209.019 579.811 210.526 579.312 211.701 578.815C213.656 577.985 216.17 576.641 217.668 573.889C218.189 572.93 219.09 570.779 218.116 568.408C217.268 566.345 215.591 565.72 214.995 565.524C214.202 565.261 213.345 565.156 212.681 565.096C212.272 565.055 211.776 565.025 211.323 564.994C211.087 564.977 210.862 564.96 210.668 564.947C211.69 563.978 213.148 563.346 215.007 562.884C215.674 562.718 216.327 562.587 216.985 562.458C217.026 562.452 217.067 562.445 217.108 562.435C217.694 562.32 218.346 562.195 218.913 562.046C219.428 561.908 220.351 561.645 221.166 561.03ZM235.217 568.813C235.217 568.813 235.217 568.807 235.22 568.793C235.218 568.807 235.217 568.813 235.217 568.813ZM232.979 603.547C232.979 603.547 232.991 603.536 233.016 603.526C232.993 603.543 232.98 603.55 232.979 603.547ZM223.656 617.813C223.656 617.813 223.655 617.813 223.653 617.817C223.655 617.813 223.656 617.813 223.656 617.813ZM223.266 618.192C223.267 618.192 223.271 618.188 223.28 618.185C223.271 618.192 223.266 618.192 223.266 618.192ZM198.742 589.371C198.739 589.374 198.724 589.351 198.707 589.287C198.737 589.334 198.745 589.368 198.742 589.371ZM209.356 566.976C209.356 566.976 209.358 566.97 209.362 566.956C209.359 566.97 209.357 566.976 209.356 566.976ZM218.947 549.377C218.946 549.387 218.946 549.397 218.945 549.407C218.944 549.4 218.945 549.397 218.945 549.39C218.946 549.387 218.946 549.384 218.947 549.377Z" stroke="#B53A25" stroke-width="8.44187" stroke-linecap="round" stroke-linejoin="round"/>
<path d="M231.02 553.527C225.916 553.007 224.256 549.714 224.256 549.714C224.256 549.714 219.553 552.534 219.468 555.333C219.38 558.241 222.524 559.176 222.933 561.064C223.343 562.948 214.539 561.138 211.916 567.3C209.702 572.504 220.995 568.871 218.953 572.339C216.27 576.897 204.25 574.834 202.941 583.725C201.611 592.758 211.948 586.761 214.515 590.516C219.932 598.441 205.023 599.197 206.048 603.533C206.708 606.322 211.388 605.637 211.817 610.283C212.278 615.287 209.397 617.769 211.769 618.88C215.306 620.538 217.615 611.576 220.146 609.358C222.677 607.143 224.951 613.187 228.256 610.134C231.667 606.984 225.642 603.168 229.092 598.13C229.938 596.894 234.475 603.192 237.28 597.492C241.667 588.571 228.368 583.887 231.734 576.002C233.852 571.042 239.356 575.047 238.766 569.421C238.236 564.373 230.883 565.43 228.515 563.562C226.041 561.611 233.893 553.82 231.02 553.527Z" stroke="#B53A25" stroke-width="8.44187" stroke-linecap="round" stroke-linejoin="round"/>
<path d="M228.593 561.31C224.868 560.929 223.656 558.528 223.656 558.528C223.656 558.528 220.224 560.584 220.162 562.627C220.097 564.748 222.393 565.433 222.691 566.808C222.99 568.185 216.565 566.865 214.65 571.363C213.034 575.162 221.276 572.508 219.786 575.04C217.828 578.366 209.055 576.86 208.1 583.35C207.129 589.942 214.673 585.565 216.547 588.307C220.5 594.088 209.619 594.642 210.368 597.806C210.849 599.842 214.265 599.343 214.578 602.733C214.915 606.383 212.811 608.196 214.543 609.007C217.124 610.219 218.81 603.675 220.657 602.057C222.504 600.44 224.164 604.853 226.576 602.625C229.066 600.325 224.668 597.539 227.186 593.862C227.804 592.961 231.115 597.56 233.162 593.396C236.364 586.886 226.658 583.468 229.114 577.714C230.66 574.091 234.677 577.016 234.246 572.909C233.86 569.225 228.494 569.995 226.765 568.634C224.959 567.209 230.69 561.523 228.593 561.31Z" stroke="#B53A25" stroke-width="8.44187" stroke-linecap="round" stroke-linejoin="round"/>
<path d="M225.357 570.417C222.985 570.178 222.213 568.648 222.213 568.648C222.213 568.648 220.027 569.958 219.987 571.258C219.946 572.609 221.408 573.044 221.598 573.922C221.788 574.797 217.696 573.956 216.477 576.823C215.448 579.241 220.697 577.552 219.748 579.163C218.501 581.28 212.914 580.321 212.306 584.455C211.688 588.655 216.492 585.866 217.685 587.612C220.203 591.296 213.273 591.647 213.75 593.663C214.056 594.96 216.232 594.639 216.431 596.8C216.646 599.126 215.306 600.278 216.409 600.795C218.053 601.568 219.126 597.401 220.303 596.371C221.479 595.341 222.536 598.151 224.072 596.732C225.658 595.267 222.857 593.494 224.461 591.151C224.855 590.577 226.963 593.504 228.267 590.853C230.306 586.707 224.124 584.532 225.689 580.865C226.674 578.559 229.232 580.423 228.957 577.806C228.711 575.459 225.294 575.952 224.193 575.084C223.043 574.176 226.692 570.556 225.357 570.417Z" stroke="#B53A25" stroke-width="8.44187" stroke-linecap="round" stroke-linejoin="round"/>
<path d="M220.617 572.852C218.653 572.653 218.015 571.386 218.015 571.386C218.015 571.386 216.206 572.47 216.173 573.547C216.139 574.665 217.349 575.026 217.506 575.749C217.664 576.475 214.277 575.779 213.269 578.15C212.417 580.152 216.76 578.754 215.975 580.088C214.943 581.841 210.32 581.047 209.816 584.468C209.305 587.942 213.281 585.636 214.268 587.078C216.351 590.127 210.617 590.418 211.012 592.086C211.265 593.16 213.065 592.896 213.23 594.682C213.408 596.607 212.299 597.563 213.212 597.988C214.572 598.626 215.461 595.179 216.434 594.328C217.407 593.474 218.282 595.8 219.553 594.625C220.866 593.413 218.548 591.947 219.875 590.009C220.2 589.533 221.946 591.954 223.024 589.763C224.712 586.332 219.597 584.529 220.891 581.496C221.706 579.588 223.823 581.128 223.596 578.967C223.392 577.022 220.564 577.431 219.653 576.711C218.701 575.962 221.721 572.963 220.617 572.852Z" stroke="#B53A25" stroke-width="8.44187" stroke-linecap="round" stroke-linejoin="round"/>
<path d="M205.195 488.464C205.195 488.464 233.402 506.36 226.405 581.598C223.94 608.105 202.093 641.937 202.093 641.937" stroke="#8D1202" stroke-width="2.36372" stroke-linecap="round" stroke-linejoin="round"/>
<path d="M226.938 550.086C226.938 550.086 220.978 555.414 216.478 556.336C211.888 557.275 204.654 554.476 204.654 554.476" stroke="#8D1202" stroke-width="1.68837" stroke-linecap="round" stroke-linejoin="round"/>
<path d="M227.475 555.661C227.475 555.661 231.605 560.628 234.839 561.3C238.14 561.982 243.5 558.815 243.5 558.815" stroke="#8D1202" stroke-width="1.68837" stroke-linecap="round" stroke-linejoin="round"/>
<path d="M227.056 566.635C227.056 566.635 213.94 581.324 206.888 583.181C202.339 584.377 191.374 583.181 191.374 583.181" stroke="#8D1202" stroke-width="1.68837" stroke-linecap="round" stroke-linejoin="round"/>
<path d="M226.994 580.311C226.994 580.311 233.414 596.354 237.492 599.559C240.123 601.622 245.371 603.074 245.371 603.074" stroke="#8D1202" stroke-width="1.68837" stroke-linecap="round" stroke-linejoin="round"/>
<path d="M221.09 602.334C221.09 602.334 208.597 615.872 202.939 617.455C199.289 618.475 192.648 617.455 192.648 617.455" stroke="#8D1202" stroke-width="1.68837" stroke-linecap="round" stroke-linejoin="round"/>
<path d="M222.966 598.039C222.966 598.039 221.556 614.261 222.966 621.001C223.875 625.347 228.79 629.423 228.79 629.423" stroke="#8D1202" stroke-width="1.68837" stroke-linecap="round" stroke-linejoin="round"/>
</svg>
