<svg width="632" height="153" viewBox="0 0 632 153" fill="none" xmlns="http://www.w3.org/2000/svg">
    <path d="M45.8421 14L89 22.6197L80.5789 59.5613L41.6316 43.5533L51.1053 79.2635L79.5263 71.8752L89 126.056L59.5263 151.915L9 144.527L21.6316 108.817L59.5263 119.899L52.1579 85.4205L21.6316 92.8088L9 43.5533L45.8421 14Z" fill="#F74700" />
    <path d="M41.9412 43.5213L46.1242 14L89 22.6104L80.634 59.5121L41.9412 43.5213Z" fill="#B53A25" />
    <path d="M51.2794 79.259L21.9412 92.7058L52.3272 85.3712L59.6618 119.599L89 125.711L79.5698 71.9245L51.2794 79.259Z" fill="#B53A25" />
    <path d="M104.628 34.9253L125.828 31.6116V71.3767L139.962 54.8079L159.043 66.4061V92.0878L149.149 97.0584L161.87 105.343V151.736L142.789 148.422V116.113L125.828 108.657V148.422H104.628V34.9253Z" fill="#B53A25" />
    <path d="M125.828 102.858V76.3474L139.962 78.8327V87.9456L125.828 102.858Z" fill="#2B3531" />
    <path d="M125.828 31.6116L104.628 34.9253V148.422H125.828V31.6116Z" fill="#F74700" />
    <path d="M224.356 139.756V37.9339L245.523 40.5008V124.355L260.851 131.2L245.523 151.736L224.356 139.756Z" fill="#F74700" />
    <path d="M260.851 131.2L245.523 124.355L224.356 139.756L245.523 151.736L260.851 131.2Z" fill="#B53A25" />
    <path d="M270.737 139.756V37.9339L291.904 40.5008V124.355L307.232 131.2L291.904 151.736L270.737 139.756Z" fill="#F74700" />
    <path d="M307.232 131.2L291.904 124.355L270.737 139.756L291.904 151.736L307.232 131.2Z" fill="#B53A25" />
    <path d="M203.62 55.409L194.661 50.5785L182.289 61.4472L194.661 69.9006L203.62 55.409Z" fill="#B53A25" />
    <path d="M184.228 151.736V76.7202H201.68V149.839L184.228 151.736Z" fill="#F74700" />
    <path d="M322.512 59.3252V37.9339L345.625 40.5008V55.9026H357.953V71.3043H345.625V124.355L361.805 130.344L345.625 151.736L324.053 141.468V70.4486H317.119L322.512 59.3252Z" fill="#F74700" />
    <path d="M362.113 129.831L345.702 124.184L324.13 141.553L345.702 151.736L362.113 129.831Z" fill="#B53A25" />
    <path d="M374.286 74.5819L409.25 56.9008L435.302 72.1708V135.662L401.024 151.736L374.286 135.662V74.5819Z" fill="#F74700" />
    <path d="M415.421 83.4224L394.853 77.7966V121.999L415.421 131.643V83.4224Z" fill="#2B3531" />
    <path d="M394.853 77.7966L409.25 56.9008L435.302 72.1708V135.662L415.421 131.643V83.4224L394.853 77.7966Z" fill="#B53A25" />
    <path d="M448.712 39.5668L467.713 31.6116V72.9788L479.928 57.0683L505.715 72.9788V135.825L473.821 151.736L448.712 137.416V39.5668Z" fill="#F74700" />
    <path d="M468.128 124.465V87.2479L485.386 94.3063V130.24L468.128 124.465Z" fill="#2B3531" />
    <path d="M468.127 87.2479L467.588 72.7066L479.992 56.9008L505.88 73.3388L505.88 135.93L485.386 130.24L485.386 94.2025L468.127 87.2479Z" fill="#B53A25" />
    <path d="M516.666 69.124L551.182 50.5785L569.16 62.3802V98.6281L553.34 113.802L537.52 106.215V120.545L567.721 130.661L551.182 151.736L516.666 134.876V69.124Z" fill="#F74700" />
    <path d="M537.16 97.3636L537.969 73.3388L553.34 79.345V97.3636H537.16Z" fill="#2B3531" />
    <path d="M538.239 73.3388L551.182 50.5785L569.519 62.5909V98.6281L553.34 97.3636L552.8 79.0289L538.239 73.3388Z" fill="#B53A25" />
    <path d="M603.948 56.6652H582.463V142.301L603.948 152.376L619.704 130.547L603.948 122.991V76.8148L616.123 84.3708L631.879 63.3817L611.11 52.4674L603.948 63.3817V56.6652Z" fill="#F74700" />
    <path d="M603.769 63.7071L611.226 51.843L632 63.0826L616.553 84.9376L603.769 76.82V63.7071Z" fill="#B53A25" />
    <path d="M619.749 130.521L603.769 123.028L582.463 142.385L603.769 153L619.749 130.521Z" fill="#B53A25" />
</svg>
    