<svg width="104" height="79" viewBox="0 0 104 79" fill="none" xmlns="http://www.w3.org/2000/svg">
<path d="M87.6375 37.5983C87.6375 37.2944 87.5173 37.0031 87.3033 36.7882C87.0893 36.5734 86.7995 36.4528 86.4969 36.4528H33.5304C33.2328 36.4603 32.9499 36.5843 32.7421 36.7984C32.5343 37.0125 32.418 37.2996 32.418 37.5986C32.418 37.8976 32.5343 38.1847 32.7421 38.3988C32.9499 38.6129 33.2328 38.7369 33.5304 38.7445H86.4969C86.7995 38.7443 87.0893 38.6234 87.3033 38.4085C87.5173 38.1935 87.6375 37.9021 87.6375 37.5983Z" fill="#91A88C"/>
<path d="M56.8701 37.6985C56.8705 37.548 56.8411 37.399 56.7836 37.2599C56.7264 37.1208 56.6425 36.9945 56.5363 36.888C56.4306 36.7816 56.3049 36.6971 56.1664 36.6395C56.0278 36.5819 55.8795 36.5522 55.7299 36.5522H53.9184C53.7219 36.5522 48.8983 36.5574 43.2759 39.2492C39.9998 40.81 37.0715 43.0197 34.6668 45.7454C31.6684 49.1419 29.4282 53.3853 28.0095 58.3572C27.9643 58.5028 27.9486 58.6561 27.9633 58.8081C27.978 58.9601 28.0227 59.1079 28.095 59.242C28.1672 59.3765 28.2654 59.4952 28.3839 59.5909C28.5024 59.6865 28.6387 59.7574 28.7849 59.7997C28.931 59.8415 29.0841 59.8539 29.2351 59.8355C29.386 59.8176 29.5318 59.7694 29.664 59.6938C29.7961 59.6182 29.9118 59.5166 30.0044 59.3957C30.097 59.2744 30.1646 59.1361 30.2031 58.9883C31.5206 54.3717 33.5824 50.4444 36.331 47.3151C38.5191 44.8221 41.1847 42.7976 44.1689 41.3617C49.3326 38.8645 53.869 38.8418 53.9142 38.8418H55.7299C56.0317 38.8418 56.3215 38.7214 56.5355 38.507C56.7495 38.2927 56.8696 38.0019 56.8701 37.6985Z" fill="#91A88C"/>
<path d="M94.4635 37.7884C94.4635 36.9348 94.2116 36.1004 93.7394 35.3907C93.2675 34.681 92.5962 34.1278 91.8111 33.8012C91.026 33.4745 90.162 33.3891 89.3283 33.5556C88.495 33.7221 87.7291 34.1331 87.1285 34.7367C86.5276 35.3403 86.1184 36.1093 85.9526 36.9464C85.7868 37.7836 85.8716 38.6514 86.1968 39.44C86.522 40.2286 87.0727 40.9026 87.7794 41.3768C88.4861 41.851 89.3168 42.1041 90.1667 42.1041C91.306 42.1024 92.3976 41.6471 93.2032 40.8382C94.0087 40.0292 94.4618 38.9325 94.4635 37.7884ZM88.1485 37.7884C88.1485 37.3877 88.267 36.996 88.4886 36.6628C88.7103 36.3297 89.0257 36.07 89.3944 35.9168C89.7631 35.7636 90.1684 35.7237 90.5597 35.8021C90.951 35.8804 91.3103 36.0737 91.5924 36.3572C91.8742 36.6408 92.066 37.0019 92.1436 37.3951C92.2211 37.7881 92.1806 38.1955 92.0276 38.5655C91.8746 38.9356 91.6155 39.2517 91.2834 39.474C90.9514 39.6961 90.5614 39.8145 90.1624 39.8139C89.6284 39.8125 89.1165 39.5986 88.7388 39.2189C88.3616 38.8393 88.1494 38.3249 88.1485 37.7884Z" fill="#91A88C"/>
<path d="M48.4401 58.6727C48.4401 57.8195 48.1882 56.9851 47.716 56.2754C47.2437 55.5657 46.5728 55.0122 45.7877 54.6856C45.0022 54.3589 44.1382 54.2735 43.3049 54.44C42.4713 54.6065 41.7057 55.0178 41.1048 55.6212C40.5038 56.225 40.0946 56.9936 39.9288 57.831C39.763 58.668 39.8481 59.5357 40.1733 60.3244C40.4985 61.1132 41.0493 61.787 41.7559 62.2614C42.4625 62.7354 43.2934 62.9887 44.1433 62.9887C45.2822 62.987 46.3742 62.5317 47.1798 61.723C47.9853 60.9137 48.4384 59.8171 48.4401 58.6727ZM42.1258 58.6727C42.1256 58.2722 42.2438 57.8806 42.4653 57.5475C42.6869 57.214 43.0019 56.9543 43.3701 56.801C43.7388 56.6477 44.1446 56.6076 44.5359 56.6857C44.9267 56.7639 45.2865 56.9565 45.5682 57.24C45.8504 57.5231 46.0426 57.8844 46.1202 58.2773C46.1982 58.6701 46.1581 59.0775 46.0055 59.4478C45.8525 59.8176 45.5942 60.134 45.2622 60.3565C44.9306 60.579 44.5406 60.6977 44.1416 60.6977C43.6071 60.6968 43.0948 60.4833 42.7171 60.1037C42.3392 59.724 42.1266 59.2095 42.1258 58.6727Z" fill="#91A88C"/>
<path d="M87.6375 37.615C87.6375 37.3111 87.5173 37.0197 87.3033 36.8047C87.0894 36.5898 86.7995 36.4689 86.4969 36.4688H82.3906L82.3352 36.4746C77.7281 36.923 74.6788 38.6691 72.1394 42.3169C71.1343 43.76 70.2166 45.3336 69.3288 46.8521C67.9678 49.1863 66.6815 51.391 65.1049 53.1845C63.813 54.6475 62.3531 55.7843 60.7663 56.5538C59.2054 57.3109 57.5998 57.6764 55.9938 57.6422H47.6695C47.5173 57.6384 47.3656 57.6653 47.2241 57.7208C47.0822 57.7768 46.953 57.8605 46.8439 57.9672C46.7348 58.0744 46.6483 58.2017 46.589 58.3426C46.5298 58.4839 46.4995 58.6351 46.4995 58.788C46.4995 58.9413 46.5298 59.0924 46.589 59.2333C46.6483 59.3743 46.7348 59.5019 46.8439 59.6087C46.953 59.7155 47.0822 59.7992 47.2241 59.8551C47.3656 59.911 47.5173 59.9379 47.6695 59.9341H55.9524C57.9186 59.9742 59.8699 59.5318 61.753 58.6172C63.6139 57.7148 65.3154 56.3979 66.8081 54.703C68.5364 52.7413 69.94 50.3362 71.2967 48.0094C72.1611 46.5272 73.0549 44.995 74.0079 43.6272C76.1442 40.5607 78.6074 39.1467 82.5014 38.7575H86.4969C86.7987 38.7574 87.0885 38.637 87.302 38.4229C87.516 38.2087 87.6362 37.9182 87.6375 37.615Z" fill="#91A88C"/>
<path d="M48.4401 16.6252C48.4401 15.7716 48.1882 14.9372 47.716 14.2275C47.2437 13.5178 46.5728 12.9646 45.7877 12.638C45.0022 12.3113 44.1382 12.2258 43.3049 12.3924C42.4713 12.5589 41.7057 12.9699 41.1048 13.5735C40.5038 14.1771 40.0946 14.946 39.9288 15.7832C39.763 16.6204 39.8481 17.4881 40.1733 18.2768C40.4985 19.0654 41.0493 19.7394 41.7559 20.2136C42.4625 20.6878 43.2934 20.9409 44.1433 20.9409C45.2822 20.9392 46.3742 20.4839 47.1798 19.6749C47.9849 18.866 48.4384 17.7692 48.4401 16.6252ZM42.1258 16.6252C42.1262 16.2246 42.2449 15.8332 42.4667 15.5004C42.6886 15.1676 43.0036 14.9083 43.3723 14.7554C43.741 14.6025 44.1463 14.5627 44.5376 14.6411C44.9284 14.7196 45.2877 14.9128 45.5695 15.1962C45.8512 15.4796 46.043 15.8406 46.1206 16.2335C46.1982 16.6264 46.1581 17.0335 46.0051 17.4035C45.8525 17.7735 45.5938 18.0896 45.2622 18.312C44.9306 18.5344 44.5406 18.653 44.1416 18.6529C43.6067 18.6523 43.0939 18.4384 42.7159 18.0581C42.3378 17.6779 42.1256 17.1625 42.1258 16.6252Z" fill="#91A88C"/>
<path d="M87.6375 37.6831C87.6375 37.3792 87.5173 37.0878 87.3033 36.8728C87.0894 36.6579 86.7995 36.5371 86.4969 36.5369H82.5014C78.6074 36.1477 76.1442 34.7338 74.0079 31.6674C73.0549 30.2995 72.1611 28.7671 71.2997 27.2843C69.943 24.9575 68.5394 22.5524 66.8111 20.5906C65.318 18.8957 63.6169 17.579 61.756 16.6764C59.8729 15.7628 57.9208 15.3202 55.9554 15.3597H47.6695C47.5173 15.3559 47.3656 15.3827 47.2241 15.4385C47.0822 15.4944 46.953 15.5782 46.8439 15.6849C46.7348 15.7917 46.6483 15.9193 46.589 16.0603C46.5298 16.2012 46.4995 16.3527 46.4995 16.5056C46.4995 16.6586 46.5298 16.81 46.589 16.9509C46.6483 17.0919 46.7348 17.2195 46.8439 17.3263C46.953 17.4331 47.0822 17.5169 47.2241 17.5727C47.3656 17.6286 47.5173 17.6553 47.6695 17.6515H55.9887C57.5947 17.6171 59.2003 17.9828 60.7611 18.7399C62.348 19.5094 63.8078 20.6418 65.0997 22.1091C66.6802 23.9027 67.9661 26.1074 69.3237 28.4415C70.2115 29.963 71.1292 31.5365 72.1342 32.9767C74.6754 36.6232 77.7247 38.3707 82.3305 38.8191L82.3855 38.8249H86.4918C86.6418 38.8255 86.7901 38.7964 86.9287 38.7394C87.0676 38.6823 87.1938 38.5983 87.2999 38.4923C87.4065 38.3863 87.4909 38.2603 87.5488 38.1214C87.6068 37.9826 87.6366 37.8336 87.6375 37.6831Z" fill="#91A88C"/>
<path d="M56.8701 37.5813C56.8701 37.4309 56.8407 37.2818 56.7836 37.1427C56.726 37.0037 56.6421 36.8773 56.5364 36.7709C56.4302 36.6644 56.3045 36.58 56.166 36.5224C56.0279 36.4647 55.8791 36.4351 55.7295 36.4351H53.918C53.8686 36.4351 49.3301 36.4146 44.1672 33.9181C41.1833 32.4818 38.5178 30.4571 36.3292 27.9646C33.5807 24.8345 31.5189 20.9072 30.2014 16.2908C30.1128 16.0049 29.9162 15.7651 29.6539 15.6228C29.3915 15.4806 29.084 15.4471 28.7974 15.5296C28.5107 15.612 28.2676 15.8039 28.12 16.0642C27.9725 16.3245 27.9322 16.6324 28.0078 16.9221C29.4265 21.8962 31.6667 26.1388 34.6651 29.5336C37.0702 32.2596 39.999 34.4693 43.2755 36.0299C48.8979 38.7217 53.7215 38.7283 53.924 38.7268H55.7295C56.0321 38.7268 56.322 38.6062 56.5359 38.3913C56.7499 38.1765 56.8701 37.8852 56.8701 37.5813Z" fill="#91A88C"/>
<path d="M31.2384 58.6035C31.2387 58.9994 31.3428 59.3884 31.5402 59.7313C31.7375 60.0742 32.0213 60.3586 32.3629 60.5563C32.7044 60.7545 32.988 61.0393 33.1851 61.3822C33.3823 61.7251 33.4861 62.1141 33.4861 62.5104C33.4861 62.9062 33.3823 63.2953 33.1851 63.6382C32.988 63.9811 32.7044 64.2659 32.3629 64.464C32.0219 64.6626 31.739 64.9474 31.5425 65.2908C31.346 65.6337 31.2429 66.0227 31.2435 66.4185C31.2437 66.8144 31.1401 67.2038 30.9431 67.5467C30.7461 67.8897 30.4627 68.1749 30.1213 68.373C29.78 68.5712 29.3926 68.6754 28.9983 68.6758C28.6041 68.6758 28.2167 68.5716 27.8751 68.3739C27.5337 68.1758 27.1464 68.0716 26.7521 68.0716C26.3578 68.0716 25.9705 68.1758 25.6291 68.3739C25.2877 68.572 24.9003 68.6767 24.506 68.6771C24.1116 68.6771 23.7241 68.5729 23.3825 68.3752C23.0409 68.1775 22.7571 67.8926 22.5598 67.5497C22.3625 67.2068 22.2586 66.8174 22.2585 66.4215C22.2582 66.0253 22.1541 65.6367 21.9568 65.2938C21.7594 64.9508 21.4756 64.6665 21.1341 64.4683C20.7927 64.2702 20.5093 63.9853 20.3123 63.6424C20.1153 63.2995 20.0115 62.9105 20.0115 62.5147C20.0115 62.1188 20.1153 61.7298 20.3123 61.3869C20.5093 61.044 20.7927 60.7592 21.1341 60.561C21.4756 60.3629 21.759 60.0776 21.9561 59.7347C22.1531 59.3914 22.2567 59.0024 22.2564 58.6065C22.2561 58.2102 22.3598 57.8212 22.5567 57.4783C22.7537 57.135 23.0371 56.8501 23.3785 56.652C23.7199 56.4539 24.1072 56.3492 24.5015 56.3492C24.8958 56.3492 25.2831 56.453 25.6247 56.6512C25.9661 56.8489 26.3534 56.9535 26.7477 56.9535C27.142 56.9535 27.5293 56.8489 27.8707 56.6512C28.2121 56.4534 28.5991 56.3497 28.993 56.3497C29.387 56.3497 29.7739 56.4539 30.1151 56.6516C30.4563 56.8497 30.7397 57.1341 30.9369 57.4766C31.134 57.8191 31.238 58.2077 31.2384 58.6035Z" fill="#F74700"/>
<path d="M29.3691 60.2309C29.3692 60.4619 29.4299 60.6887 29.5449 60.8889C29.6599 61.0888 29.8254 61.2549 30.0246 61.3706C30.2239 61.4859 30.3894 61.6525 30.5046 61.8527C30.6196 62.0526 30.6803 62.2798 30.6803 62.5108C30.6803 62.7422 30.6196 62.9694 30.5046 63.1693C30.3894 63.3695 30.2239 63.5357 30.0246 63.6514C29.8253 63.7671 29.6598 63.9332 29.5447 64.1335C29.4297 64.3333 29.3691 64.5605 29.3691 64.7915C29.3693 65.023 29.3088 65.2502 29.1938 65.4504C29.0788 65.6507 28.9133 65.8168 28.714 65.9326C28.5147 66.0483 28.2886 66.1094 28.0584 66.1094C27.8282 66.1094 27.6021 66.0483 27.4027 65.933C27.2035 65.8173 26.9774 65.7566 26.7473 65.7566C26.5171 65.7566 26.2911 65.8173 26.0918 65.933C25.8926 66.0483 25.6667 66.1094 25.4367 66.1094C25.2067 66.1094 24.9807 66.0487 24.7814 65.933C24.5822 65.8177 24.4167 65.6516 24.3016 65.4517C24.1864 65.2519 24.1257 65.0251 24.1254 64.7941C24.1254 64.5627 24.0649 64.3359 23.9498 64.1356C23.8347 63.9354 23.6692 63.7692 23.4699 63.6535C23.2708 63.5378 23.1054 63.3717 22.9904 63.1718C22.8755 62.9716 22.8149 62.7444 22.8149 62.5134C22.8149 62.2823 22.8755 62.0556 22.9904 61.8553C23.1054 61.6555 23.2708 61.4889 23.4699 61.3736C23.6694 61.2579 23.8349 61.0914 23.95 60.8911C24.065 60.6908 24.1256 60.4636 24.1254 60.2326C24.1253 60.0012 24.1858 59.774 24.3007 59.5737C24.4157 59.3734 24.5812 59.2073 24.7805 59.0916C24.9798 58.9759 25.2059 58.9148 25.4361 58.9148C25.6663 58.9148 25.8925 58.9759 26.0918 59.0912C26.2911 59.2069 26.5171 59.2675 26.7473 59.2675C26.9774 59.2675 27.2035 59.2069 27.4027 59.0912C27.602 58.9759 27.828 58.9148 28.058 58.9148C28.2881 58.9148 28.5141 58.9754 28.7134 59.0912C28.9126 59.2065 29.0781 59.3726 29.1933 59.5728C29.3083 59.7727 29.369 59.9999 29.3691 60.2309Z" fill="#F4F0E1"/>
<path d="M28.9075 62.5134C28.9075 63.7108 27.9411 64.6814 26.7489 64.6814C25.5566 64.6814 24.5902 63.7108 24.5902 62.5134C24.5902 61.3156 25.5566 60.345 26.7489 60.345C27.9411 60.345 28.9075 61.3156 28.9075 62.5134Z" fill="#F74700"/>
<path d="M27.6009 62.513C27.6009 62.9857 27.2195 63.3692 26.7489 63.3692C26.2783 63.3692 25.8968 62.9857 25.8968 62.513C25.8968 62.0407 26.2783 61.6572 26.7489 61.6572C27.2195 61.6572 27.6009 62.0407 27.6009 62.513Z" fill="#F4F0E1"/>
<path d="M29.0888 29.6704C29.0891 30.4847 29.3029 31.2846 29.7087 31.9895C30.1145 32.6945 30.698 33.2797 31.4004 33.6862C34.4804 35.4703 34.4826 39.9345 31.4041 41.7215C30.7022 42.1292 30.1195 42.7151 29.7145 43.4206C29.3095 44.126 29.0965 44.9258 29.0968 45.7402C29.0968 49.3114 25.2514 51.5452 22.1715 49.7636C21.4695 49.3563 20.6731 49.1419 19.8625 49.1419C19.0518 49.1419 18.2554 49.3563 17.5534 49.7636C14.475 51.5512 10.6252 49.3247 10.623 45.75C10.6227 44.9357 10.4088 44.1358 10.003 43.4308C9.59723 42.7258 9.01381 42.1406 8.31142 41.734C5.23149 39.9499 5.22927 35.4856 8.30703 33.6987C9.00899 33.2912 9.59182 32.7052 9.99682 31.9998C10.4018 31.2943 10.6148 30.4942 10.6143 29.6799C10.6143 26.1088 14.4604 23.8749 17.5403 25.6568C18.2424 26.064 19.0389 26.2784 19.8497 26.2784C20.6605 26.2784 21.457 26.064 22.1592 25.6568C25.2369 23.869 29.0867 26.0993 29.0888 29.6704Z" fill="#F74700"/>
<path d="M25.5785 32.7265C25.5794 33.2307 25.7122 33.7259 25.9636 34.1624C26.215 34.5989 26.5762 34.9613 27.011 35.2135C28.9199 36.3188 28.9214 39.086 27.011 40.1934C26.5759 40.446 26.2147 40.8091 25.9636 41.2463C25.7125 41.6835 25.5805 42.1794 25.5807 42.6841C25.5807 44.8976 23.197 46.2825 21.2881 45.1769C20.8529 44.9245 20.3592 44.7917 19.8567 44.7917C19.3541 44.7917 18.8604 44.9245 18.4252 45.1769C16.5171 46.2846 14.1283 44.9027 14.1283 42.69C14.1274 42.1857 13.9946 41.6905 13.7432 41.254C13.4918 40.8175 13.1305 40.4551 12.6957 40.2029C10.7861 39.0977 10.7847 36.3305 12.6957 35.223C13.1312 34.9708 13.4928 34.6079 13.7444 34.1708C13.996 33.7338 14.1286 33.2379 14.129 32.733C14.129 30.5196 16.5127 29.1349 18.4216 30.2401C18.8568 30.4926 19.3505 30.6255 19.853 30.6255C20.3556 30.6255 20.8493 30.4926 21.2845 30.2401C23.1911 29.1312 25.577 30.5137 25.5785 32.7265Z" fill="#F4F0E1"/>
<path d="M24.2942 37.7101C24.2942 40.1724 22.3068 42.1685 19.8552 42.1685C17.4036 42.1685 15.4163 40.1724 15.4163 37.7101C15.4163 35.2478 17.4036 33.2517 19.8552 33.2517C22.3068 33.2517 24.2942 35.2478 24.2942 37.7101Z" fill="#F74700"/>
<path d="M21.6076 37.7101C21.6076 38.6821 20.8231 39.4701 19.8553 39.4701C18.8876 39.4701 18.1031 38.6821 18.1031 37.7101C18.1031 36.7381 18.8876 35.9502 19.8553 35.9502C20.8231 35.9502 21.6076 36.7381 21.6076 37.7101Z" fill="#F4F0E1"/>
<path d="M65.0422 34.2854C64.954 33.9481 64.9608 33.5905 64.8849 33.2503C64.0329 29.3874 61.7751 26.6362 58.2464 24.948C57.4054 24.5457 56.4784 24.2948 55.5671 24.0746C53.2229 23.5084 50.8334 23.1441 48.4717 22.2883C48.429 22.5721 48.3536 22.8062 48.3681 23.0352C48.4094 23.6935 48.4781 24.3518 48.5518 25.0036C48.7453 26.7152 49.3032 28.2843 50.3616 29.6609C52.6585 32.6498 55.7231 34.1537 59.433 34.436C60.6814 34.5311 61.9158 34.6687 63.0466 35.3138C63.775 35.7278 64.0039 36.6341 64.0738 37.2581C64.0798 37.3162 64.1041 37.3709 64.1429 37.4146C64.1816 37.4582 64.2328 37.4887 64.2895 37.5016C64.3466 37.5146 64.4058 37.5094 64.4595 37.4869C64.5132 37.4644 64.5584 37.4255 64.5891 37.3758C64.9092 36.8667 65.2344 35.9217 65.0422 34.2854Z" fill="#91A88C"/>
<path d="M65.0422 40.6909C64.954 41.0281 64.9608 41.3858 64.8849 41.726C64.0329 45.589 61.7751 48.3399 58.2464 50.0284C57.4054 50.4307 56.4784 50.6813 55.5671 50.9017C53.2229 51.4679 50.8334 51.8322 48.4717 52.6879C48.429 52.404 48.3536 52.17 48.3681 51.9411C48.4094 51.2826 48.4781 50.6245 48.5518 49.9729C48.7453 48.261 49.3032 46.6921 50.3616 45.3153C52.6585 42.3265 55.7231 40.8226 59.433 40.5402C60.6814 40.4452 61.9158 40.3076 63.0466 39.6625C63.775 39.2477 64.0039 38.3414 64.0738 37.7182C64.0798 37.66 64.1041 37.6052 64.1424 37.5614C64.1812 37.5177 64.2328 37.4872 64.2895 37.4741C64.3462 37.4611 64.4054 37.4662 64.4595 37.4887C64.5132 37.5112 64.5584 37.55 64.5891 37.5997C64.9092 38.1103 65.2344 39.0546 65.0422 40.6909Z" fill="#91A88C"/>
<path d="M31.2384 9.08433C31.2388 9.48035 31.3429 9.86925 31.5403 10.2121C31.7376 10.5549 32.0213 10.8395 32.3629 11.0374C32.7044 11.2353 32.988 11.5201 33.1851 11.8631C33.3823 12.2061 33.4861 12.5951 33.4861 12.9912C33.4861 13.3872 33.3823 13.7762 33.1851 14.1192C32.988 14.4622 32.7044 14.747 32.3629 14.945C32.0222 15.1432 31.7395 15.428 31.543 15.7707C31.3466 16.1133 31.2432 16.5019 31.2435 16.8973C31.2437 17.2933 31.1401 17.6824 30.9431 18.0255C30.7461 18.3685 30.4627 18.6534 30.1213 18.8516C29.78 19.0498 29.3926 19.1542 28.9983 19.1543C28.6041 19.1545 28.2167 19.0504 27.8751 18.8525C27.5337 18.6545 27.1464 18.5503 26.7521 18.5503C26.3578 18.5503 25.9705 18.6545 25.6291 18.8525C25.2877 19.0508 24.9003 19.1554 24.506 19.1556C24.1116 19.1558 23.7241 19.0518 23.3825 18.8539C23.0409 18.6561 22.7571 18.3713 22.5598 18.0283C22.3625 17.6854 22.2586 17.2963 22.2585 16.9002C22.2582 16.5042 22.1541 16.1152 21.9568 15.7724C21.7594 15.4296 21.4756 15.145 21.1341 14.9472C20.7927 14.749 20.5093 14.4642 20.3123 14.1212C20.1153 13.7783 20.0115 13.3893 20.0115 12.9934C20.0115 12.5974 20.1153 12.2085 20.3123 11.8655C20.5093 11.5226 20.7927 11.2377 21.1341 11.0396C21.4756 10.8415 21.759 10.5565 21.9561 10.2134C22.1531 9.87031 22.2567 9.48112 22.2564 9.08505C22.2561 8.68903 22.3598 8.29997 22.5567 7.95689C22.7537 7.61382 23.0371 7.32891 23.3785 7.13072C23.7199 6.93258 24.1072 6.82817 24.5015 6.828C24.8958 6.82783 25.2831 6.93194 25.6247 7.12983C25.9662 7.32767 26.3535 7.43182 26.7477 7.43182C27.142 7.43182 27.5292 7.32767 27.8707 7.12983C28.2122 6.93216 28.5995 6.82822 28.9936 6.82843C29.3877 6.82864 29.7748 6.93301 30.1161 7.13106C30.4573 7.32912 30.7407 7.6139 30.9377 7.95676C31.1347 8.29958 31.2384 8.68847 31.2384 9.08433Z" fill="#F74700"/>
<path d="M29.3689 10.7119C29.3689 10.9431 29.4294 11.1701 29.5445 11.3703C29.6596 11.5705 29.8251 11.7368 30.0244 11.8523C30.2235 11.9679 30.3889 12.1341 30.5039 12.3342C30.6189 12.5343 30.6794 12.7613 30.6794 12.9923C30.6794 13.2234 30.6189 13.4503 30.5039 13.6504C30.3889 13.8505 30.2235 14.0167 30.0244 14.1323C29.825 14.248 29.6594 14.4143 29.5443 14.6146C29.4293 14.8149 29.3688 15.0422 29.3689 15.2734C29.369 15.5046 29.3086 15.7318 29.1936 15.9321C29.0786 16.1324 28.9131 16.2987 28.7138 16.4144C28.5145 16.53 28.2884 16.5909 28.0582 16.5909C27.828 16.591 27.6019 16.5301 27.4025 16.4145C27.2032 16.299 26.9772 16.2382 26.747 16.2382C26.517 16.2382 26.2909 16.299 26.0916 16.4145C25.8924 16.5301 25.6663 16.5909 25.4363 16.5909C25.2062 16.591 24.9802 16.5302 24.7809 16.4147C24.5817 16.2992 24.4162 16.1331 24.3011 15.933C24.186 15.733 24.1253 15.506 24.1252 15.2749C24.1251 15.0439 24.0645 14.817 23.9494 14.6169C23.8344 14.4169 23.6689 14.2508 23.4698 14.1353C23.2704 14.0197 23.1049 13.8535 22.9898 13.6533C22.8747 13.4531 22.8141 13.2261 22.8141 12.9949C22.8141 12.7637 22.8747 12.5366 22.9898 12.3365C23.1049 12.1363 23.2704 11.97 23.4698 11.8545C23.6691 11.7389 23.8345 11.5727 23.9496 11.3725C24.0646 11.1724 24.1252 10.9453 24.1252 10.7141C24.125 10.4829 24.1855 10.2558 24.3005 10.0555C24.4155 9.85523 24.581 9.68891 24.7803 9.57323C24.9796 9.45754 25.2057 9.39665 25.4359 9.39661C25.6661 9.39656 25.8922 9.45742 26.0916 9.57301C26.2909 9.68857 26.517 9.74942 26.747 9.74942C26.9772 9.74942 27.2032 9.68857 27.4025 9.57301C27.6017 9.4575 27.8277 9.39669 28.0577 9.39661C28.2876 9.39656 28.5136 9.45729 28.7129 9.57267C28.9121 9.6881 29.0776 9.85408 29.1928 10.0541C29.3079 10.254 29.3686 10.4809 29.3689 10.7119Z" fill="#F4F0E1"/>
<path d="M28.9075 12.994C28.9075 14.1915 27.9411 15.1622 26.7489 15.1622C25.5566 15.1622 24.5902 14.1915 24.5902 12.994C24.5902 11.7966 25.5566 10.8259 26.7489 10.8259C27.9411 10.8259 28.9075 11.7966 28.9075 12.994Z" fill="#F74700"/>
<path d="M27.6009 12.994C27.6009 13.4667 27.2195 13.8499 26.7489 13.8499C26.2783 13.8499 25.8968 13.4667 25.8968 12.994C25.8968 12.5214 26.2783 12.1382 26.7489 12.1382C27.2195 12.1382 27.6009 12.5214 27.6009 12.994Z" fill="#F4F0E1"/>
</svg>
