<svg width="70" height="225" viewBox="0 0 70 225" fill="none" xmlns="http://www.w3.org/2000/svg">
<path d="M-23.0834 129.357C-24.965 129.207 -26.1754 130.534 -26.608 131.08C-27.118 131.724 -27.4717 132.445 -27.704 132.973C-28.1877 134.074 -28.631 135.479 -29.0415 136.935C-29.8598 139.84 -30.8031 143.886 -31.8636 148.437L-31.9332 148.736C-34.1452 158.224 -36.9715 170.303 -40.6702 181.389C-44.4313 192.662 -48.8261 202.044 -53.8218 206.839C-56.2134 209.135 -58.5667 210.21 -60.9839 210.167C-63.4338 210.124 -66.4804 208.922 -70.2124 205.459C-73.926 202.014 -75.9014 198.569 -76.8127 195.302C-77.7226 192.041 -77.6878 188.542 -76.7949 184.744C-74.9552 176.921 -69.6228 168.466 -62.8343 160.264C-56.1957 152.241 -48.6208 144.985 -42.7067 139.321L-42.5376 139.159C-39.626 136.37 -37.0262 133.878 -35.2682 131.944C-34.4186 131.01 -33.5514 129.977 -32.9454 128.956C-32.6592 128.472 -32.216 127.642 -31.9993 126.575C-31.7507 125.351 -31.7564 123.403 -32.9973 121.781C-34.1736 120.242 -35.6702 120.068 -36.3642 120.068C-37.1228 120.067 -37.8147 120.262 -38.3098 120.434C-39.3298 120.79 -40.489 121.402 -41.6391 122.074C-43.9838 123.443 -47.0993 125.546 -50.582 127.896L-50.6502 127.942C-57.72 132.714 -66.6665 138.752 -75.657 143.317C-84.8301 147.974 -93.3241 150.704 -99.6133 149.663C-102.616 149.166 -104.953 147.835 -106.713 145.574C-108.505 143.275 -110.019 139.6 -110.708 133.742C-111.395 127.9 -110.81 123.692 -109.588 120.62C-108.377 117.577 -106.376 115.235 -103.597 113.445C-97.8268 109.731 -89.1581 108.689 -79.4963 109.141C-70.3935 109.567 -61.0684 111.269 -53.5952 112.632C-53.2499 112.695 -52.909 112.757 -52.5723 112.819C-48.8325 113.5 -45.4727 114.099 -43.0249 114.309C-41.8429 114.41 -40.5743 114.454 -39.4875 114.249C-38.9626 114.15 -38.1414 113.936 -37.3409 113.353C-36.4246 112.686 -35.3854 111.39 -35.2 109.388C-35.0139 107.38 -35.8102 105.916 -36.3472 105.179C-36.8849 104.442 -37.5121 103.931 -37.9781 103.597C-38.9342 102.91 -40.1488 102.313 -41.3762 101.78C-43.8844 100.691 -47.3934 99.4801 -51.3108 98.1414C-51.5913 98.0452 -51.8755 97.949 -52.161 97.851C-59.9937 95.1762 -69.7216 91.8541 -78.634 87.4973C-88.0308 82.9047 -95.7413 77.5158 -99.5508 71.3042C-101.365 68.345 -102.207 65.3414 -102.052 62.1283C-101.894 58.8463 -100.669 54.7987 -97.4958 49.885C-94.3441 45.0036 -91.277 42.4497 -88.4421 41.3068C-85.632 40.1742 -82.6828 40.2798 -79.5162 41.4968C-72.9535 44.0192 -65.9619 51.1215 -59.1911 60.1884C-52.8074 68.7376 -47.0503 78.4279 -42.4232 86.2166C-42.2102 86.5751 -41.9992 86.9302 -41.7911 87.2802C-39.4697 91.1856 -37.3793 94.6754 -35.7093 97.0718C-34.8967 98.2376 -34.0102 99.4001 -33.118 100.23C-32.6833 100.633 -32.0163 101.18 -31.1711 101.498C-30.2569 101.843 -28.805 102.019 -27.3936 100.961C-25.914 99.8523 -25.4338 98.1073 -25.3287 96.9253C-25.2328 95.8464 -25.3947 94.8764 -25.5333 94.2386C-25.8209 92.9177 -26.3722 91.4564 -26.9596 90.0649C-28.1685 87.2035 -30.0715 83.4046 -32.2231 79.1551C-32.5001 78.6084 -32.7821 78.0532 -33.0683 77.4877C-37.3139 69.114 -42.5554 58.7773 -46.7441 48.2738C-51.2809 36.8965 -54.2359 26.1399 -53.8068 17.9178C-53.6001 13.9596 -52.6206 10.8359 -50.8278 8.43614C-49.0193 6.01676 -46.053 3.89035 -41.2022 2.68024C-36.3557 1.47097 -32.8701 1.98531 -30.3201 3.34872C-27.7864 4.7036 -25.7584 7.11956 -24.1531 10.6435C-20.8252 17.945 -19.6902 29.1597 -19.7804 41.6918C-19.8656 53.4489 -21.0071 65.5833 -21.9263 75.3596C-21.9731 75.8586 -22.02 76.3508 -22.0655 76.8362C-22.5272 81.7593 -22.9264 86.1552 -23.0315 89.3691C-23.0827 90.9386 -23.0777 92.5285 -22.8966 93.8621C-22.8092 94.5094 -22.6394 95.4266 -22.2374 96.325C-21.8211 97.2558 -20.9091 98.6694 -19.2356 99.1148C-17.4839 99.5815 -16.1073 98.6745 -15.37 97.9277C-14.6881 97.2379 -14.2463 96.4135 -13.9785 95.8472C-13.4209 94.6686 -12.9606 93.1664 -12.5628 91.6735C-11.7445 88.6053 -10.8623 84.28 -9.88916 79.4268C-9.78687 78.9158 -9.68317 78.3981 -9.57876 77.8735C-7.65166 68.2496 -5.26497 56.3272 -2.02378 45.2974C1.45253 33.4679 5.65335 23.6201 10.681 18.5735C13.0762 16.1695 15.5083 15.0071 18.1067 15.0394C20.7612 15.0718 24.1061 16.3585 28.2607 20.034C32.4019 23.6984 34.6401 27.3305 35.7027 30.7326C36.7554 34.1041 36.7817 37.6603 35.9045 41.4831C34.0875 49.3987 28.5108 57.9411 21.2506 66.2577C14.0927 74.4577 5.80821 81.876 -0.758698 87.683C-1.09966 87.9845 -1.43778 88.2825 -1.77092 88.5772C-4.59373 91.0706 -7.10683 93.2907 -8.92738 95.0638C-9.93177 96.0414 -10.8751 97.025 -11.5754 97.9439C-11.9171 98.391 -12.3384 98.999 -12.6672 99.7254C-12.9364 100.317 -13.5537 101.869 -13.1268 103.787C-12.8881 104.86 -12.3455 105.877 -11.5009 106.594C-10.7288 107.249 -9.94315 107.452 -9.42249 107.515C-8.46853 107.63 -7.6282 107.364 -7.1942 107.21C-6.20827 106.859 -5.06679 106.216 -3.96437 105.54C-1.83483 104.232 1.05333 102.221 4.33643 99.9366C4.56942 99.7739 4.80524 99.6104 5.04177 99.4461C12.3091 94.3893 21.7378 87.8831 31.237 82.9396C40.903 77.9092 49.9006 74.9074 56.5038 75.9685C59.6526 76.4743 62.0741 77.8752 63.8683 80.2724C65.7003 82.7199 67.2154 86.6585 67.7957 92.9604C68.3768 99.2638 67.6671 103.74 66.3154 106.944C64.9836 110.102 62.8562 112.432 59.9559 114.118C53.9168 117.628 44.9305 118.108 34.9249 116.921C25.3804 115.788 15.6149 113.242 7.82694 111.212C7.57336 111.145 7.32119 111.08 7.07187 111.015C3.19281 110.004 -0.28421 109.109 -2.83141 108.682C-4.06738 108.474 -5.36441 108.324 -6.47749 108.427C-7.01591 108.477 -7.83279 108.61 -8.65321 109.08C-9.56384 109.602 -10.7522 110.733 -11.1258 112.746C-11.5137 114.842 -10.7579 116.481 -10.1697 117.341C-9.61357 118.153 -8.94656 118.695 -8.47846 119.031C-7.50674 119.729 -6.26155 120.327 -5.0121 120.854C-2.44926 121.935 1.16769 123.133 5.23214 124.462C5.62211 124.589 6.01704 124.719 6.41695 124.849C14.4933 127.487 24.5358 130.767 33.8346 135.079C43.745 139.675 52.0685 145.127 56.3844 151.506C58.4564 154.567 59.4779 157.657 59.4764 160.906C59.475 164.196 58.4223 168.252 55.407 173.203C52.3839 178.167 49.4226 180.772 46.6921 181.96C43.9922 183.134 41.1403 183.09 38.049 181.942C31.6227 179.555 24.697 172.596 17.9582 163.652C11.5781 155.186 5.81388 145.564 1.2174 137.894C1.02988 137.581 0.84449 137.271 0.661232 136.965C-1.63595 133.134 -3.69801 129.715 -5.32748 127.397C-6.11381 126.278 -6.99176 125.133 -7.88321 124.33C-8.3094 123.946 -9.02825 123.371 -9.96303 123.091C-11.0555 122.764 -12.6154 122.828 -13.9352 124.185C-15.1761 125.46 -15.4574 127.123 -15.5014 128.109C-15.5447 129.088 -15.3927 129.977 -15.2514 130.612C-14.963 131.907 -14.4359 133.346 -13.8634 134.744C-12.6935 137.598 -10.8744 141.36 -8.8322 145.554C-8.6738 145.879 -8.51398 146.207 -8.35273 146.538C-4.27407 154.913 0.801155 165.333 4.75053 175.951C8.91301 187.14 11.5114 197.759 10.8302 206.004C10.5006 209.986 9.42019 213.24 7.48954 215.814C5.54539 218.404 2.46261 220.674 -2.39954 222.083C-7.28369 223.498 -10.7586 223.138 -13.2561 221.936C-15.7159 220.752 -17.6608 218.542 -19.1915 215.245C-22.3887 208.357 -23.4066 197.529 -23.1537 185.298C-22.9051 173.267 -21.4631 160.778 -20.3216 151.071L-20.2414 150.389C-19.7129 145.895 -19.2448 141.918 -19.0374 139.027C-18.9315 137.552 -18.869 136.06 -18.9642 134.833C-19.0082 134.266 -19.1127 133.33 -19.4742 132.394C-19.8521 131.416 -20.9247 129.53 -23.0834 129.357ZM-4.5099 110.959C-4.5099 110.959 -4.50067 110.966 -4.48647 110.978C-4.50352 110.965 -4.5099 110.959 -4.5099 110.959ZM-5.9071 117.772C-5.9071 117.772 -5.89929 117.769 -5.87798 117.767C-5.89574 117.771 -5.9071 117.772 -5.9071 117.772ZM-12.5749 131.82L-12.5678 131.827C-12.5976 131.803 -12.6012 131.797 -12.5749 131.82ZM-20.7407 137.233C-20.7407 137.233 -20.7436 137.239 -20.7492 137.248C-20.7429 137.236 -20.7407 137.233 -20.7407 137.233ZM-26.7515 135.633C-26.7515 135.633 -26.7493 135.645 -26.7465 135.676C-26.75 135.65 -26.7515 135.633 -26.7515 135.633ZM-39.3184 123.536C-39.2978 123.497 -39.2929 123.493 -39.3128 123.527L-39.3184 123.536ZM-40.7107 104.997C-40.6794 104.988 -40.6744 104.99 -40.7014 104.995L-40.7107 104.997Z" fill="#F4F0E1"/>
<path d="M-33.0839 96.6554C-33.0839 96.6554 -33.0868 96.6435 -33.0903 96.6205M-20.8018 91.2784C-20.8018 91.2784 -20.7968 91.2673 -20.7855 91.2477M-15.1725 92.4306C-15.1725 92.4306 -15.1754 92.4213 -15.1782 92.4008M-7.7177 128.116C-7.7177 128.116 -7.71559 128.125 -7.71346 128.141M-36.0417 129.403C-36.0417 129.403 -36.0474 129.405 -36.0588 129.408M-41.9303 111.681C-41.9303 111.681 -41.9374 111.676 -41.9488 111.666M-28.2992 92.8539C-28.2992 92.8539 -28.3063 92.8479 -28.3213 92.8343M-23.0834 129.357C-24.965 129.207 -26.1754 130.534 -26.608 131.08C-27.118 131.724 -27.4717 132.445 -27.704 132.973C-28.1877 134.074 -28.631 135.479 -29.0415 136.935C-29.8598 139.84 -30.8031 143.886 -31.8636 148.437L-31.9332 148.736C-34.1452 158.224 -36.9715 170.303 -40.6702 181.389C-44.4313 192.662 -48.8261 202.044 -53.8218 206.839C-56.2134 209.135 -58.5667 210.21 -60.9839 210.167C-63.4338 210.124 -66.4804 208.922 -70.2124 205.459C-73.926 202.014 -75.9014 198.569 -76.8127 195.302C-77.7226 192.041 -77.6878 188.542 -76.7949 184.744C-74.9552 176.921 -69.6228 168.466 -62.8343 160.264C-56.1957 152.241 -48.6208 144.985 -42.7067 139.321L-42.5376 139.159C-39.626 136.37 -37.0262 133.878 -35.2682 131.944C-34.4186 131.01 -33.5514 129.977 -32.9455 128.956C-32.6592 128.472 -32.216 127.642 -31.9993 126.575C-31.7507 125.351 -31.7564 123.403 -32.9973 121.781C-34.1736 120.242 -35.6702 120.068 -36.3642 120.068C-37.1228 120.067 -37.8147 120.262 -38.3098 120.434C-39.3298 120.79 -40.489 121.402 -41.6391 122.074C-43.9838 123.443 -47.0993 125.546 -50.582 127.896L-50.6502 127.942C-57.72 132.714 -66.6665 138.752 -75.657 143.317C-84.8301 147.974 -93.3241 150.704 -99.6133 149.663C-102.616 149.166 -104.953 147.835 -106.713 145.574C-108.505 143.275 -110.019 139.6 -110.708 133.742C-111.395 127.9 -110.81 123.692 -109.588 120.62C-108.377 117.577 -106.376 115.235 -103.597 113.445C-97.8268 109.731 -89.1581 108.689 -79.4963 109.141C-70.3935 109.567 -61.0684 111.269 -53.5952 112.632C-53.2499 112.695 -52.909 112.757 -52.5723 112.819C-48.8325 113.5 -45.4727 114.099 -43.0249 114.309C-41.8429 114.41 -40.5743 114.454 -39.4875 114.249C-38.9626 114.15 -38.1414 113.936 -37.3409 113.353C-36.4246 112.686 -35.3854 111.39 -35.2 109.388C-35.0139 107.38 -35.8102 105.916 -36.3472 105.179C-36.8849 104.442 -37.5121 103.931 -37.9781 103.597C-38.9342 102.91 -40.1488 102.313 -41.3762 101.78C-43.8844 100.691 -47.3934 99.4801 -51.3108 98.1414C-51.5913 98.0452 -51.8755 97.949 -52.161 97.851C-59.9937 95.1762 -69.7216 91.8541 -78.634 87.4973C-88.0308 82.9047 -95.7413 77.5158 -99.5508 71.3042C-101.365 68.345 -102.207 65.3414 -102.052 62.1283C-101.894 58.8463 -100.669 54.7987 -97.4958 49.885C-94.3441 45.0036 -91.277 42.4497 -88.4421 41.3068C-85.632 40.1742 -82.6828 40.2798 -79.5162 41.4968C-72.9535 44.0192 -65.9619 51.1215 -59.1911 60.1884C-52.8074 68.7376 -47.0503 78.4279 -42.4232 86.2166C-42.2102 86.5751 -41.9992 86.9302 -41.7911 87.2802C-39.4697 91.1856 -37.3793 94.6754 -35.7093 97.0718C-34.8967 98.2376 -34.0102 99.4001 -33.118 100.23C-32.6833 100.633 -32.0163 101.18 -31.1711 101.498C-30.2569 101.843 -28.805 102.019 -27.3936 100.961C-25.914 99.8523 -25.4338 98.1073 -25.3287 96.9253C-25.2328 95.8464 -25.3947 94.8764 -25.5333 94.2386C-25.8209 92.9178 -26.3722 91.4564 -26.9596 90.0649C-28.1686 87.2035 -30.0715 83.4046 -32.2231 79.1551C-32.5001 78.6084 -32.7821 78.0532 -33.0683 77.4877C-37.3139 69.114 -42.5554 58.7773 -46.7441 48.2738C-51.2809 36.8965 -54.2359 26.1399 -53.8068 17.9178C-53.6001 13.9596 -52.6206 10.8359 -50.8278 8.43614C-49.0193 6.01676 -46.053 3.89035 -41.2022 2.68024C-36.3557 1.47097 -32.8701 1.98531 -30.3201 3.34872C-27.7864 4.7036 -25.7584 7.11956 -24.1531 10.6435C-20.8252 17.945 -19.6902 29.1597 -19.7804 41.6918C-19.8656 53.4489 -21.0071 65.5833 -21.9263 75.3596C-21.9731 75.8586 -22.02 76.3508 -22.0655 76.8362C-22.5272 81.7593 -22.9264 86.1552 -23.0315 89.3691C-23.0827 90.9386 -23.0777 92.5285 -22.8966 93.8621C-22.8092 94.5094 -22.6394 95.4266 -22.2374 96.325C-21.8211 97.2558 -20.9091 98.6694 -19.2356 99.1148C-17.4839 99.5815 -16.1073 98.6745 -15.37 97.9277C-14.6881 97.2379 -14.2463 96.4135 -13.9785 95.8472C-13.4209 94.6686 -12.9606 93.1664 -12.5628 91.6735C-11.7445 88.6053 -10.8623 84.28 -9.88916 79.4268C-9.78687 78.9158 -9.68317 78.3981 -9.57876 77.8735C-7.65166 68.2496 -5.26497 56.3272 -2.02378 45.2974C1.45253 33.4679 5.65335 23.6201 10.681 18.5735C13.0762 16.1695 15.5083 15.0071 18.1067 15.0394C20.7612 15.0718 24.1061 16.3585 28.2607 20.034C32.4019 23.6984 34.6401 27.3305 35.7028 30.7326C36.7554 34.1041 36.7817 37.6603 35.9045 41.4831C34.0875 49.3987 28.5108 57.9411 21.2506 66.2577C14.0927 74.4577 5.80821 81.876 -0.758698 87.683C-1.09965 87.9845 -1.43778 88.2825 -1.77092 88.5772C-4.59373 91.0706 -7.10683 93.2907 -8.92738 95.0638C-9.93177 96.0414 -10.8751 97.025 -11.5754 97.9439C-11.9171 98.391 -12.3384 98.999 -12.6672 99.7254C-12.9364 100.317 -13.5537 101.869 -13.1268 103.787C-12.8881 104.86 -12.3455 105.877 -11.5009 106.594C-10.7288 107.249 -9.94315 107.452 -9.42249 107.515C-8.46853 107.63 -7.6282 107.364 -7.1942 107.21C-6.20827 106.859 -5.06679 106.216 -3.96437 105.54C-1.83483 104.232 1.05333 102.221 4.33643 99.9366C4.56942 99.7739 4.80523 99.6104 5.04177 99.4461C12.3091 94.3893 21.7378 87.8831 31.237 82.9396C40.903 77.9092 49.9006 74.9074 56.5038 75.9685C59.6526 76.4743 62.0741 77.8752 63.8683 80.2724C65.7003 82.7199 67.2154 86.6585 67.7957 92.9603C68.3768 99.2639 67.6672 103.74 66.3154 106.944C64.9836 110.102 62.8562 112.432 59.9559 114.118C53.9168 117.628 44.9305 118.108 34.9249 116.921C25.3804 115.788 15.6149 113.242 7.82695 111.212C7.57336 111.145 7.32119 111.08 7.07187 111.015C3.19281 110.004 -0.284207 109.109 -2.83142 108.682C-4.06737 108.474 -5.36441 108.324 -6.47748 108.427C-7.01591 108.477 -7.83279 108.61 -8.65321 109.08C-9.56384 109.602 -10.7522 110.733 -11.1258 112.746C-11.5137 114.842 -10.7579 116.481 -10.1697 117.341C-9.61357 118.153 -8.94656 118.695 -8.47846 119.031C-7.50674 119.729 -6.26155 120.327 -5.0121 120.854C-2.44926 121.935 1.16769 123.133 5.23214 124.462C5.62211 124.589 6.01704 124.719 6.41695 124.849C14.4933 127.487 24.5358 130.767 33.8346 135.079C43.745 139.675 52.0685 145.127 56.3844 151.506C58.4564 154.567 59.4779 157.657 59.4764 160.906C59.475 164.196 58.4223 168.252 55.407 173.203C52.3839 178.167 49.4226 180.772 46.6921 181.96C43.9922 183.134 41.1403 183.09 38.0489 181.942C31.6227 179.555 24.697 172.595 17.9582 163.652C11.5781 155.185 5.81388 145.564 1.2174 137.894C1.02987 137.581 0.844492 137.271 0.661229 136.965C-1.63595 133.134 -3.69801 129.715 -5.32749 127.397C-6.11381 126.278 -6.99176 125.133 -7.88321 124.33C-8.3094 123.946 -9.02825 123.371 -9.96303 123.091C-11.0555 122.764 -12.6154 122.828 -13.9351 124.185C-15.1761 125.46 -15.4574 127.123 -15.5014 128.109C-15.5447 129.088 -15.3927 129.977 -15.2514 130.612C-14.963 131.907 -14.4359 133.346 -13.8634 134.744C-12.6935 137.598 -10.8744 141.36 -8.8322 145.554C-8.6738 145.879 -8.51398 146.207 -8.35273 146.538C-4.27407 154.913 0.801154 165.333 4.75053 175.951C8.91301 187.14 11.5114 197.759 10.8302 206.004C10.5006 209.986 9.42019 213.24 7.48954 215.814C5.54539 218.404 2.46261 220.674 -2.39953 222.082C-7.28369 223.498 -10.7586 223.138 -13.2561 221.936C-15.7159 220.752 -17.6608 218.542 -19.1915 215.245C-22.3887 208.357 -23.4066 197.529 -23.1537 185.298C-22.9051 173.267 -21.4631 160.778 -20.3216 151.071L-20.2414 150.389C-19.7129 145.895 -19.2448 141.918 -19.0374 139.027C-18.9315 137.552 -18.869 136.06 -18.9642 134.833C-19.0082 134.266 -19.1127 133.33 -19.4742 132.394C-19.8521 131.416 -20.9247 129.53 -23.0834 129.357ZM-4.5099 110.959C-4.5099 110.959 -4.50067 110.966 -4.48647 110.978C-4.50352 110.965 -4.5099 110.959 -4.5099 110.959ZM-5.90711 117.772C-5.90711 117.772 -5.89929 117.769 -5.87798 117.767C-5.89574 117.771 -5.90711 117.772 -5.90711 117.772ZM-12.5749 131.82L-12.5678 131.827C-12.5976 131.803 -12.6012 131.797 -12.5749 131.82ZM-20.7407 137.233C-20.7407 137.233 -20.7436 137.239 -20.7492 137.248C-20.7428 137.236 -20.7407 137.233 -20.7407 137.233ZM-26.7515 135.633C-26.7515 135.633 -26.7493 135.645 -26.7465 135.676C-26.75 135.65 -26.7515 135.633 -26.7515 135.633ZM-39.3184 123.536C-39.2978 123.497 -39.2929 123.493 -39.3128 123.527L-39.3184 123.536ZM-40.7107 104.997C-40.6794 104.988 -40.6744 104.99 -40.7014 104.995L-40.7107 104.997Z" stroke="#F74700" stroke-width="3.71442" stroke-linecap="round" stroke-linejoin="round"/>
</svg>
