<svg width="270" height="158" viewBox="0 0 334 158" fill="none" xmlns="http://www.w3.org/2000/svg">
<path d="M372.721 57.3936C372.721 57.3936 358.897 90.8634 342.609 107.442C330.922 119.337 325.48 129.323 307.408 133.284C291.805 136.702 278.95 138.342 264.247 129.229C251.9 121.576 243.918 100.621 243.918 100.621" stroke="#A88771" stroke-width="10.1302" stroke-linecap="round" stroke-linejoin="round"/>
<path d="M327.966 64.7393C327.354 63.3074 312.377 58.516 303.331 71.8639C294.283 85.211 308.807 114.809 304.166 123.038C299.524 131.267 298.505 129.863 294.877 134.236C294.877 134.236 301.81 135.035 307.656 129.929C313.503 124.823 315.061 123.28 315.608 116.109C316.153 108.938 313.305 85.5156 317.111 77.478C320.915 69.4396 328.576 66.1704 327.966 64.7393Z" stroke="#A88771" stroke-width="5.74047" stroke-linecap="round" stroke-linejoin="round"/>
<path d="M323.959 64.5607C323.569 63.2429 312.838 59.6027 305.711 72.7597C298.582 85.9158 307.999 113.037 304.288 121.093C300.575 129.149 299.889 127.882 297.068 132.231C297.068 132.231 302.094 132.576 306.559 127.401C311.023 122.226 312.222 120.675 312.905 113.862C313.59 107.051 312.442 85.0746 315.536 77.2488C318.63 69.4231 324.347 65.8775 323.959 64.5607Z" stroke="#A88771" stroke-width="5.74047" stroke-linecap="round" stroke-linejoin="round"/>
<path d="M320.684 65.3564C320.497 64.1189 313.542 61.4864 308.072 74.7448C302.602 88.0031 307.401 113.369 304.487 121.434C301.571 129.498 301.183 128.334 299.067 132.755C299.067 132.755 302.397 132.677 305.657 127.326C308.916 121.976 309.799 120.383 310.625 113.763C311.453 107.144 311.888 86.0623 314.377 78.2694C316.867 70.4765 320.871 66.5939 320.684 65.3564Z" stroke="#A88771" stroke-width="5.74047" stroke-linecap="round" stroke-linejoin="round"/>
<path d="M318.131 64.6875C318.149 63.5039 314.953 61.856 311.079 75.5329C307.203 89.2087 307.314 113.346 305.16 121.61C303.007 129.874 302.919 128.789 301.482 133.388C301.482 133.388 303.131 132.869 305.213 127.21C307.296 121.551 307.872 119.878 308.869 113.303C309.866 106.728 311.954 86.0796 313.874 78.1378C315.794 70.1958 318.113 65.8713 318.131 64.6875Z" stroke="#A88771" stroke-width="5.74047" stroke-linecap="round" stroke-linejoin="round"/>
<path d="M243.369 100.551C238.779 98.5825 236.246 93.9875 237.803 90.2473C239.319 86.6083 243.978 85.2017 248.526 86.9039C253.185 88.6471 255.994 93.1015 254.749 96.9507C253.454 100.947 248.119 102.587 243.369 100.551Z" stroke="#A88771" stroke-width="10.1302" stroke-linecap="round" stroke-linejoin="round"/>
<path d="M428.178 131.373C429.386 132.544 426.543 145.105 407.42 144.042C388.297 142.979 364.314 117.503 353.023 116.222C341.73 114.941 342.693 116.369 336.074 116.464C336.074 116.464 338.911 111.406 347.497 110.219C356.083 109.032 358.567 108.812 366.542 112.266C374.519 115.721 398.103 130.102 408.743 131.841C419.385 133.581 426.969 130.201 428.178 131.373Z" stroke="#A88771" stroke-width="5.74047" stroke-linecap="round" stroke-linejoin="round"/>
<path d="M281.976 90.6362C283.096 95.446 280.614 101.577 279.143 101.838C277.675 102.1 272.884 95.3143 272.221 91.6677C271.591 88.1992 272.838 84.8445 276.32 84.8478C279.308 84.8514 280.859 85.8274 281.976 90.6362Z" stroke="#F74700" stroke-width="4.0521" stroke-linecap="round" stroke-linejoin="round"/>
<path d="M280.791 91.1358C281.623 94.712 279.778 99.2711 278.686 99.4659C277.593 99.6606 274.03 94.6145 273.538 91.9034C273.068 89.3235 273.996 86.8294 276.586 86.832C278.808 86.8346 279.959 87.5595 280.791 91.1358Z" stroke="#F74700" stroke-width="4.0521" stroke-linecap="round" stroke-linejoin="round"/>
<path d="M279.794 91.2473C280.388 93.4975 279.642 96.668 279.086 96.9094C278.531 97.1507 276.458 94.2254 276.08 92.5057C275.718 90.8686 276.084 89.1427 277.423 88.8742C278.57 88.6434 279.201 88.9979 279.794 91.2473Z" stroke="#F74700" stroke-width="7.09117" stroke-linecap="round" stroke-linejoin="round"/>
<path d="M242.658 103.761C242.658 103.761 221.643 115.559 205.358 108.271C161.195 88.5074 182.492 33.0999 182.492 33.0999" stroke="#A88771" stroke-width="10.1302" stroke-linecap="round" stroke-linejoin="round"/>
<path d="M212.682 28.0048C217.01 40.1932 187.784 30.5903 187.377 31.7453C186.97 32.9003 217.4 38.585 209.151 48.1756C200.902 57.7664 185.93 33.5046 184.366 34.0526C182.801 34.6006 203.622 55.8637 189.026 57.5327C174.43 59.2018 182.019 33.8937 180.237 33.4531C178.456 33.0125 179.621 58.9004 165.644 51.0803C151.667 43.2601 178.78 32.5336 177.54 31.6218C176.299 30.71 154.696 44.8436 150.367 31.6743C146.039 18.505 176.232 29.8776 176.464 28.377C176.696 26.8762 146.09 20.8459 153.882 11.0501C161.673 1.25442 176.92 26.6201 178.368 25.8416C179.815 25.0631 158.837 3.90759 173.383 1.85949C187.928 -0.188695 180.863 24.1949 182.578 24.784C184.293 25.3732 184.925 0.873793 197.876 8.54188C210.826 16.2097 185.692 26.1775 186.425 27.4862C187.158 28.7949 208.355 15.8166 212.682 28.0048Z" stroke="#F74700" stroke-width="2.02605" stroke-linecap="round" stroke-linejoin="round"/>
<path d="M186.15 31.2362C186.302 30.8059 186.723 30.6716 186.897 30.63C187.1 30.5815 187.308 30.5759 187.464 30.5785C187.788 30.5839 188.189 30.6331 188.609 30.6981C189.445 30.8273 190.59 31.0569 191.886 31.3167L191.966 31.3329C194.659 31.8728 198.098 32.5597 201.381 32.9127C204.712 33.2708 207.661 33.2568 209.497 32.5425C210.382 32.1983 210.953 31.7127 211.228 31.0656C211.507 30.4116 211.533 29.4756 211.051 28.1198C210.572 26.7695 209.89 25.8487 209.119 25.2183C208.349 24.5885 207.41 24.1815 206.304 23.962C204.037 23.5118 201.228 23.8822 198.346 24.6386C195.525 25.3793 192.799 26.4436 190.677 27.2719L190.613 27.2966C189.566 27.7055 188.637 28.0673 187.948 28.2828C187.613 28.3874 187.263 28.4814 186.95 28.5136C186.801 28.5289 186.561 28.5421 186.292 28.4803C185.985 28.4098 185.543 28.2095 185.297 27.7704C185.064 27.3539 185.171 27.0033 185.242 26.8446C185.319 26.6716 185.437 26.5318 185.533 26.4318C185.73 26.2262 186.01 26.0121 186.31 25.8023C186.922 25.3756 187.809 24.8399 188.807 24.2373L188.829 24.2238C190.851 23.0035 193.416 21.4542 195.608 19.7225C197.84 17.9585 199.524 16.124 199.971 14.3885C200.186 13.5539 200.105 12.7804 199.699 12.0409C199.288 11.2907 198.481 10.4646 197.027 9.60417C195.577 8.74571 194.395 8.39263 193.426 8.3425C192.464 8.29288 191.604 8.53568 190.81 9.03931C189.17 10.0791 187.918 12.1618 186.95 14.6394C186.036 16.9776 185.427 19.5178 184.94 21.5468C184.918 21.6413 184.895 21.7344 184.873 21.8265C184.629 22.8444 184.408 23.7494 184.189 24.3808C184.084 24.687 183.957 24.9974 183.791 25.2323C183.712 25.3462 183.577 25.5105 183.361 25.6304C183.115 25.767 182.716 25.8644 182.242 25.7015C181.766 25.538 181.509 25.2118 181.392 25.0125C181.274 24.813 181.217 24.614 181.185 24.4655C181.118 24.1611 181.1 23.7989 181.1 23.4317C181.101 22.6835 181.182 21.6701 181.276 20.532C181.283 20.4498 181.29 20.3668 181.297 20.2832C181.486 18.0128 181.721 15.1849 181.598 12.4406C181.467 9.55253 180.943 6.96315 179.742 5.25284C179.165 4.43197 178.456 3.84652 177.567 3.49767C176.662 3.14257 175.446 2.98347 173.802 3.21486C172.167 3.44501 171.134 3.92823 170.496 4.53084C169.863 5.12896 169.551 5.90986 169.508 6.86828C169.42 8.84417 170.486 11.4471 172.066 14.194C173.558 16.788 175.415 19.3553 176.903 21.4122C176.972 21.5077 177.04 21.6019 177.107 21.6951C177.855 22.729 178.516 23.65 178.942 24.3386C179.15 24.6748 179.343 25.0192 179.451 25.3225C179.503 25.4704 179.563 25.6813 179.552 25.9057C179.539 26.148 179.434 26.4882 179.053 26.693C178.654 26.9078 178.208 26.8371 177.923 26.7382C177.662 26.6477 177.45 26.5086 177.308 26.4052C177.015 26.1918 176.71 25.8959 176.419 25.5899C175.822 24.9623 175.061 24.0525 174.205 23.0216C174.095 22.8889 173.983 22.7537 173.869 22.6164C172.188 20.5872 170.107 18.0754 167.863 15.8077C165.437 13.3555 162.97 11.3471 160.759 10.4893C159.689 10.0741 158.734 9.95049 157.872 10.132C157.005 10.3148 156.099 10.8345 155.23 11.9271C154.361 13.0191 154.089 13.9795 154.157 14.8134C154.225 15.6429 154.64 16.4611 155.387 17.2903C156.926 18.9998 159.724 20.5925 162.969 22.0172C166.017 23.3559 169.28 24.4721 171.902 25.3689C172.037 25.4148 172.169 25.4603 172.3 25.5051C173.623 25.9578 174.794 26.3629 175.628 26.7044C176.036 26.8715 176.432 27.0511 176.74 27.2408C176.89 27.3333 177.089 27.4701 177.258 27.6551C177.433 27.8465 177.664 28.1941 177.6 28.6103C177.533 29.0455 177.19 29.2591 176.942 29.348C176.712 29.4304 176.473 29.4455 176.304 29.4472C175.956 29.4507 175.531 29.3954 175.104 29.3234C174.229 29.1756 173.021 28.8994 171.66 28.583C171.516 28.5497 171.37 28.5157 171.223 28.4815C168.527 27.8544 165.179 27.0755 161.963 26.6141C158.521 26.1204 155.472 26.0303 153.565 26.7234C152.65 27.0562 152.047 27.5518 151.748 28.2431C151.444 28.9466 151.406 29.9663 151.894 31.4514C152.381 32.9325 153.08 33.9409 153.868 34.6257C154.65 35.3055 155.599 35.7359 156.711 35.9629C159.002 36.4302 161.864 36.0073 164.827 35.1454C167.754 34.2942 170.604 33.07 172.837 32.0941C172.953 32.0434 173.067 31.9933 173.18 31.9438C174.141 31.5235 174.992 31.1512 175.649 30.9009C176.012 30.7624 176.363 30.6429 176.667 30.5759C176.815 30.5432 177.005 30.5105 177.21 30.5116C177.379 30.5125 177.795 30.5355 178.189 30.8249C178.409 30.9867 178.586 31.2095 178.665 31.4682C178.737 31.7052 178.706 31.8996 178.668 32.0225C178.599 32.2484 178.452 32.4123 178.367 32.4996C178.176 32.6964 177.892 32.902 177.595 33.0996C177.022 33.4805 176.183 33.9706 175.224 34.5309C175.157 34.5703 175.089 34.61 175.02 34.6501C172.902 35.8878 170.161 37.5043 167.813 39.3206C165.43 41.1647 163.618 43.0941 163.141 44.911C162.912 45.7838 163.001 46.5881 163.44 47.353C163.886 48.1314 164.763 48.9877 166.343 49.8716C167.923 50.7558 169.189 51.1077 170.206 51.14C171.212 51.1717 172.083 50.8947 172.865 50.3472C174.482 49.2139 175.622 46.9848 176.44 44.336C177.221 41.8053 177.661 39.0573 178.011 36.8725C178.022 36.8005 178.034 36.7291 178.045 36.6583C178.22 35.5677 178.378 34.5989 178.552 33.9173C178.637 33.5854 178.741 33.2553 178.885 33.0019C178.954 32.8791 179.07 32.7065 179.262 32.5701C179.475 32.4192 179.851 32.2719 180.347 32.3945C180.862 32.5219 181.162 32.8564 181.303 33.0791C181.436 33.2897 181.496 33.5003 181.529 33.6496C181.596 33.9584 181.611 34.3276 181.607 34.6996C181.598 35.4605 181.502 36.4997 181.388 37.6733C181.377 37.7861 181.366 37.9005 181.355 38.0163C181.129 40.3437 180.847 43.2454 180.916 46.0811C180.99 49.0981 181.461 51.8461 182.645 53.7014C183.217 54.5974 183.926 55.2391 184.806 55.6328C185.697 56.0307 186.898 56.2356 188.535 56.0483C190.176 55.8606 191.212 55.4104 191.851 54.8395C192.484 54.2741 192.802 53.524 192.854 52.5918C192.962 50.6654 191.926 48.095 190.374 45.3705C188.903 42.787 187.065 40.2258 185.604 38.1902C185.544 38.1065 185.485 38.0238 185.426 37.9418C184.695 36.9225 184.049 36.0169 183.638 35.3474C183.439 35.023 183.25 34.6836 183.149 34.3847C183.1 34.2413 183.04 34.0169 183.069 33.7777C183.103 33.4991 183.274 33.1605 183.713 33.0064C184.127 32.8616 184.536 32.968 184.771 33.0613C185.004 33.1539 185.2 33.2832 185.341 33.3869C185.629 33.5983 185.932 33.887 186.226 34.1899C186.826 34.8072 187.587 35.6921 188.44 36.6893C188.507 36.7669 188.574 36.8455 188.642 36.9248C190.342 38.912 192.464 41.392 194.764 43.613C197.185 45.9502 199.657 47.8529 201.903 48.649C202.993 49.0356 203.99 49.1467 204.909 48.9513C205.833 48.7549 206.788 48.225 207.71 47.1528C208.636 46.0767 208.949 45.1378 208.918 44.3353C208.887 43.5428 208.516 42.7677 207.818 41.9816C206.37 40.3505 203.656 38.8315 200.471 37.4824C197.332 36.1525 193.942 35.0704 191.313 34.2371L191.131 34.1795C189.91 33.7927 188.836 33.4525 188.073 33.1727C187.682 33.0296 187.303 32.8776 187.011 32.7197C186.876 32.6464 186.666 32.5233 186.486 32.3447C186.297 32.1582 185.977 31.7295 186.15 31.2362ZM175.956 27.4984C175.956 27.4983 175.953 27.4984 175.948 27.4989C175.953 27.4986 175.956 27.4984 175.956 27.4984ZM175.675 28.7899C175.675 28.79 175.673 28.7889 175.67 28.7865C175.673 28.7887 175.675 28.7899 175.675 28.7899ZM176.58 31.0985C176.58 31.0984 176.577 31.1016 176.572 31.1077C176.578 31.1017 176.58 31.0986 176.58 31.0985ZM179.326 33.6948C179.326 33.6947 179.327 33.6968 179.328 33.7007C179.327 33.6968 179.326 33.6948 179.326 33.6948ZM180.93 34.0594C180.93 34.0594 180.929 34.0611 180.926 34.0654C180.929 34.0616 180.93 34.0594 180.93 34.0594ZM184.034 34.7729C184.034 34.7729 184.035 34.7736 184.037 34.775C184.035 34.7736 184.034 34.7729 184.034 34.7729ZM185.286 34.1025C185.286 34.1026 185.286 34.1053 185.288 34.111C185.287 34.1053 185.286 34.1023 185.286 34.1025ZM187.943 31.0953C187.943 31.0951 187.945 31.0969 187.951 31.1005C187.946 31.0972 187.943 31.0955 187.943 31.0953ZM178.596 25.0055C178.596 25.0053 178.594 25.0036 178.589 25.001C178.594 25.0042 178.596 25.0056 178.596 25.0055ZM177.327 25.6414C177.327 25.6418 177.326 25.6397 177.325 25.6349C177.326 25.6389 177.326 25.641 177.327 25.6414ZM186.35 26.5784C186.344 26.5785 186.341 26.5789 186.341 26.5791C186.34 26.5793 186.344 26.5792 186.35 26.5784ZM183.389 24.4268C183.389 24.4265 183.388 24.4254 183.387 24.4233C183.388 24.4258 183.389 24.4269 183.389 24.4268ZM181.832 24.039C181.828 24.043 181.827 24.0451 181.827 24.045C181.827 24.0448 181.829 24.0431 181.832 24.039Z" stroke="#F74700" stroke-width="3.71442" stroke-linecap="round" stroke-linejoin="round"/>
<path d="M180.786 30.3042C180.767 30.2995 180.749 30.295 180.73 30.2908C180.559 30.0343 180.354 29.7994 180.125 29.5907C180.158 29.4838 180.183 29.3709 180.202 29.2519C180.223 29.1142 180.233 28.9794 180.232 28.8482C180.388 28.7945 180.544 28.7275 180.697 28.6451C181.139 28.4075 181.442 28.1054 181.648 27.7905C181.672 27.7991 181.696 27.8076 181.72 27.8158C182.121 27.9533 182.5 28.023 182.852 28.0437C182.91 28.2036 182.985 28.3693 183.08 28.5397C183.341 29.0062 183.681 29.3745 184.046 29.6621C183.912 29.8415 183.795 30.0509 183.709 30.2953C183.657 30.4425 183.621 30.5874 183.598 30.7296C183.251 30.7372 182.881 30.7926 182.507 30.9236C182.436 30.9486 182.367 30.9754 182.301 31.0039C181.903 30.7153 181.403 30.4567 180.786 30.3042ZM180.786 30.3042L180.777 30.3624M164.972 20.7402C167.337 21.779 169.861 22.6739 172.101 23.4444C170.631 21.6752 168.941 19.6741 167.143 17.8574C164.904 15.5942 162.946 14.0897 161.482 13.5219C160.855 13.2787 160.509 13.2821 160.288 13.3287C160.05 13.3789 159.546 13.568 158.914 14.3615C158.285 15.1526 158.227 15.6687 158.248 15.9274C158.268 16.1734 158.385 16.5069 158.829 16.9999C159.854 18.1387 161.985 19.4285 164.972 20.7402ZM198.612 38.7826C195.856 37.6149 192.853 36.6501 190.397 35.8714C191.923 37.652 193.7 39.6984 195.6 41.5332C197.82 43.6769 199.77 45.0905 201.257 45.6172C201.902 45.8461 202.321 45.8576 202.639 45.7898C202.973 45.719 203.532 45.4885 204.206 44.705C204.89 43.9092 204.963 43.4009 204.954 43.1759C204.947 42.981 204.87 42.7119 204.488 42.2809C203.566 41.2424 201.546 40.0254 198.612 38.7826ZM175.872 36.7175C174.117 37.7578 172.141 38.9811 170.419 40.3134C168.217 42.0173 166.921 43.5395 166.619 44.6895C166.496 45.1572 166.578 45.411 166.679 45.5882C166.804 45.806 167.191 46.2992 168.385 46.9674C169.581 47.6362 170.313 47.7774 170.709 47.7898C171.069 47.8013 171.435 47.7172 171.868 47.4141C172.896 46.6937 173.841 45.0569 174.59 42.6295C175.19 40.686 175.568 38.5832 175.872 36.7175ZM171.435 30.4458C168.945 29.8673 166.027 29.1973 163.239 28.7974C160.052 28.3402 157.752 28.3539 156.549 28.7915C156.062 28.9687 155.927 29.153 155.865 29.2946C155.788 29.473 155.672 29.9698 156.038 31.0847C156.401 32.1876 156.854 32.738 157.173 33.0157C157.475 33.2778 157.878 33.4907 158.523 33.6221C160.013 33.926 162.216 33.679 164.92 32.8927C167.219 32.2243 169.488 31.2881 171.435 30.4458ZM187.845 45.0462C186.582 42.8281 185.005 40.6116 183.659 38.7346C183.466 40.7596 183.274 43.074 183.328 45.328C183.396 48.1153 183.844 50.2299 184.619 51.4434C184.945 51.9554 185.23 52.1488 185.453 52.2482C185.703 52.3603 186.307 52.5425 187.517 52.4041C188.739 52.2643 189.266 51.9588 189.497 51.7521C189.71 51.5617 189.873 51.2789 189.903 50.7519C189.972 49.5109 189.269 47.5453 187.845 45.0462ZM179.037 20.9015C179.044 20.8227 179.05 20.7437 179.057 20.6648C179.062 20.598 179.068 20.5309 179.073 20.4634C179.252 18.3146 179.465 15.7586 179.354 13.2991C179.234 10.6346 178.745 8.69913 178.002 7.64077C177.702 7.21507 177.449 7.05515 177.222 6.96602C176.947 6.8582 176.302 6.69909 175.06 6.87403C173.846 7.04486 173.309 7.36948 173.062 7.60266C172.83 7.82209 172.662 8.14108 172.637 8.69963C172.579 9.99359 173.314 11.9972 174.761 14.5137C176.052 16.7583 177.66 18.9972 179.037 20.9015ZM187.046 22.7977C188.932 21.6587 191.185 20.289 193.098 18.7774C195.154 17.1524 196.342 15.719 196.62 14.6382C196.734 14.1976 196.66 13.9536 196.566 13.7826C196.455 13.5791 196.111 13.1188 195.036 12.4824C193.972 11.8521 193.317 11.7175 192.967 11.6994C192.64 11.6826 192.278 11.7502 191.831 12.0342C190.781 12.6995 189.759 14.2297 188.873 16.4958C188.057 18.5831 187.509 20.8691 187.048 22.7891L187.046 22.7977ZM191.443 29.2601L191.55 29.2818C194.089 29.7909 197.191 30.4085 200.123 30.7237C203.2 31.0545 205.432 30.9687 206.602 30.5135C207.087 30.3247 207.202 30.1446 207.245 30.0423C207.298 29.9187 207.409 29.5114 207.063 28.5354C206.722 27.576 206.307 27.1074 206.014 26.8679C205.725 26.6311 205.313 26.4198 204.643 26.2868C203.132 25.9868 200.949 26.2076 198.323 26.897C195.848 27.5467 193.432 28.4839 191.443 29.2601Z" stroke="#F74700" stroke-width="11.1433" stroke-linecap="round" stroke-linejoin="round"/>
<path d="M185.456 31.0297C185.606 30.6038 186.022 30.4729 186.187 30.4334C186.382 30.3867 186.578 30.382 186.719 30.3843C187.014 30.3893 187.373 30.4337 187.74 30.4904C188.472 30.6036 189.472 30.8042 190.597 31.0299L190.671 31.0447C193.017 31.5152 196.005 32.1118 198.855 32.4182C201.754 32.7298 204.289 32.713 205.854 32.1043C206.603 31.8129 207.074 31.4072 207.3 30.8753C207.53 30.3361 207.558 29.5504 207.145 28.3878C206.734 27.231 206.154 26.4538 205.51 25.9266C204.866 25.4003 204.077 25.0564 203.138 24.8698C201.202 24.4853 198.783 24.7999 196.278 25.4576C193.828 26.1007 191.459 27.0253 189.61 27.7472L189.557 27.7678C188.647 28.1232 187.833 28.4403 187.227 28.6297C186.935 28.7213 186.618 28.8069 186.33 28.8365C186.193 28.8504 185.963 28.8638 185.703 28.8039C185.404 28.7352 184.967 28.5382 184.724 28.1044C184.493 27.693 184.601 27.3489 184.668 27.1974C184.742 27.0317 184.854 26.9003 184.941 26.8095C185.12 26.6225 185.371 26.431 185.634 26.2474C186.17 25.8732 186.947 25.4044 187.815 24.8803L187.832 24.87C189.593 23.8061 191.823 22.4599 193.726 20.956C195.668 19.4215 197.11 17.8417 197.491 16.3642C197.673 15.6589 197.602 15.0151 197.267 14.4037C196.926 13.7815 196.248 13.0816 195.001 12.3429C193.756 11.6061 192.754 11.3108 191.945 11.2691C191.144 11.2276 190.423 11.4293 189.749 11.856C188.352 12.7423 187.271 14.5299 186.429 16.6843C185.635 18.7142 185.106 20.9207 184.682 22.689C184.663 22.7707 184.643 22.8513 184.624 22.931C184.412 23.8158 184.218 24.6093 184.026 25.1648C183.933 25.433 183.819 25.7143 183.667 25.9309C183.593 26.0356 183.465 26.1933 183.256 26.3095C183.017 26.4425 182.624 26.5391 182.157 26.3784C181.688 26.2174 181.437 25.8964 181.324 25.7052C181.211 25.5137 181.158 25.3256 181.128 25.1902C181.067 24.9126 181.052 24.5874 181.052 24.2659C181.053 23.609 181.124 22.7214 181.206 21.7318C181.212 21.6609 181.218 21.5892 181.224 21.517C181.388 19.5385 181.593 17.0813 181.486 14.6981C181.372 12.1855 180.916 9.96093 179.894 8.50531C179.406 7.81199 178.814 7.32649 178.078 7.03733C177.326 6.74217 176.297 6.60297 174.884 6.80192C173.48 6.99948 172.608 7.41241 172.074 7.91641C171.545 8.41601 171.281 9.07041 171.245 9.8839C171.17 11.5699 172.081 13.8096 173.455 16.1985C174.751 18.4509 176.364 20.6812 177.661 22.4737C177.72 22.5563 177.779 22.638 177.838 22.7186C178.488 23.6177 179.067 24.4246 179.442 25.0299C179.624 25.3244 179.798 25.6347 179.897 25.9128C179.946 26.0482 180.003 26.2488 179.992 26.4653C179.98 26.6995 179.878 27.034 179.502 27.2359C179.109 27.4475 178.67 27.377 178.395 27.2812C178.143 27.1937 177.941 27.0609 177.812 26.9666C177.543 26.7711 177.269 26.5039 177.014 26.2359C176.49 25.6845 175.823 24.8875 175.079 23.9909C174.983 23.8755 174.886 23.7581 174.787 23.6388C173.322 21.8708 171.513 19.6881 169.565 17.7185C167.454 15.5851 165.327 13.8594 163.44 13.127C162.531 12.7744 161.734 12.6744 161.02 12.8247C160.3 12.9764 159.533 13.4102 158.788 14.3475C158.043 15.284 157.818 16.0965 157.875 16.7901C157.931 17.4793 158.276 18.1647 158.91 18.8692C160.224 20.3292 162.631 21.7037 165.453 22.9431C168.101 24.1057 170.936 25.0756 173.221 25.8572C173.338 25.8971 173.453 25.9363 173.566 25.9752C174.716 26.369 175.742 26.7235 176.474 27.0234C176.831 27.17 177.188 27.3308 177.469 27.5043C177.606 27.5884 177.796 27.7176 177.958 27.8956C178.126 28.08 178.355 28.4211 178.291 28.8312C178.225 29.2604 177.887 29.4698 177.647 29.5557C177.425 29.6353 177.197 29.6489 177.044 29.6504C176.725 29.6537 176.343 29.6033 175.969 29.5401C175.2 29.4105 174.143 29.1685 172.958 28.8934C172.833 28.8644 172.707 28.835 172.579 28.8051C170.23 28.2588 167.321 27.582 164.528 27.1813C161.532 26.7517 158.911 26.6793 157.287 27.2697C156.514 27.551 156.015 27.9652 155.768 28.5356C155.516 29.1183 155.478 29.9777 155.898 31.2539C156.316 32.526 156.913 33.3795 157.573 33.9533C158.227 34.5218 159.022 34.8848 159.966 35.0774C161.921 35.476 164.383 35.1169 166.96 34.3677C169.5 33.6291 171.974 32.566 173.92 31.7159C174.021 31.6718 174.121 31.6279 174.219 31.5848C175.055 31.2191 175.799 30.8936 176.375 30.6743C176.692 30.5533 177.005 30.4462 177.28 30.3856C177.414 30.356 177.591 30.3251 177.786 30.3263C177.946 30.327 178.354 30.3481 178.743 30.634C178.961 30.794 179.136 31.0146 179.215 31.271C179.286 31.5054 179.255 31.6972 179.218 31.8172C179.151 32.037 179.009 32.1937 178.932 32.273C178.757 32.4529 178.501 32.6375 178.242 32.8102C177.74 33.1437 177.006 33.5721 176.173 34.0592C176.114 34.0937 176.054 34.1288 175.994 34.1639C174.149 35.2422 171.767 36.6467 169.729 38.2236C167.656 39.8282 166.103 41.4907 165.696 43.0386C165.502 43.7768 165.58 44.4461 165.943 45.0786C166.313 45.7244 167.049 46.4509 168.407 47.2107C169.766 47.9708 170.84 48.2656 171.691 48.2924C172.53 48.319 173.261 48.0887 173.923 47.625C175.301 46.6594 176.287 44.746 176.998 42.4427C177.676 40.2454 178.058 37.8579 178.363 35.9539C178.373 35.8919 178.383 35.8303 178.393 35.7693C178.545 34.821 178.683 33.9721 178.836 33.3732C178.91 33.0825 179.003 32.7843 179.135 32.5517C179.199 32.4392 179.309 32.2742 179.494 32.1424C179.701 31.996 180.071 31.8503 180.559 31.971C181.067 32.0969 181.361 32.4264 181.497 32.6412C181.625 32.8443 181.682 33.0443 181.711 33.1803C181.773 33.4625 181.786 33.7944 181.782 34.1201C181.774 34.7881 181.69 35.698 181.591 36.7188C181.582 36.8167 181.572 36.9159 181.562 37.0163C181.366 39.0442 181.121 41.5659 181.181 44.029C181.244 46.6541 181.655 49.0187 182.665 50.6017C183.15 51.3616 183.744 51.8949 184.474 52.221C185.213 52.5513 186.226 52.729 187.632 52.5682C189.042 52.407 189.916 52.0223 190.449 51.5456C190.977 51.0743 191.245 50.4473 191.289 49.6571C191.381 48.0145 190.496 45.8036 189.146 43.4341C187.869 41.1907 186.272 38.9658 184.999 37.1919C184.947 37.1195 184.896 37.0479 184.845 36.9771C184.209 36.0908 183.643 35.2972 183.282 34.7086C183.107 34.4245 182.936 34.1178 182.843 33.8425C182.798 33.7109 182.739 33.4963 182.768 33.2641C182.801 32.9927 182.968 32.6587 183.401 32.5069C183.809 32.3641 184.21 32.4698 184.435 32.5593C184.659 32.6481 184.844 32.7707 184.973 32.8653C185.235 33.0584 185.507 33.3181 185.765 33.5834C186.291 34.1256 186.958 34.9006 187.7 35.7678C187.758 35.835 187.816 35.9028 187.874 35.9713C189.356 37.703 191.2 39.8578 193.197 41.7866C195.303 43.8194 197.433 45.4535 199.35 46.1331C200.277 46.4613 201.113 46.5524 201.879 46.3895C202.65 46.2254 203.461 45.7804 204.252 44.8606C205.047 43.9367 205.306 43.142 205.28 42.4761C205.255 41.8202 204.948 41.1736 204.358 40.5082C203.124 39.1183 200.792 37.8082 198.022 36.6346C195.296 35.4801 192.352 34.5401 190.061 33.814L189.9 33.7631C188.84 33.4269 187.901 33.1295 187.232 32.8844C186.89 32.7592 186.549 32.623 186.283 32.479C186.16 32.4124 185.96 32.2956 185.786 32.1226C185.603 31.9418 185.284 31.5183 185.456 31.0297ZM179.092 25.5612C179.092 25.561 179.089 25.5593 179.085 25.5563C179.089 25.5597 179.092 25.5612 179.092 25.5612ZM176.685 27.702C176.685 27.702 176.682 27.702 176.676 27.7025C176.682 27.7023 176.685 27.7021 176.685 27.702ZM176.394 29.0465C176.394 29.0464 176.392 29.045 176.387 29.0423C176.391 29.0452 176.394 29.0465 176.394 29.0465ZM179.511 33.2355C179.511 33.2357 179.512 33.2382 179.514 33.2426C179.512 33.2375 179.512 33.2352 179.511 33.2355ZM181.177 33.615C181.177 33.6146 181.176 33.6165 181.174 33.6209C181.176 33.6174 181.177 33.6152 181.177 33.615ZM183.677 34.2591C183.677 34.2593 183.678 34.2605 183.682 34.2626C183.678 34.26 183.676 34.259 183.677 34.2591ZM184.983 33.571C184.983 33.5716 184.983 33.5725 184.984 33.5732C184.981 33.5643 184.98 33.5629 184.983 33.571ZM186.996 32.3323C186.996 32.3324 186.997 32.3323 187 32.332C186.997 32.3322 186.995 32.3323 186.996 32.3323ZM187.223 30.8595C187.223 30.8592 187.226 30.8611 187.233 30.8649C187.227 30.8615 187.224 30.8596 187.223 30.8595ZM186.733 28.2057C186.733 28.2057 186.733 28.2046 186.735 28.2024C186.733 28.2045 186.733 28.2055 186.733 28.2057ZM185.735 26.9009C185.725 26.9015 185.723 26.9021 185.733 26.9012C185.734 26.901 185.734 26.901 185.735 26.9009ZM183.329 25.1397C183.329 25.1396 183.329 25.1376 183.328 25.1342C183.329 25.1382 183.329 25.1399 183.329 25.1397ZM181.709 24.7344C181.704 24.7404 181.704 24.7416 181.708 24.7362C181.708 24.7356 181.709 24.7349 181.709 24.7344ZM177.771 26.2237C177.771 26.2237 177.77 26.2215 177.769 26.2169C177.77 26.2213 177.771 26.2237 177.771 26.2237Z" stroke="#F74700" stroke-width="3.71442" stroke-linecap="round" stroke-linejoin="round"/>
<path d="M185.725 30.9903C185.875 30.5661 186.289 30.4362 186.451 30.3975C186.642 30.3516 186.834 30.3471 186.97 30.3494C187.254 30.3541 187.597 30.3969 187.945 30.4507C188.64 30.5579 189.588 30.7482 190.652 30.9616L190.724 30.9759C192.945 31.4214 195.77 31.9856 198.465 32.2752C201.207 32.5701 203.593 32.5523 205.06 31.9815C205.76 31.7092 206.195 31.3322 206.404 30.8417C206.616 30.344 206.645 29.6123 206.257 28.5195C205.871 27.4324 205.327 26.7067 204.728 26.2168C204.13 25.7276 203.396 25.4065 202.516 25.2317C200.699 24.8709 198.421 25.1655 196.052 25.7875C193.736 26.3956 191.496 27.2699 189.745 27.9534L189.696 27.9726C188.834 28.3087 188.062 28.6096 187.487 28.7897C187.209 28.8765 186.904 28.9591 186.625 28.9878C186.493 29.0014 186.267 29.0148 186.009 28.9554C185.713 28.8874 185.278 28.6917 185.036 28.2598C184.807 27.8502 184.914 27.5083 184.98 27.3594C185.053 27.1963 185.162 27.0679 185.246 26.9804C185.419 26.8002 185.659 26.6169 185.909 26.4428C186.418 26.0873 187.155 25.6426 187.976 25.1469L187.991 25.1376C189.659 24.1303 191.768 22.8572 193.567 21.4353C195.404 19.9835 196.76 18.4953 197.116 17.1109C197.286 16.4519 197.22 15.8549 196.909 15.2897C196.593 14.7138 195.963 14.0593 194.789 13.3645C193.619 12.6714 192.682 12.397 191.931 12.3582C191.187 12.3196 190.516 12.5065 189.886 12.9057C188.576 13.7366 187.557 15.4178 186.76 17.4558C186.01 19.3747 185.51 21.461 185.108 23.1353C185.09 23.2125 185.071 23.2886 185.053 23.3638C184.852 24.2008 184.668 24.9542 184.486 25.4821C184.398 25.7368 184.288 26.0075 184.141 26.2177C184.07 26.3189 183.944 26.4743 183.737 26.5891C183.5 26.7208 183.11 26.817 182.645 26.6573C182.179 26.497 181.929 26.1781 181.818 25.9897C181.707 25.8011 181.655 25.6169 181.627 25.4864C181.568 25.2184 181.553 24.9064 181.554 24.6015C181.554 23.9773 181.622 23.1352 181.699 22.1989C181.705 22.1319 181.71 22.0644 181.716 21.9963C181.872 20.1229 182.065 17.7993 181.964 15.5462C181.857 13.1687 181.425 11.0757 180.467 9.71183C180.012 9.06439 179.462 8.61473 178.781 8.34737C178.084 8.0737 177.123 7.94163 175.793 8.12889C174.472 8.31476 173.657 8.70241 173.161 9.17097C172.67 9.63512 172.423 10.2438 172.389 11.0051C172.319 12.5867 173.175 14.6956 174.475 16.9554C175.7 19.0848 177.225 21.1937 178.452 22.8912C178.509 22.969 178.565 23.0462 178.619 23.1223C179.234 23.9727 179.784 24.7386 180.14 25.314C180.313 25.5935 180.481 25.8914 180.577 26.1604C180.624 26.2914 180.68 26.488 180.67 26.7017C180.658 26.9331 180.556 27.2657 180.183 27.4663C179.792 27.6767 179.356 27.6064 179.084 27.5118C178.835 27.4254 178.637 27.2949 178.512 27.2036C178.252 27.0145 177.989 26.7579 177.747 26.5036C177.249 25.9796 176.616 25.2233 175.912 24.3751C175.822 24.2659 175.73 24.1549 175.636 24.0422C174.249 22.368 172.539 20.3039 170.696 18.4417C168.699 16.423 166.695 14.7991 164.924 14.1122C164.074 13.7821 163.333 13.6904 162.673 13.8296C162.006 13.97 161.289 14.373 160.588 15.2543C159.887 16.1349 159.68 16.894 159.732 17.537C159.785 18.1758 160.104 18.8134 160.697 19.4729C161.931 20.843 164.196 22.1388 166.867 23.3114C169.37 24.4108 172.052 25.3282 174.215 26.0681C174.325 26.1055 174.434 26.1429 174.541 26.1795C175.629 26.5521 176.602 26.8884 177.298 27.1734C177.637 27.3125 177.979 27.4666 178.251 27.6341C178.383 27.7153 178.569 27.8418 178.729 28.0173C178.895 28.1989 179.122 28.5377 179.059 28.9457C178.993 29.3729 178.656 29.5806 178.42 29.6656C178.201 29.7441 177.977 29.7571 177.829 29.7587C177.521 29.7618 177.154 29.7132 176.799 29.6532C176.068 29.5301 175.065 29.3004 173.944 29.04C173.827 29.0127 173.707 28.9849 173.586 28.9566C171.363 28.4395 168.611 27.7993 165.97 27.4206C163.136 27.0139 160.669 26.948 159.147 27.5014C158.424 27.7643 157.963 28.1492 157.735 28.6761C157.502 29.2151 157.464 30.0167 157.859 31.2178C158.252 32.4146 158.812 33.2123 159.426 33.7459C160.034 34.2745 160.774 34.6133 161.658 34.7934C163.491 35.1672 165.81 34.8313 168.246 34.1225C170.647 33.4243 172.987 32.4195 174.828 31.6146C174.924 31.5728 175.019 31.5313 175.112 31.4905C175.903 31.1445 176.608 30.8357 177.155 30.6276C177.456 30.5129 177.755 30.4103 178.019 30.3521C178.148 30.3236 178.321 30.2933 178.513 30.2943C178.669 30.2951 179.075 30.3156 179.462 30.6002C179.679 30.7596 179.853 30.9794 179.931 31.2348C180.003 31.4684 179.972 31.6594 179.935 31.7782C179.868 31.9958 179.728 32.15 179.654 32.2261C179.485 32.4002 179.239 32.5773 178.993 32.7408C178.517 33.0573 177.822 33.4637 177.033 33.9245C176.977 33.9572 176.92 33.9905 176.863 34.0239C175.116 35.0448 172.864 36.3727 170.938 37.8635C168.976 39.3817 167.516 40.948 167.135 42.3991C166.954 43.0889 167.027 43.7095 167.363 44.2943C167.706 44.8924 168.392 45.5721 169.67 46.2872C170.948 47.0027 171.953 47.2767 172.745 47.3016C173.524 47.3264 174.205 47.113 174.823 46.6794C176.115 45.7741 177.045 43.9747 177.717 41.7956C178.358 39.7184 178.72 37.4611 179.009 35.6581C179.018 35.5996 179.027 35.5416 179.037 35.484C179.181 34.5871 179.312 33.7813 179.457 33.2122C179.528 32.9364 179.617 32.6498 179.745 32.4244C179.806 32.3158 179.913 32.1535 180.097 32.0233C180.301 31.8785 180.668 31.7333 181.154 31.8534C181.66 31.9785 181.952 32.3065 182.086 32.5186C182.212 32.7188 182.267 32.9151 182.296 33.0463C182.356 33.3189 182.367 33.6373 182.364 33.9463C182.357 34.581 182.277 35.4443 182.183 36.4099C182.174 36.5025 182.165 36.5962 182.156 36.6911C181.969 38.6112 181.738 40.9959 181.795 43.3249C181.855 45.8087 182.244 48.0353 183.192 49.5203C183.645 50.2311 184.198 50.7256 184.873 51.027C185.557 51.3329 186.503 51.501 187.825 51.3498C189.152 51.1982 189.967 50.8369 190.463 50.3941C190.952 49.9567 191.203 49.3741 191.245 48.6351C191.331 47.0947 190.499 45.0132 189.223 42.7716C188.015 40.6508 186.505 38.5469 185.3 36.8674C185.251 36.7989 185.202 36.7314 185.154 36.6646C184.553 35.8263 184.016 35.073 183.672 34.5135C183.507 34.2439 183.341 33.949 183.251 33.6824C183.208 33.555 183.15 33.3436 183.178 33.114C183.211 32.8453 183.377 32.513 183.808 32.3621C184.213 32.2201 184.611 32.3253 184.833 32.4136C185.054 32.501 185.235 32.6212 185.359 32.7124C185.612 32.8989 185.873 33.1481 186.117 33.3999C186.618 33.9151 187.25 34.6505 187.953 35.4709C188.007 35.5343 188.062 35.5982 188.117 35.6629C189.52 37.3027 191.263 39.3404 193.152 41.1638C195.144 43.0868 197.15 44.6242 198.95 45.2618C199.817 45.5691 200.595 45.6529 201.306 45.5016C202.023 45.3493 202.782 44.935 203.526 44.0699C204.273 43.2008 204.512 42.4582 204.488 41.8414C204.465 41.2347 204.182 40.6346 203.63 40.0124C202.473 38.7093 200.28 37.4747 197.658 36.364C195.082 35.2727 192.298 34.3839 190.129 33.6966L189.976 33.648C188.973 33.3302 188.083 33.0482 187.448 32.8154C187.124 32.6969 186.797 32.5663 186.54 32.4272C186.421 32.3631 186.225 32.2485 186.052 32.0776C185.871 31.8988 185.554 31.4773 185.725 30.9903ZM179.79 25.7966C179.79 25.7966 179.787 25.7949 179.782 25.7917C179.787 25.7951 179.79 25.7966 179.79 25.7966ZM177.467 27.8103C177.467 27.8102 177.464 27.8103 177.458 27.8107C177.464 27.8106 177.467 27.8104 177.467 27.8103ZM177.172 29.1742C177.172 29.1742 177.17 29.1727 177.165 29.17C177.17 29.1731 177.172 29.1744 177.172 29.1742ZM177.856 30.8386C177.866 30.8283 177.863 30.8291 177.854 30.8401C177.855 30.8396 177.855 30.839 177.856 30.8386ZM180.097 33.1045C180.097 33.1043 180.097 33.1067 180.099 33.1117C180.098 33.1071 180.097 33.1047 180.097 33.1045ZM181.782 33.4944C181.782 33.4947 181.782 33.495 181.782 33.4953C181.787 33.4881 181.786 33.4871 181.782 33.4944ZM184.066 34.1086C184.066 34.1086 184.068 34.1099 184.072 34.1123C184.068 34.1097 184.066 34.1085 184.066 34.1086ZM185.391 33.4107C185.392 33.4115 185.392 33.4126 185.392 33.4139C185.39 33.4059 185.389 33.4045 185.391 33.4107ZM187.251 32.2973C187.251 32.2973 187.253 32.2973 187.256 32.297C187.253 32.2972 187.251 32.2973 187.251 32.2973ZM187.482 30.8092C187.482 30.8091 187.485 30.811 187.492 30.8147C187.486 30.811 187.483 30.8091 187.482 30.8092ZM187.041 28.3735C187.041 28.3736 187.042 28.3724 187.044 28.3698C187.042 28.3724 187.041 28.3735 187.041 28.3735ZM186.032 27.052C186.022 27.0525 186.021 27.0532 186.028 27.0524C186.029 27.0523 186.03 27.0521 186.032 27.052ZM183.827 25.4323C183.827 25.4321 183.826 25.4302 183.825 25.4263C183.826 25.4303 183.827 25.4322 183.827 25.4323ZM182.184 25.0204C182.18 25.0256 182.179 25.0269 182.182 25.0229C182.183 25.0221 182.183 25.0212 182.184 25.0204Z" stroke="#F74700" stroke-width="3.71442" stroke-linecap="round" stroke-linejoin="round"/>
<path d="M185.574 30.8831C185.723 30.4608 186.135 30.3321 186.293 30.2943C186.481 30.2492 186.669 30.2452 186.798 30.2473C187.07 30.2519 187.396 30.2925 187.722 30.343C188.374 30.4437 189.262 30.6221 190.256 30.8214L190.325 30.8351C192.403 31.2519 195.042 31.7787 197.558 32.0492C200.121 32.3248 202.337 32.3059 203.692 31.7788C204.336 31.5281 204.73 31.1842 204.918 30.7411C205.11 30.291 205.14 29.6213 204.78 28.6083C204.422 27.6009 203.921 26.9346 203.374 26.4873C202.828 26.0408 202.156 25.7458 201.344 25.5847C199.664 25.251 197.547 25.5224 195.333 26.1038C193.171 26.6716 191.079 27.4881 189.44 28.1277L189.396 28.1452C188.591 28.4591 187.866 28.7418 187.325 28.9111C187.064 28.9924 186.774 29.0715 186.505 29.0992C186.378 29.1121 186.156 29.1257 185.901 29.0671C185.608 28.9997 185.176 28.8055 184.935 28.3756C184.707 27.9683 184.814 27.6289 184.879 27.483C184.951 27.323 185.057 27.1981 185.137 27.1146C185.303 26.9418 185.531 26.768 185.765 26.6046C186.244 26.2708 186.935 25.8536 187.702 25.3904L187.715 25.3825C189.276 24.4399 191.246 23.2505 192.926 21.9228C194.643 20.5655 195.899 19.1824 196.228 17.9045C196.384 17.2988 196.322 16.7556 196.041 16.2433C195.754 15.7201 195.177 15.1177 194.088 14.4732C193.003 13.8303 192.141 13.5797 191.456 13.5443C190.778 13.5093 190.164 13.679 189.584 14.0464C188.374 14.814 187.425 16.3735 186.68 18.278C185.98 20.0697 185.513 22.0183 185.137 23.5849C185.12 23.6566 185.103 23.7278 185.086 23.7978C184.898 24.5799 184.726 25.2873 184.554 25.7839C184.472 26.0228 184.367 26.2815 184.225 26.484C184.157 26.5816 184.033 26.7341 183.829 26.8476C183.595 26.9778 183.208 27.0736 182.746 26.9147C182.282 26.7555 182.035 26.4388 181.926 26.2537C181.817 26.0684 181.767 25.8886 181.739 25.7636C181.683 25.5067 181.669 25.21 181.67 24.9238C181.67 24.3375 181.733 23.5474 181.806 22.6723C181.811 22.61 181.816 22.547 181.822 22.4837C181.967 20.7307 182.148 18.5601 182.053 16.4562C181.953 14.2336 181.549 12.2912 180.665 11.0325C180.247 10.4377 179.746 10.0293 179.127 9.78659C178.493 9.53776 177.61 9.4138 176.375 9.58768C175.15 9.76015 174.401 10.1186 173.948 10.5467C173.5 10.97 173.273 11.5265 173.241 12.228C173.176 13.69 173.969 15.6489 175.184 17.7611C176.327 19.7493 177.752 21.7193 178.901 23.3074C178.954 23.38 179.005 23.4518 179.057 23.5229C179.631 24.3177 180.148 25.0366 180.482 25.5775C180.645 25.8398 180.805 26.1236 180.897 26.3823C180.942 26.508 180.998 26.7005 180.987 26.9108C180.975 27.1388 180.875 27.4691 180.504 27.6685C180.115 27.8777 179.682 27.8073 179.414 27.7141C179.169 27.629 178.976 27.5008 178.856 27.4134C178.606 27.2317 178.355 26.9869 178.129 26.7484C177.66 26.2559 177.066 25.5461 176.409 24.7532C176.324 24.6514 176.238 24.5476 176.151 24.4422C174.853 22.8759 173.255 20.9479 171.534 19.2085C169.667 17.3213 167.804 15.8143 166.166 15.179C165.382 14.8749 164.707 14.793 164.108 14.9192C163.502 15.0466 162.842 15.4143 162.192 16.2316C161.543 17.0479 161.355 17.7459 161.403 18.3311C161.45 18.9119 161.74 19.4947 162.287 20.1028C163.428 21.3697 165.532 22.5755 168.028 23.6717C170.366 24.6985 172.871 25.5553 174.895 26.2476C174.997 26.2827 175.099 26.3173 175.199 26.3516C176.216 26.6999 177.129 27.0155 177.783 27.2832C178.101 27.4136 178.427 27.5602 178.688 27.7209C178.814 27.7988 178.996 27.9221 179.153 28.0946C179.317 28.2733 179.542 28.6095 179.48 29.0151C179.414 29.4396 179.08 29.6456 178.846 29.7293C178.631 29.8067 178.412 29.8192 178.27 29.8206C177.974 29.8235 177.624 29.777 177.291 29.7209C176.605 29.605 175.664 29.3894 174.616 29.1462C174.506 29.1206 174.395 29.0946 174.282 29.0685C172.201 28.5845 169.631 27.9865 167.165 27.6327C164.514 27.2525 162.224 27.1939 160.819 27.705C160.154 27.9466 159.737 28.2978 159.53 28.7747C159.319 29.2641 159.281 29.9995 159.647 31.114C160.012 32.2247 160.529 32.9585 161.09 33.4464C161.646 33.929 162.323 34.2399 163.137 34.4059C164.831 34.7513 166.985 34.4419 169.262 33.7795C171.503 33.1277 173.688 32.1894 175.411 31.4365C175.5 31.3974 175.589 31.3586 175.677 31.3203C176.416 30.9969 177.077 30.7075 177.59 30.5122C177.872 30.4046 178.156 30.3072 178.408 30.2515C178.531 30.2245 178.699 30.1948 178.887 30.1958C179.038 30.1966 179.441 30.2164 179.826 30.4993C180.042 30.6581 180.216 30.8771 180.294 31.1315C180.365 31.3641 180.334 31.5538 180.298 31.6714C180.232 31.8865 180.094 32.0378 180.023 32.1106C179.861 32.2779 179.627 32.4461 179.396 32.5993C178.949 32.8964 178.297 33.2773 177.561 33.7077C177.508 33.7386 177.454 33.7699 177.401 33.8011C175.767 34.7563 173.663 35.9968 171.864 37.3885C170.03 38.8079 168.678 40.2642 168.325 41.6041C168.159 42.2384 168.228 42.8032 168.532 43.3333C168.844 43.8769 169.471 44.5028 170.658 45.1668C171.845 45.831 172.771 46.0814 173.493 46.1043C174.204 46.1267 174.826 45.9326 175.396 45.5336C176.589 44.6976 177.455 43.0286 178.083 40.9919C178.682 39.0524 179.02 36.944 179.29 35.2569C179.298 35.2026 179.307 35.1486 179.316 35.0951C179.45 34.2569 179.574 33.5006 179.71 32.9655C179.776 32.7068 179.861 32.4333 179.984 32.2166C180.043 32.1122 180.148 31.9532 180.328 31.8247C180.53 31.682 180.894 31.5373 181.378 31.6567C181.88 31.7811 182.17 32.1071 182.302 32.316C182.426 32.5131 182.48 32.7049 182.507 32.8306C182.564 33.0922 182.575 33.3954 182.572 33.6852C182.565 34.2815 182.49 35.0916 182.403 35.9941C182.394 36.0803 182.386 36.1678 182.377 36.2562C182.203 38.0528 181.987 40.2805 182.04 42.4558C182.096 44.7779 182.46 46.8462 183.336 48.2186C183.754 48.8733 184.258 49.323 184.871 49.5968C185.493 49.8747 186.361 50.0316 187.588 49.8912C188.819 49.7505 189.568 49.4163 190.02 49.0124C190.466 48.614 190.696 48.0821 190.735 47.4017C190.814 45.9785 190.045 44.0454 188.851 41.9503C187.724 39.97 186.313 38.0049 185.186 36.4332C185.14 36.3696 185.095 36.3067 185.05 36.2443C184.488 35.4609 183.984 34.7539 183.661 34.2279C183.506 33.9751 183.347 33.6935 183.261 33.4367C183.219 33.3141 183.161 33.1067 183.189 32.8801C183.222 32.6143 183.386 32.2841 183.815 32.1339C184.217 31.9928 184.612 32.0977 184.831 32.1844C185.047 32.2704 185.224 32.3879 185.343 32.4751C185.586 32.654 185.833 32.8914 186.063 33.1277C186.533 33.6116 187.127 34.3018 187.783 35.0685C187.833 35.1276 187.884 35.1871 187.936 35.2474C189.249 36.7818 190.877 38.685 192.641 40.3879C194.502 42.1853 196.368 43.6118 198.032 44.2012C198.831 44.4846 199.543 44.56 200.191 44.4222C200.845 44.2831 201.544 43.9041 202.234 43.1018C202.927 42.2954 203.144 41.6125 203.123 41.0521C203.101 40.5016 202.845 39.9546 202.337 39.3823C201.269 38.1787 199.233 37.0303 196.783 35.9922C194.378 34.9734 191.777 34.143 189.748 33.4999L189.604 33.4541C188.667 33.1573 187.832 32.8928 187.236 32.6745C186.933 32.5632 186.622 32.4394 186.375 32.3059C186.262 32.2445 186.069 32.1326 185.899 31.9639C185.72 31.7875 185.403 31.368 185.574 30.8831ZM180.125 26.0009C180.133 26.0067 180.133 26.0057 180.124 26C180.124 26.0004 180.125 26.0005 180.125 26.0009ZM177.905 27.8725C177.905 27.8722 177.902 27.8723 177.896 27.8727L177.897 27.8727C177.902 27.8726 177.905 27.8725 177.905 27.8725ZM177.606 29.259C177.606 29.259 177.604 29.2576 177.599 29.2547C177.603 29.2576 177.606 29.259 177.606 29.259ZM178.225 30.7229C178.233 30.7145 178.23 30.7156 178.222 30.7257C178.223 30.7248 178.224 30.7238 178.225 30.7229ZM179.291 32.14C179.291 32.14 179.29 32.1401 179.288 32.1405C179.29 32.1403 179.291 32.1402 179.291 32.14ZM180.309 32.8917C180.309 32.8919 180.309 32.8944 180.311 32.8991C180.31 32.8941 180.309 32.8917 180.309 32.8917ZM182.022 33.2866C182.021 33.2872 182.021 33.2879 182.02 33.2887C182.024 33.2825 182.025 33.2813 182.022 33.2866ZM184.053 33.8738C184.053 33.8739 184.055 33.8753 184.059 33.8777C184.055 33.8748 184.053 33.8735 184.053 33.8738ZM187.084 32.1952C187.084 32.1951 187.086 32.1951 187.091 32.1949C187.086 32.1949 187.085 32.195 187.084 32.1952ZM187.33 30.6947L187.33 30.6948C187.324 30.6912 187.321 30.6893 187.32 30.6894C187.32 30.6894 187.323 30.6912 187.33 30.6947ZM186.935 28.5044C186.935 28.5044 186.936 28.503 186.938 28.5004C186.936 28.503 186.935 28.5044 186.935 28.5044ZM183.938 25.7058C183.938 25.7056 183.938 25.7035 183.937 25.6997C183.938 25.7039 183.938 25.7059 183.938 25.7058ZM178.768 26.6836C178.767 26.6831 178.767 26.6827 178.767 26.6822C178.769 26.6899 178.77 26.6908 178.768 26.6836Z" stroke="#F74700" stroke-width="3.71442" stroke-linecap="round" stroke-linejoin="round"/>
<path d="M183.828 30.25C183.897 30.0545 183.991 29.8885 184.1 29.7477C183.814 29.5268 183.546 29.2411 183.341 28.8762C183.264 28.7379 183.205 28.6036 183.16 28.4743C182.884 28.461 182.587 28.4082 182.272 28.3C182.244 28.2903 182.216 28.2803 182.188 28.2702C182.032 28.5165 181.798 28.7538 181.453 28.9391C181.331 29.0052 181.206 29.0579 181.081 29.0997C181.083 29.2051 181.076 29.3138 181.058 29.425C181.043 29.522 181.022 29.6135 180.995 29.7C181.179 29.8657 181.344 30.0538 181.48 30.2601C181.499 30.2646 181.519 30.2694 181.54 30.2743C182.018 30.3927 182.404 30.5951 182.709 30.8199C182.766 30.7948 182.825 30.7715 182.887 30.7498L183.194 31.2603L182.887 30.7498C183.18 30.6472 183.469 30.6058 183.74 30.6023C183.757 30.4873 183.786 30.3696 183.828 30.25ZM188.856 34.4655C188.849 34.4631 188.842 34.461 188.835 34.4588C190.023 35.8462 191.416 37.4553 192.907 38.8951C194.615 40.5437 196.12 41.6365 197.272 42.045C197.775 42.2231 198.105 42.2334 198.358 42.1794C198.623 42.1231 199.059 41.9418 199.58 41.3356C200.109 40.7205 200.169 40.3238 200.161 40.1423C200.155 39.9834 200.092 39.7692 199.794 39.4329C199.078 38.6266 197.517 37.6876 195.26 36.7319C193.107 35.8198 190.76 35.0687 188.856 34.4655ZM187.005 41.5652C186.014 39.8254 184.772 38.0869 183.724 36.6266C183.573 38.2047 183.419 40.0205 183.461 41.7883C183.514 43.9316 183.858 45.5648 184.459 46.5061C184.714 46.9049 184.939 47.0603 185.119 47.141C185.321 47.2315 185.794 47.3717 186.73 47.2648C187.674 47.1567 188.086 46.9199 188.27 46.7556C188.44 46.6037 188.568 46.3795 188.591 45.9688C188.645 45.0056 188.099 43.4874 187.005 41.5652ZM174.966 25.0366C173.82 23.6563 172.495 22.0822 171.084 20.6557C169.361 18.9152 167.851 17.7525 166.716 17.3121C166.227 17.1229 165.952 17.1236 165.773 17.1613C165.581 17.2019 165.187 17.3521 164.699 17.966C164.212 18.5778 164.164 18.9808 164.181 19.1883C164.197 19.3859 164.292 19.6493 164.637 20.033C165.432 20.9159 167.078 21.9108 169.375 22.9195C171.233 23.7355 173.218 24.436 174.966 25.0366ZM174.463 30.3444C172.527 29.8943 170.24 29.3658 168.056 29.0526C165.605 28.7009 163.828 28.71 162.894 29.0499C162.513 29.1882 162.402 29.3345 162.352 29.4515C162.289 29.5964 162.201 29.9857 162.484 30.8474C162.764 31.6998 163.116 32.1293 163.368 32.3487C163.607 32.5565 163.925 32.7231 164.427 32.8254C165.583 33.0612 167.285 32.869 169.365 32.2642C171.168 31.7397 172.947 31.0015 174.463 30.3444ZM177.818 35.1012C176.449 35.9105 174.897 36.8675 173.548 37.9118C171.855 39.222 170.852 40.3968 170.617 41.2898C170.521 41.6552 170.584 41.8584 170.667 42.0034C170.768 42.1792 171.073 42.5634 171.995 43.0796C172.919 43.5962 173.489 43.7078 173.802 43.7179C174.089 43.7269 174.378 43.6593 174.715 43.423C175.513 42.8637 176.242 41.5979 176.818 39.731C177.288 38.2069 177.581 36.5556 177.818 35.1012ZM189.619 29.4489C189.653 29.4559 189.687 29.4628 189.722 29.4698L189.817 29.4888C191.769 29.8802 194.155 30.3553 196.412 30.598C198.777 30.8524 200.502 30.7876 201.41 30.4342C201.789 30.2868 201.884 30.144 201.921 30.0572C201.965 29.9542 202.049 29.6334 201.781 28.8782C201.517 28.1358 201.194 27.7692 200.962 27.5794C200.732 27.3915 200.408 27.2265 199.887 27.1231C198.715 26.8903 197.03 27.0622 195.011 27.5924C193.07 28.1019 191.176 28.841 189.631 29.4441L189.619 29.4489ZM180.23 23.1129C180.238 23.0225 180.245 22.9313 180.253 22.8401C180.257 22.7886 180.261 22.7369 180.266 22.6849C180.403 21.0333 180.566 19.0669 180.481 17.1744C180.389 15.1254 180.013 13.6294 179.435 12.807C179.201 12.4741 179 12.345 178.815 12.2725C178.595 12.1859 178.091 12.0637 177.131 12.1989C176.193 12.3311 175.773 12.5827 175.578 12.7673C175.393 12.9415 175.262 13.1935 175.243 13.6282C175.198 14.6321 175.767 16.1795 176.88 18.1151C177.893 19.8757 179.159 21.6314 180.23 23.1129ZM186.299 24.5501C187.765 23.665 189.537 22.5929 191.037 21.4076C192.618 20.158 193.538 19.0513 193.754 18.2116C193.843 17.8674 193.786 17.6719 193.709 17.532C193.619 17.3675 193.348 17.0086 192.517 16.5167C191.694 16.0292 191.183 15.9226 190.905 15.9082C190.644 15.8946 190.359 15.9493 190.01 16.1707C189.196 16.6872 188.407 17.8704 187.726 19.6133C187.098 21.2196 186.676 22.9784 186.322 24.4541C186.315 24.4862 186.307 24.5181 186.299 24.5501Z" stroke="#F74700" stroke-width="8.44187" stroke-linecap="round" stroke-linejoin="round"/>
<path d="M179.371 30.7454C180.387 31.9343 182.317 32.2633 183.382 31.5072C184.402 30.7828 184.486 29.4505 183.499 28.3189C182.517 27.1918 180.987 26.8344 179.829 27.3912C178.618 27.9728 178.358 29.5597 179.371 30.7454Z" stroke="#A88771" stroke-width="9.11722" stroke-linecap="round" stroke-linejoin="round"/>
<path d="M86.3734 65.7243C85.1824 64.54 88.249 52.0473 107.397 53.3582C126.545 54.6692 150.14 80.3964 161.435 81.8219C172.729 83.2474 171.79 81.8101 178.425 81.8024C178.425 81.8024 175.494 86.8112 166.868 87.8828C158.243 88.9544 155.749 89.1414 147.815 85.5907C139.881 82.0401 116.494 67.3861 105.859 65.5114C95.2243 63.6369 87.5646 66.9088 86.3734 65.7243Z" stroke="#A88771" stroke-width="5.74047" stroke-linecap="round" stroke-linejoin="round"/>
<path d="M88.3686 62.984C87.1781 62.0087 89.1545 52.9444 107.052 55.4178C124.95 57.8911 148.694 78.8965 159.297 80.8412C169.9 82.7859 168.926 81.6419 175.095 82.1549C175.095 82.1549 172.721 85.6561 164.775 85.7799C156.829 85.9037 154.523 85.848 146.897 82.5833C139.27 79.3187 116.494 66.5764 106.474 64.3488C96.453 62.1213 89.5593 63.9593 88.3686 62.984Z" stroke="#A88771" stroke-width="5.74047" stroke-linecap="round" stroke-linejoin="round"/>
<path d="M91.0022 61.2576C89.7867 60.4589 90.7765 54.4352 107.878 58.0583C124.98 61.6814 149.374 78.6818 159.551 81.158C169.729 83.6341 168.701 82.7424 174.563 83.7579C174.563 83.7579 172.663 85.9117 165.188 85.1436C157.713 84.3756 155.535 84.0899 148.035 81.025C140.534 77.9603 117.849 66.7487 108.192 64.1404C98.5366 61.5321 92.2178 62.0564 91.0022 61.2576Z" stroke="#A88771" stroke-width="5.74047" stroke-linecap="round" stroke-linejoin="round"/>
<path d="M91.6827 59.2082C90.4126 58.574 90.4007 55.5681 107.078 60.4711C123.755 65.3742 149.397 78.6126 159.372 81.6994C169.347 84.7861 168.238 84.1357 173.92 85.6968C173.92 85.6968 172.467 86.5012 165.306 84.7886C158.144 83.076 156.048 82.5443 148.503 79.615C140.958 76.6859 117.831 66.8014 108.327 63.7361C98.8226 60.6708 92.9529 59.8423 91.6827 59.2082Z" stroke="#A88771" stroke-width="5.74047" stroke-linecap="round" stroke-linejoin="round"/>
<path d="M245.802 103.015C245.802 103.015 237.949 124.399 224.761 129.192C206.576 135.802 182.169 129.578 182.169 129.578" stroke="#A88771" stroke-width="10.1302" stroke-linecap="round" stroke-linejoin="round"/>
<path d="M168.961 139.69C171.333 141.87 174.004 140.571 177.115 141.67C180.275 142.786 181.809 145.843 184.888 145.34C187.744 144.872 187.222 142.094 189.187 140.385C191.52 138.356 195.465 139.053 196.085 136.097C196.658 133.363 193.251 131.878 192.442 129C191.781 126.658 193.424 125.087 191.838 122.992C189.798 120.298 186.48 121.471 183.158 120.147C180.196 118.966 178.773 116.527 175.751 116.705C172.243 116.91 172.714 120.406 170.179 122.257C168.061 123.803 164.952 123.2 164.185 125.596C163.391 128.077 166.388 129.643 167.317 132.325C168.302 135.172 166.519 137.443 168.961 139.69Z" stroke="#F74700" stroke-width="8.44187" stroke-linecap="round" stroke-linejoin="round"/>
<path d="M171.393 137.694C173.262 139.415 175.354 138.402 177.8 139.274C180.285 140.159 181.5 142.567 183.914 142.179C186.154 141.819 185.734 139.636 187.27 138.299C189.094 136.711 192.194 137.271 192.668 134.95C193.108 132.804 190.428 131.628 189.78 129.364C189.253 127.522 190.537 126.293 189.284 124.642C187.672 122.52 185.072 123.432 182.46 122.382C180.13 121.446 179.003 119.526 176.632 119.657C173.879 119.808 174.263 122.556 172.28 124.003C170.623 125.212 168.181 124.729 167.588 126.609C166.974 128.556 169.334 129.795 170.073 131.904C170.857 134.144 169.466 135.924 171.393 137.694Z" stroke="#F74700" stroke-width="8.44187" stroke-linecap="round" stroke-linejoin="round"/>
<path d="M173.558 136.138C174.989 137.454 176.581 136.686 178.447 137.358C180.345 138.038 181.278 139.877 183.118 139.588C184.825 139.319 184.497 137.651 185.664 136.634C187.05 135.428 189.415 135.862 189.768 134.092C190.097 132.455 188.051 131.552 187.551 129.824C187.143 128.417 188.118 127.482 187.158 126.22C185.923 124.598 183.943 125.288 181.949 124.481C180.17 123.762 179.305 122.295 177.498 122.389C175.4 122.499 175.701 124.596 174.194 125.695C172.934 126.614 171.071 126.24 170.625 127.673C170.163 129.157 171.965 130.107 172.535 131.718C173.139 133.428 172.085 134.782 173.558 136.138Z" stroke="#B8CDB4" stroke-width="4.72745" stroke-linecap="round" stroke-linejoin="round"/>
<path d="M174.879 134.983C176 136.016 177.241 135.419 178.702 135.947C180.186 136.484 180.921 137.924 182.358 137.701C183.689 137.494 183.429 136.19 184.338 135.398C185.416 134.457 187.264 134.801 187.536 133.419C187.789 132.141 186.188 131.429 185.791 130.077C185.469 128.977 186.228 128.248 185.474 127.259C184.504 125.988 182.96 126.523 181.399 125.888C180.007 125.322 179.327 124.173 177.916 124.243C176.277 124.324 176.518 125.964 175.344 126.82C174.363 127.535 172.906 127.239 172.562 128.358C172.205 129.518 173.616 130.265 174.066 131.525C174.544 132.864 173.723 133.92 174.879 134.983Z" stroke="#B8CDB4" stroke-width="4.72745" stroke-linecap="round" stroke-linejoin="round"/>
<path d="M176.068 134.186C176.946 134.994 177.918 134.526 179.062 134.939C180.224 135.358 180.799 136.485 181.924 136.31C182.968 136.148 182.765 135.127 183.477 134.506C184.322 133.768 185.77 134.037 185.984 132.954C186.182 131.953 184.928 131.397 184.619 130.338C184.367 129.477 184.962 128.905 184.372 128.131C183.613 127.136 182.403 127.556 181.181 127.06C180.092 126.617 179.56 125.718 178.454 125.773C177.17 125.837 177.358 127.122 176.438 127.793C175.669 128.353 174.528 128.122 174.258 128.999C173.978 129.907 175.082 130.491 175.434 131.478C175.807 132.526 175.164 133.354 176.068 134.186Z" stroke="#B8CDB4" stroke-width="4.72745" stroke-linecap="round" stroke-linejoin="round"/>
<path d="M177.719 132.73C179.137 134.096 181.52 134.285 182.703 133.193C183.828 132.156 183.705 130.465 182.342 129.177C180.985 127.894 179.063 127.621 177.744 128.464C176.354 129.351 176.305 131.369 177.719 132.73Z" stroke="#F74700" stroke-width="8.77955" stroke-linecap="round" stroke-linejoin="round"/>
<path d="M180.827 131.576C180.476 131.9 179.804 131.837 179.403 131.45C179.003 131.066 179.005 130.494 179.417 130.231C179.799 129.988 180.357 130.076 180.731 130.429C181.107 130.784 181.153 131.276 180.827 131.576Z" stroke="#B8CDB4" stroke-width="3.37675" stroke-linecap="round" stroke-linejoin="round"/>
<path d="M254.008 52.9455C256.676 54.8387 259.028 53.1722 262.221 53.8722C265.466 54.584 267.478 57.4767 270.362 56.5597C273.036 55.7086 272.049 52.9659 273.646 50.9751C275.546 48.613 279.474 48.7978 279.558 45.7238C279.633 42.8795 276.088 41.8273 274.804 39.0211C273.758 36.7372 275.07 34.9296 273.174 33.0186C270.735 30.561 267.737 32.1878 264.3 31.2858C261.236 30.4822 259.436 28.2014 256.552 28.7808C253.201 29.4525 254.266 32.9291 252.142 35.1376C250.366 36.9827 247.261 36.7834 246.939 39.3093C246.605 41.9266 249.772 43.116 251.136 45.708C252.582 48.4595 251.257 50.9945 254.008 52.9455Z" stroke="#B8CDB4" stroke-width="8.44187" stroke-linecap="round" stroke-linejoin="round"/>
<path d="M256.005 50.605C258.109 52.0981 259.951 50.7972 262.463 51.3563C265.016 51.924 266.609 54.2 268.873 53.4892C270.971 52.8297 270.185 50.6745 271.435 49.1178C272.916 47.269 276.006 47.426 276.059 45.014C276.11 42.7834 273.318 41.9463 272.299 39.7412C271.469 37.9458 272.494 36.532 270.997 35.0269C269.07 33.0911 266.72 34.3585 264.017 33.6414C261.604 33.0015 260.182 31.2067 257.917 31.6527C255.287 32.1704 256.135 34.9005 254.474 36.6274C253.085 38.0697 250.645 37.9043 250.401 39.8853C250.147 41.9378 252.64 42.88 253.722 44.9181C254.87 47.0815 253.837 49.0662 256.005 50.605Z" stroke="#B8CDB4" stroke-width="8.44187" stroke-linecap="round" stroke-linejoin="round"/>
<path d="M257.823 48.7426C259.434 49.886 260.837 48.8994 262.755 49.3307C264.704 49.7692 265.927 51.5078 267.65 50.9701C269.25 50.4722 268.645 48.8287 269.593 47.6445C270.72 46.2396 273.077 46.3661 273.112 44.5285C273.143 42.8282 271.011 42.1842 270.227 40.5011C269.589 39.1314 270.366 38.0558 269.22 36.9056C267.743 35.4255 265.955 36.3866 263.889 35.8336C262.047 35.3405 260.956 33.9692 259.229 34.3041C257.222 34.6919 257.878 36.7748 256.616 38.0873C255.561 39.1836 253.697 39.0517 253.517 40.5613C253.329 42.1244 255.234 42.8481 256.066 44.404C256.947 46.055 256.165 47.5656 257.823 48.7426Z" stroke="#F74700" stroke-width="4.72745" stroke-linecap="round" stroke-linejoin="round"/>
<path d="M258.897 47.3992C260.159 48.2957 261.253 47.528 262.755 47.8694C264.281 48.2168 265.24 49.5763 266.587 49.1609C267.838 48.7762 267.36 47.4908 268.099 46.5685C268.974 45.4732 270.819 45.5774 270.841 44.1424C270.86 42.814 269.191 42.3067 268.573 40.9904C268.071 39.9192 268.675 39.0808 267.775 38.1797C266.618 37.0213 265.22 37.7667 263.603 37.3301C262.161 36.9411 261.306 35.8684 259.954 36.1249C258.388 36.4243 258.906 38.0521 257.923 39.0744C257.1 39.9281 255.643 39.821 255.506 40.9992C255.363 42.2198 256.855 42.7894 257.51 44.0065C258.203 45.2978 257.596 46.4757 258.897 47.3992Z" stroke="#F74700" stroke-width="4.72745" stroke-linecap="round" stroke-linejoin="round"/>
<path d="M259.905 46.4342C260.894 47.1364 261.751 46.5344 262.926 46.8006C264.121 47.0722 264.872 48.1371 265.927 47.8107C266.907 47.5088 266.531 46.5015 267.112 45.7791C267.799 44.9209 269.243 45.0016 269.26 43.8767C269.277 42.8372 267.97 42.4404 267.486 41.4092C267.093 40.5703 267.568 39.9136 266.863 39.2079C265.958 38.3012 264.864 38.8862 263.598 38.5454C262.47 38.2414 261.799 37.4012 260.741 37.6028C259.513 37.8378 259.918 39.1128 259.149 39.9145C258.503 40.5831 257.363 40.5005 257.255 41.4235C257.141 42.3792 258.31 42.825 258.822 43.7779C259.365 44.7894 258.888 45.7121 259.905 46.4342Z" stroke="#F74700" stroke-width="4.72745" stroke-linecap="round" stroke-linejoin="round"/>
<path d="M261.245 44.7429C262.853 45.9384 265.185 45.8143 266.137 44.5533C267.041 43.3538 266.627 41.658 265.087 40.5347C263.553 39.4156 261.652 39.393 260.524 40.4203C259.338 41.5022 259.643 43.5523 261.245 44.7429Z" stroke="#B8CDB4" stroke-width="8.77955" stroke-linecap="round" stroke-linejoin="round"/>
<path d="M264.044 43.1639C263.762 43.5389 263.101 43.5627 262.647 43.2247C262.194 42.888 262.097 42.31 262.449 41.9893C262.775 41.6923 263.328 41.7074 263.75 42.0154C264.176 42.3256 264.305 42.8164 264.044 43.1639Z" stroke="#F74700" stroke-width="3.37675" stroke-linecap="round" stroke-linejoin="round"/>
<path d="M68.2389 56.247C66.6252 61.0183 60.5533 60.65 55.6738 63.0241C51.1934 65.2038 51.6654 69.6274 46.1516 69.2286C40.9395 68.8515 40.0619 65.1456 35.1025 63.0568C29.4072 60.6583 24.0365 62.5174 19.9641 58.1744C15.6817 53.6074 20.4027 51.3036 19.2794 45.8099C18.308 41.059 12.9613 37.0494 14.7614 32.8614C16.6157 28.5471 23.0408 31.0437 27.2805 28.4418C31.1555 26.0637 30.4974 21.1372 35.4681 20.6912C40.899 20.2041 43.0416 25.6377 48.357 27.9093C54.1378 30.3798 59.2454 28.5943 62.7583 33.0226C66.2712 37.4509 61.9764 40.0902 63.2108 45.1181C64.4833 50.3008 69.837 51.5224 68.2389 56.247Z" stroke="#F74700" stroke-width="7.42885" stroke-linecap="round" stroke-linejoin="round"/>
<path d="M64.7335 54.7542C63.3293 58.9061 58.0455 58.5857 53.7994 60.6516C49.9007 62.5483 50.3114 66.3977 45.5133 66.0507C40.9778 65.7225 40.2142 62.4978 35.8985 60.6801C30.9425 58.5928 26.2687 60.2105 22.7251 56.4313C18.9986 52.4572 23.1068 50.4524 22.1293 45.6718C21.2839 41.5376 16.6313 38.0485 18.1977 34.4041C19.8113 30.6498 25.4023 32.8225 29.092 30.5582C32.4637 28.4889 31.8912 24.2018 36.2166 23.8138C40.9425 23.3899 42.8069 28.1181 47.4325 30.095C52.4628 32.2447 56.9075 30.6909 59.9644 34.5444C63.0214 38.3979 59.284 40.6946 60.3581 45.07C61.4654 49.5799 66.1241 50.6429 64.7335 54.7542Z" stroke="#F74700" stroke-width="7.42885" stroke-linecap="round" stroke-linejoin="round"/>
<path d="M61.531 53.4048C60.311 57.0124 55.7197 56.734 52.0301 58.529C48.6424 60.1771 48.9994 63.5219 44.8302 63.2203C40.8892 62.9353 40.2255 60.1332 36.4757 58.5539C32.1693 56.7402 28.1083 58.1458 25.0292 54.8619C21.7912 51.4088 25.3609 49.6669 24.5114 45.513C23.777 41.9208 19.7342 38.889 21.0952 35.7223C22.4974 32.4602 27.3556 34.3479 30.5613 32.3805C33.4913 30.5825 32.9936 26.8572 36.7522 26.5202C40.8585 26.1517 42.4787 30.2602 46.4978 31.978C50.8687 33.846 54.7307 32.496 57.3869 35.8442C60.0432 39.1926 56.7957 41.1882 57.7291 44.9899C58.6912 48.9087 62.7392 49.8323 61.531 53.4048Z" stroke="#F74700" stroke-width="7.42885" stroke-linecap="round" stroke-linejoin="round"/>
<path d="M58.6108 52.1944C57.5668 55.2815 53.6382 55.0433 50.4812 56.5793C47.5822 57.9896 47.8877 60.8517 44.3202 60.5936C40.948 60.3497 40.3801 57.9519 37.1713 56.6006C33.4865 55.0485 30.0116 56.2514 27.3766 53.4415C24.6061 50.4868 27.6604 48.996 26.9337 45.4416C26.3053 42.3678 22.8459 39.7735 24.0107 37.0637C25.2103 34.2724 29.3675 35.8878 32.1106 34.2043C34.6176 32.6656 34.192 29.4781 37.408 29.1895C40.9218 28.8743 42.308 32.3899 45.7471 33.8598C49.4874 35.4583 52.7921 34.3029 55.0648 37.168C57.3377 40.0333 54.559 41.7409 55.3577 44.9941C56.181 48.3472 59.6447 49.1376 58.6108 52.1944Z" stroke="#B53A25" stroke-width="9.4549" stroke-linecap="round" stroke-linejoin="round"/>
<path d="M53.846 50.2879C53.0955 52.5067 50.2717 52.3354 48.0023 53.4396C45.9188 54.4533 46.1382 56.5104 43.5739 56.3251C41.15 56.1498 40.7419 54.4262 38.4353 53.4548C35.7867 52.3393 33.2891 53.2039 31.3951 51.184C29.4035 49.0602 31.599 47.9888 31.0766 45.4339C30.6248 43.2244 28.1384 41.3598 28.9754 39.4119C29.8379 37.4057 32.8261 38.5667 34.7976 37.3566C36.5999 36.2507 36.2938 33.9596 38.6054 33.7521C41.1311 33.5256 42.1275 36.0525 44.5997 37.109C47.288 38.2579 49.6634 37.4275 51.2971 39.4869C52.9308 41.5465 50.9334 42.7738 51.5076 45.1122C52.0993 47.5225 54.5891 48.0905 53.846 50.2879Z" stroke="#B53A25" stroke-width="9.4549" stroke-linecap="round" stroke-linejoin="round"/>
<path d="M50.1407 48.8264C49.5967 50.4349 47.5496 50.3107 45.9045 51.1111C44.3942 51.8459 44.5533 53.3373 42.6944 53.2028C40.9373 53.0758 40.6414 51.8264 38.9695 51.1223C37.0494 50.3136 35.2388 50.9402 33.866 49.4761C32.4223 47.9365 34.0138 47.1599 33.635 45.3077C33.3077 43.7061 31.505 42.3543 32.1118 40.9425C32.7371 39.4879 34.9031 40.3296 36.3325 39.4523C37.6387 38.6508 37.4171 36.9899 39.0927 36.8395C40.9235 36.6752 41.646 38.5071 43.438 39.273C45.3868 40.1059 47.1088 39.5039 48.293 40.9968C49.4773 42.4898 48.0294 43.3794 48.4456 45.0746C48.8745 46.8217 50.6794 47.2336 50.1407 48.8264Z" stroke="#B53A25" stroke-width="9.4549" stroke-linecap="round" stroke-linejoin="round"/>
<path d="M46.8394 51.1359C43.4522 53.5406 37.7347 52.4507 34.6988 48.8987C31.6782 45.365 32.3215 40.613 36.1631 38.7671C39.7196 37.0583 44.4375 38.2602 47.27 41.5102C50.1195 44.7796 49.9777 48.9079 46.8394 51.1359Z" stroke="#F74700" stroke-width="6.7535" stroke-linecap="round" stroke-linejoin="round"/>
<path d="M44.5178 48.7659C42.4506 50.2336 38.9609 49.5683 37.1081 47.4006C35.2646 45.2439 35.6572 42.3436 38.0018 41.2169C40.1723 40.1741 43.0518 40.9076 44.7806 42.8911C46.5198 44.8866 46.4331 47.4062 44.5178 48.7659Z" stroke="#F74700" stroke-width="6.7535" stroke-linecap="round" stroke-linejoin="round"/>
<path d="M39.7361 45.929C40.4035 46.7099 41.6709 46.9255 42.3695 46.4295C43.0395 45.9539 43.0949 45.0794 42.4467 44.3358C41.8012 43.5953 40.7971 43.3608 40.0364 43.7265C39.2419 44.1081 39.0704 45.1502 39.7361 45.929Z" stroke="#B53A25" stroke-width="6.07815" stroke-linecap="round" stroke-linejoin="round"/>
<path d="M312.819 166.32C314.778 160.404 311.389 158.235 311.389 158.235C311.389 158.235 317.401 153.108 320.265 154.298C323.243 155.535 322.657 159.463 324.361 160.784C326.064 162.104 328.524 151.481 336.021 151.393C342.349 151.318 333.185 162.212 337.679 161.533C343.586 160.64 347.355 146.322 356.965 148.948C366.728 151.615 355.644 160.36 358.183 164.94C363.541 174.601 371.566 158.367 375.443 161.497C377.936 163.511 374.964 168.402 379.446 171.012C384.269 173.822 388.177 171.756 388.144 174.905C388.097 179.601 377.925 178.055 374.457 179.853C370.988 181.651 375.982 186.956 371.292 189.231C366.451 191.579 365.534 183.125 358.771 184.651C357.112 185.025 361.258 192.963 354.138 193.465C343.001 194.25 344.749 177.306 335.153 177.432C329.115 177.51 330.477 185.471 325.088 182.232C320.249 179.324 324.898 171.632 324.166 168.141C323.401 164.492 311.717 169.65 312.819 166.32Z" stroke="#B53A25" stroke-width="8.44187" stroke-linecap="round" stroke-linejoin="round"/>
<path d="M314.996 165.8C316.616 160.846 314.163 157.902 314.163 157.902C314.163 157.902 318.806 154.746 321.512 155.863C324.325 157.023 323.915 160.339 325.546 161.524C327.175 162.709 329.099 153.774 336.072 153.977C341.959 154.148 333.805 163.063 337.963 162.653C343.429 162.113 346.444 150.089 355.476 152.675C364.652 155.302 354.638 162.321 357.159 166.305C362.475 174.711 369.385 161.216 373.1 164.019C375.488 165.821 372.893 169.867 377.15 172.25C381.734 174.815 385.3 173.204 385.377 175.878C385.495 179.866 375.978 178.177 372.812 179.575C369.645 180.974 374.475 185.666 370.189 187.425C365.767 189.241 364.622 182.026 358.381 183.071C356.85 183.328 360.981 190.224 354.374 190.388C344.037 190.643 345.083 176.314 336.159 176.065C330.543 175.909 332.084 182.722 326.958 179.771C322.356 177.123 326.418 170.76 325.616 167.767C324.779 164.638 314.085 168.588 314.996 165.8Z" stroke="#B53A25" stroke-width="9.11722" stroke-linecap="round" stroke-linejoin="round"/>
<path d="M318.911 158.589C318.646 158.7 318.389 158.816 318.151 158.932C318.243 159.158 318.332 159.4 318.414 159.658C318.805 160.887 319.032 162.431 318.789 164.231C319.045 164.211 319.322 164.188 319.622 164.163C319.674 164.16 319.726 164.156 319.779 164.152C321.022 164.05 322.656 163.922 324.068 164.078C324.775 164.155 325.7 164.328 326.577 164.79C327.585 165.321 328.406 166.174 328.716 167.276C329.059 168.494 328.869 169.809 328.692 170.795C328.604 171.28 328.514 171.711 328.427 172.125C328.3 172.732 328.183 173.302 328.091 173.948C327.944 174.973 327.953 175.739 328.112 176.295C328.244 176.745 328.44 176.983 328.817 177.198C329.04 177.325 329.202 177.403 329.314 177.45C329.405 177.356 329.558 177.183 329.787 176.871C329.843 176.796 329.903 176.713 329.966 176.624C330.818 175.437 332.442 173.173 336.358 173.319C339.491 173.435 341.817 174.822 343.542 176.582C344.964 178.034 346.082 179.855 347.016 181.377C347.115 181.54 347.215 181.701 347.311 181.856C348.402 183.623 349.315 184.978 350.403 185.915C351.33 186.714 352.418 187.241 354.174 187.216C355.269 187.2 355.532 186.93 355.608 186.841C355.747 186.68 355.873 186.351 355.862 185.685C355.853 185.211 355.796 184.823 355.729 184.37C355.692 184.111 355.65 183.83 355.614 183.5C355.576 183.16 355.525 182.612 355.637 182.096C355.752 181.551 356.192 180.501 357.657 180.274C359.737 179.953 361.572 180.298 363.178 181.057C364.665 181.76 365.816 182.763 366.598 183.45C367.536 184.272 367.918 184.597 368.256 184.761C368.258 184.762 368.261 184.765 368.264 184.767C368.289 184.789 368.357 184.847 368.738 184.698C369.237 184.501 369.285 184.328 369.312 184.236L369.312 184.232C369.375 184.003 369.363 183.64 369.221 182.887C369.205 182.808 369.189 182.721 369.168 182.624C369.047 182.014 368.858 181.073 368.927 180.241C369.025 179.053 369.627 177.882 371.182 177.223C372.372 176.717 373.946 176.569 375.236 176.486C375.935 176.441 376.539 176.415 377.119 176.391C377.837 176.36 378.52 176.331 379.303 176.27C380.116 176.205 380.766 176.117 381.264 176.005C379.845 175.75 377.818 175.289 375.638 174.08C374.09 173.222 373.058 172.148 372.417 170.976C371.814 169.873 371.622 168.795 371.517 167.992C371.473 167.646 371.443 167.369 371.417 167.135C371.388 166.856 371.365 166.636 371.328 166.426C371.254 166.464 371.174 166.508 371.088 166.558C370.583 166.845 370.02 167.236 369.36 167.716C369.228 167.81 369.093 167.909 368.955 168.01C368.425 168.396 367.845 168.819 367.262 169.209C365.893 170.126 363.96 171.271 361.714 171.309C360.468 171.33 359.158 171.013 357.914 170.244C356.724 169.508 355.761 168.462 354.956 167.229C353.717 165.326 354.175 163.4 354.613 162.145C354.856 161.453 355.171 160.765 355.461 160.144C355.506 160.047 355.551 159.952 355.593 159.858C355.843 159.325 356.071 158.841 356.264 158.363C356.762 157.132 356.768 156.534 356.672 156.278L356.672 156.278C356.656 156.236 356.633 156.175 356.469 156.055C356.261 155.904 355.807 155.652 354.907 155.391C352.134 154.589 350.073 155.789 347.563 158.424C347.156 158.851 346.707 159.352 346.243 159.87C345.485 160.715 344.686 161.606 343.965 162.296C342.77 163.433 341.142 164.706 338.931 164.898C338.153 164.965 336.574 164.925 335.405 163.67C334.432 162.625 334.509 161.473 334.556 161.035C334.617 160.453 334.8 159.854 334.969 159.354C335.071 159.048 335.202 158.695 335.324 158.361C335.397 158.162 335.466 157.971 335.526 157.8C335.686 157.355 335.816 156.958 335.903 156.604C334.153 156.813 332.762 157.998 331.47 159.681C331.123 160.132 330.81 160.582 330.505 161.022C330.486 161.048 330.468 161.074 330.451 161.101C330.175 161.498 329.886 161.918 329.61 162.267C329.352 162.593 328.934 163.091 328.356 163.418C328.045 163.596 327.523 163.82 326.806 163.815C326.01 163.809 325.275 163.524 324.702 163.113L326.126 161.494L324.702 163.113C323.711 162.404 323.192 161.508 322.896 160.903C322.701 160.508 322.496 159.991 322.34 159.601C322.28 159.45 322.227 159.317 322.186 159.219C321.78 158.25 321.547 158.093 321.368 158.016C321.357 158.015 321.163 157.971 320.701 158.044C320.173 158.127 319.551 158.322 318.911 158.589ZM316.705 164.282C316.704 164.283 316.725 164.288 316.773 164.294C316.732 164.284 316.706 164.28 316.705 164.282ZM329.521 177.517C329.521 177.516 329.507 177.512 329.484 177.511C329.509 177.517 329.522 177.519 329.521 177.517ZM382.296 175.503C382.295 175.5 382.295 175.499 382.295 175.499C382.295 175.499 382.295 175.5 382.296 175.503ZM371.165 165.846C371.165 165.846 371.168 165.85 371.174 165.858C371.168 165.849 371.166 165.845 371.165 165.846ZM336.875 156.596C336.875 156.596 336.871 156.595 336.863 156.593C336.871 156.595 336.875 156.596 336.875 156.596Z" stroke="#B53A25" stroke-width="8.44187" stroke-linecap="round" stroke-linejoin="round"/>
<path d="M342.858 163.959C342.853 164.011 342.862 164.001 342.86 163.943C342.86 163.949 342.86 163.955 342.858 163.959ZM326.155 161.419C326.115 161.433 326.078 161.449 326.039 161.464C326.051 161.498 326.063 161.532 326.075 161.567C326.372 162.421 326.568 163.45 326.515 164.62C326.55 164.619 326.585 164.616 326.621 164.614L326.668 164.612C327.58 164.557 328.817 164.485 329.937 164.598C329.264 164.031 328.882 163.397 328.655 162.966C328.486 162.642 328.294 162.197 328.167 161.899C328.121 161.795 328.084 161.708 328.059 161.651C327.898 161.298 327.796 161.137 327.726 161.053C327.723 161.049 327.72 161.046 327.719 161.044C327.664 161.043 327.571 161.046 327.436 161.064C327.078 161.112 326.632 161.235 326.155 161.419ZM324.424 164.682C324.382 164.673 324.356 164.67 324.356 164.671C324.355 164.672 324.376 164.677 324.424 164.682ZM333.727 165.184C333.502 165.303 333.167 165.442 332.731 165.498C333.444 165.967 334.042 166.64 334.307 167.499C334.638 168.564 334.48 169.67 334.354 170.409C334.286 170.807 334.219 171.14 334.156 171.451C334.067 171.89 333.988 172.288 333.925 172.767C333.827 173.514 333.856 174.002 333.953 174.31C334.015 174.508 334.076 174.577 334.26 174.68C334.261 174.681 334.263 174.682 334.267 174.684C334.29 174.654 334.316 174.621 334.344 174.584C334.386 174.531 334.43 174.469 334.48 174.404C335.144 173.503 336.546 171.607 339.925 171.789C342.549 171.931 344.516 173.083 345.977 174.516C347.167 175.682 348.108 177.132 348.859 178.289C348.942 178.416 349.022 178.539 349.098 178.657C349.987 180.014 350.681 180.982 351.48 181.647C352.13 182.189 352.881 182.557 354.134 182.562C354.603 182.565 354.799 182.501 354.866 182.469C354.881 182.436 354.933 182.303 354.92 181.958C354.908 181.631 354.867 181.386 354.812 181.071C354.778 180.872 354.739 180.646 354.7 180.353C354.666 180.095 354.606 179.6 354.705 179.116C354.816 178.576 355.266 177.555 356.716 177.366C358.461 177.139 360.012 177.447 361.37 178.083C362.624 178.67 363.593 179.489 364.22 180.021C364.889 180.587 365.164 180.81 365.349 180.919C365.365 180.915 365.381 180.909 365.4 180.902C365.461 180.879 365.503 180.861 365.53 180.847C365.532 180.818 365.532 180.776 365.527 180.717C365.515 180.573 365.485 180.394 365.429 180.13C365.417 180.079 365.405 180.02 365.389 179.952C365.286 179.501 365.102 178.692 365.15 177.975C365.182 177.498 365.313 176.949 365.675 176.436C366.045 175.913 366.579 175.536 367.211 175.287C368.24 174.885 369.565 174.795 370.571 174.752C371.151 174.727 371.629 174.716 372.083 174.707C372.153 174.705 372.224 174.704 372.294 174.702C371.766 174.496 371.215 174.247 370.65 173.939C369.343 173.226 368.433 172.33 367.852 171.331C367.307 170.395 367.128 169.493 367.032 168.862C367.01 168.712 366.99 168.581 366.975 168.467C366.732 168.619 366.466 168.797 366.166 169.002C366.067 169.07 365.964 169.141 365.857 169.215C365.443 169.5 364.981 169.819 364.517 170.112C363.442 170.792 361.819 171.707 359.884 171.703C358.807 171.7 357.676 171.416 356.602 170.766C355.571 170.142 354.743 169.274 354.057 168.279C352.895 166.589 353.305 164.92 353.646 163.942C353.838 163.395 354.087 162.858 354.307 162.392C354.343 162.318 354.375 162.245 354.409 162.174C354.6 161.775 354.765 161.426 354.905 161.081C355.176 160.416 355.206 160.087 355.205 159.965C355.076 159.879 354.777 159.723 354.152 159.539C352.245 158.977 350.834 159.673 348.928 161.593C348.64 161.883 348.305 162.243 347.949 162.622C347.349 163.265 346.695 163.967 346.125 164.487C345.174 165.351 343.795 166.393 341.868 166.519C341.197 166.562 339.758 166.513 338.655 165.376C337.695 164.388 337.754 163.308 337.79 162.931C337.836 162.428 337.987 161.93 338.116 161.55C338.194 161.315 338.299 161.034 338.393 160.777C338.442 160.643 338.487 160.516 338.527 160.406C337.728 160.722 337.011 161.363 336.292 162.268C336.034 162.593 335.799 162.918 335.565 163.247C335.551 163.268 335.537 163.289 335.521 163.309C335.312 163.602 335.081 163.929 334.857 164.203C334.652 164.451 334.276 164.892 333.727 165.184ZM334.678 174.88C334.678 174.88 334.674 174.878 334.665 174.876C334.673 174.879 334.677 174.88 334.678 174.88ZM354.893 182.45C354.893 182.45 354.884 182.454 354.872 182.466C354.888 182.457 354.895 182.451 354.893 182.45ZM365.264 180.94C365.264 180.94 365.264 180.94 365.266 180.939C365.264 180.939 365.264 180.94 365.264 180.94ZM365.574 180.822C365.574 180.822 365.571 180.824 365.567 180.828C365.573 180.824 365.574 180.822 365.574 180.822ZM355.29 160.038C355.292 160.037 355.283 160.023 355.25 159.998C355.27 160.026 355.287 160.039 355.29 160.038ZM339.999 160.199C339.999 160.199 339.995 160.198 339.986 160.197C339.995 160.198 339.999 160.199 339.999 160.199ZM327.676 161.011C327.682 161.013 327.687 161.016 327.693 161.018C327.69 161.016 327.688 161.015 327.684 161.014C327.682 161.013 327.68 161.013 327.676 161.011Z" stroke="#B53A25" stroke-width="8.44187" stroke-linecap="round" stroke-linejoin="round"/>
<path d="M327.055 168.699C328.016 165.762 326.561 164.015 326.561 164.015C326.561 164.015 329.314 162.144 330.92 162.807C332.588 163.495 332.344 165.461 333.312 166.164C334.278 166.866 335.419 161.568 339.553 161.688C343.044 161.789 338.209 167.076 340.675 166.833C343.916 166.513 345.704 159.383 351.06 160.916C356.501 162.474 350.563 166.636 352.058 168.999C355.212 173.984 359.308 165.981 361.511 167.643C362.928 168.712 361.388 171.111 363.913 172.524C366.633 174.046 368.747 173.091 368.793 174.676C368.861 177.04 363.219 176.039 361.34 176.868C359.464 177.698 362.326 180.48 359.785 181.523C357.162 182.6 356.484 178.321 352.783 178.941C351.875 179.093 354.324 183.183 350.407 183.28C344.277 183.431 344.897 174.934 339.605 174.787C336.275 174.694 337.189 178.734 334.149 176.984C331.421 175.414 333.828 171.64 333.353 169.866C332.857 168.011 326.515 170.353 327.055 168.699Z" stroke="#B53A25" stroke-width="8.44187" stroke-linecap="round" stroke-linejoin="round"/>
<path d="M332.059 169.337C332.759 167.193 331.698 165.919 331.698 165.919C331.698 165.919 333.707 164.553 334.879 165.036C336.095 165.538 335.919 166.974 336.623 167.486C337.33 167.999 338.163 164.133 341.18 164.22C343.729 164.294 340.199 168.152 341.999 167.975C344.364 167.741 345.669 162.537 349.579 163.657C353.549 164.793 349.216 167.831 350.307 169.556C352.608 173.194 355.598 167.353 357.205 168.566C358.24 169.346 357.117 171.098 358.959 172.129C360.943 173.239 362.487 172.542 362.52 173.699C362.571 175.425 358.451 174.694 357.081 175.299C355.711 175.905 357.802 177.935 355.946 178.697C354.032 179.483 353.536 176.359 350.835 176.812C350.173 176.923 351.962 179.908 349.101 179.979C344.627 180.089 345.081 173.888 341.218 173.78C338.787 173.712 339.454 176.661 337.235 175.384C335.245 174.238 337.001 171.483 336.655 170.188C336.293 168.834 331.664 170.544 332.059 169.337Z" stroke="#B53A25" stroke-width="8.44187" stroke-linecap="round" stroke-linejoin="round"/>
<path d="M338.011 169.866C338.459 168.501 337.783 167.69 337.783 167.69C337.783 167.69 339.062 166.82 339.808 167.128C340.583 167.447 340.47 168.361 340.92 168.688C341.369 169.014 341.899 166.552 343.822 166.608C345.444 166.655 343.197 169.113 344.343 168.999C345.848 168.85 346.68 165.536 349.169 166.249C351.7 166.973 348.939 168.907 349.634 170.006C351.1 172.323 353.003 168.603 354.028 169.376C354.686 169.873 353.97 170.987 355.144 171.644C356.409 172.352 357.39 171.907 357.411 172.644C357.445 173.744 354.821 173.278 353.949 173.664C353.076 174.05 354.407 175.343 353.226 175.828C352.006 176.328 351.691 174.339 349.97 174.627C349.548 174.698 350.687 176.599 348.866 176.644C346.016 176.714 346.306 172.765 343.845 172.696C342.297 172.653 342.723 174.531 341.309 173.718C340.041 172.987 341.16 171.234 340.94 170.409C340.708 169.546 337.761 170.635 338.011 169.866Z" stroke="#B53A25" stroke-width="8.44187" stroke-linecap="round" stroke-linejoin="round"/>
<path d="M340.556 167.877C340.926 166.748 340.366 166.076 340.366 166.076C340.366 166.076 341.425 165.356 342.043 165.611C342.684 165.875 342.591 166.632 342.961 166.902C343.334 167.172 343.773 165.134 345.363 165.18C346.706 165.22 344.846 167.253 345.795 167.159C347.041 167.036 347.729 164.293 349.789 164.884C351.882 165.483 349.599 167.084 350.172 167.992C351.386 169.91 352.961 166.831 353.808 167.471C354.354 167.882 353.762 168.805 354.733 169.348C355.779 169.934 356.593 169.566 356.609 170.176C356.636 171.085 354.465 170.7 353.744 171.02C353.021 171.338 354.123 172.408 353.145 172.81C352.136 173.224 351.876 171.578 350.452 171.817C350.103 171.875 351.044 173.448 349.538 173.485C347.18 173.544 347.418 170.275 345.383 170.219C344.102 170.183 344.453 171.737 343.285 171.064C342.234 170.46 343.161 169.009 342.978 168.326C342.788 167.612 340.347 168.513 340.556 167.877Z" stroke="#B53A25" stroke-width="8.44187" stroke-linecap="round" stroke-linejoin="round"/>
<path d="M296.572 138.018C296.572 138.018 299.765 158.058 344.084 173.275C359.698 178.636 384.227 175.199 384.227 175.199" stroke="#8D1202" stroke-width="2.36372" stroke-linecap="round" stroke-linejoin="round"/>
<path d="M326.111 165.583C326.111 165.583 330.594 163.658 332.223 161.418C333.884 159.132 334.079 154.446 334.079 154.446" stroke="#8D1202" stroke-width="1.68837" stroke-linecap="round" stroke-linejoin="round"/>
</svg>
