<svg width="104" height="79" viewBox="0 0 104 79" fill="none" xmlns="http://www.w3.org/2000/svg">
<path d="M16.3625 37.5983C16.3625 37.2944 16.4827 37.0031 16.6967 36.7882C16.9107 36.5734 17.2005 36.4528 17.5031 36.4528H70.4696C70.7672 36.4603 71.0501 36.5843 71.2579 36.7984C71.4657 37.0125 71.582 37.2996 71.582 37.5986C71.582 37.8976 71.4657 38.1847 71.2579 38.3988C71.0501 38.6129 70.7672 38.7369 70.4696 38.7445H17.5031C17.2005 38.7443 16.9107 38.6234 16.6967 38.4085C16.4827 38.1935 16.3625 37.9021 16.3625 37.5983Z" fill="#91A88C"/>
<path d="M47.1299 37.6985C47.1295 37.548 47.1589 37.399 47.2164 37.2599C47.2736 37.1208 47.3575 36.9945 47.4637 36.888C47.5694 36.7816 47.6951 36.6971 47.8336 36.6395C47.9722 36.5819 48.1205 36.5522 48.2701 36.5522H50.0816C50.2781 36.5522 55.1017 36.5574 60.7241 39.2492C64.0002 40.81 66.9285 43.0197 69.3332 45.7454C72.3316 49.1419 74.5718 53.3853 75.9905 58.3572C76.0357 58.5028 76.0514 58.6561 76.0367 58.8081C76.022 58.9601 75.9773 59.1079 75.905 59.242C75.8328 59.3765 75.7346 59.4952 75.6161 59.5909C75.4976 59.6865 75.3613 59.7574 75.2151 59.7997C75.069 59.8415 74.9159 59.8539 74.7649 59.8355C74.614 59.8176 74.4682 59.7694 74.336 59.6938C74.2039 59.6182 74.0882 59.5166 73.9956 59.3957C73.903 59.2744 73.8354 59.1361 73.7969 58.9883C72.4794 54.3717 70.4176 50.4444 67.669 47.3151C65.4809 44.8221 62.8153 42.7976 59.8311 41.3617C54.6674 38.8645 50.131 38.8418 50.0858 38.8418H48.2701C47.9683 38.8418 47.6785 38.7214 47.4645 38.507C47.2505 38.2927 47.1304 38.0019 47.1299 37.6985Z" fill="#91A88C"/>
<path d="M9.53648 37.7884C9.53648 36.9348 9.78838 36.1004 10.2606 35.3907C10.7325 34.681 11.4038 34.1278 12.1889 33.8012C12.974 33.4745 13.838 33.3891 14.6717 33.5556C15.505 33.7221 16.2709 34.1331 16.8715 34.7367C17.4724 35.3403 17.8816 36.1093 18.0474 36.9464C18.2132 37.7836 18.1284 38.6514 17.8032 39.44C17.478 40.2286 16.9273 40.9026 16.2206 41.3768C15.5139 41.851 14.6832 42.1041 13.8333 42.1041C12.694 42.1024 11.6024 41.6471 10.7968 40.8382C9.99126 40.0292 9.53818 38.9325 9.53648 37.7884ZM15.8515 37.7884C15.8515 37.3877 15.733 36.996 15.5114 36.6628C15.2897 36.3297 14.9743 36.07 14.6056 35.9168C14.2369 35.7636 13.8316 35.7237 13.4403 35.8021C13.049 35.8804 12.6897 36.0737 12.4076 36.3572C12.1258 36.6408 11.934 37.0019 11.8564 37.3951C11.7789 37.7881 11.8194 38.1955 11.9724 38.5655C12.1254 38.9356 12.3845 39.2517 12.7166 39.474C13.0486 39.6961 13.4386 39.8145 13.8376 39.8139C14.3716 39.8125 14.8835 39.5986 15.2612 39.2189C15.6384 38.8393 15.8506 38.3249 15.8515 37.7884Z" fill="#91A88C"/>
<path d="M55.5599 58.6727C55.5599 57.8195 55.8118 56.9851 56.284 56.2754C56.7563 55.5657 57.4272 55.0122 58.2123 54.6856C58.9978 54.3589 59.8618 54.2735 60.6951 54.44C61.5287 54.6065 62.2943 55.0178 62.8952 55.6212C63.4962 56.225 63.9054 56.9936 64.0712 57.831C64.237 58.668 64.1519 59.5357 63.8267 60.3244C63.5015 61.1132 62.9507 61.787 62.2441 62.2614C61.5375 62.7354 60.7066 62.9887 59.8567 62.9887C58.7178 62.987 57.6258 62.5317 56.8202 61.723C56.0147 60.9137 55.5616 59.8171 55.5599 58.6727ZM61.8742 58.6727C61.8744 58.2722 61.7562 57.8806 61.5347 57.5475C61.3131 57.214 60.9981 56.9543 60.6299 56.801C60.2612 56.6477 59.8554 56.6076 59.4641 56.6857C59.0733 56.7639 58.7135 56.9565 58.4318 57.24C58.1496 57.5231 57.9574 57.8844 57.8798 58.2773C57.8018 58.6701 57.8419 59.0775 57.9945 59.4478C58.1475 59.8176 58.4058 60.134 58.7378 60.3565C59.0694 60.579 59.4594 60.6977 59.8584 60.6977C60.3929 60.6968 60.9052 60.4833 61.2829 60.1037C61.6608 59.724 61.8734 59.2095 61.8742 58.6727Z" fill="#91A88C"/>
<path d="M16.3625 37.615C16.3625 37.3111 16.4827 37.0197 16.6967 36.8047C16.9106 36.5898 17.2005 36.4689 17.5031 36.4688H21.6094L21.6648 36.4746C26.2719 36.923 29.3212 38.6691 31.8606 42.3169C32.8657 43.76 33.7834 45.3336 34.6712 46.8521C36.0322 49.1863 37.3185 51.391 38.8951 53.1845C40.187 54.6475 41.6469 55.7843 43.2337 56.5538C44.7946 57.3109 46.4002 57.6764 48.0062 57.6422H56.3305C56.4827 57.6384 56.6344 57.6653 56.7759 57.7208C56.9178 57.7768 57.047 57.8605 57.1561 57.9672C57.2652 58.0744 57.3517 58.2017 57.411 58.3426C57.4702 58.4839 57.5005 58.6351 57.5005 58.788C57.5005 58.9413 57.4702 59.0924 57.411 59.2333C57.3517 59.3743 57.2652 59.5019 57.1561 59.6087C57.047 59.7155 56.9178 59.7992 56.7759 59.8551C56.6344 59.911 56.4827 59.9379 56.3305 59.9341H48.0476C46.0814 59.9742 44.1301 59.5318 42.247 58.6172C40.3861 57.7148 38.6846 56.3979 37.1919 54.703C35.4636 52.7413 34.06 50.3362 32.7033 48.0094C31.8389 46.5272 30.9451 44.995 29.9921 43.6272C27.8558 40.5607 25.3926 39.1467 21.4986 38.7575H17.5031C17.2013 38.7574 16.9115 38.637 16.698 38.4229C16.484 38.2087 16.3638 37.9182 16.3625 37.615Z" fill="#91A88C"/>
<path d="M55.5599 16.6252C55.5599 15.7716 55.8118 14.9372 56.284 14.2275C56.7563 13.5178 57.4272 12.9646 58.2123 12.638C58.9978 12.3113 59.8618 12.2258 60.6951 12.3924C61.5287 12.5589 62.2943 12.9699 62.8952 13.5735C63.4962 14.1771 63.9054 14.946 64.0712 15.7832C64.237 16.6204 64.1519 17.4881 63.8267 18.2768C63.5015 19.0654 62.9507 19.7394 62.2441 20.2136C61.5375 20.6878 60.7066 20.9409 59.8567 20.9409C58.7178 20.9392 57.6258 20.4839 56.8202 19.6749C56.0151 18.866 55.5616 17.7692 55.5599 16.6252ZM61.8742 16.6252C61.8738 16.2246 61.7551 15.8332 61.5333 15.5004C61.3114 15.1676 60.9964 14.9083 60.6277 14.7554C60.259 14.6025 59.8537 14.5627 59.4624 14.6411C59.0716 14.7196 58.7123 14.9128 58.4305 15.1962C58.1488 15.4796 57.957 15.8406 57.8794 16.2335C57.8018 16.6264 57.8419 17.0335 57.9949 17.4035C58.1475 17.7735 58.4062 18.0896 58.7378 18.312C59.0694 18.5344 59.4594 18.653 59.8584 18.6529C60.3933 18.6523 60.9061 18.4384 61.2841 18.0581C61.6622 17.6779 61.8744 17.1625 61.8742 16.6252Z" fill="#91A88C"/>
<path d="M16.3625 37.6831C16.3625 37.3792 16.4827 37.0878 16.6967 36.8728C16.9106 36.6579 17.2005 36.5371 17.5031 36.5369H21.4986C25.3926 36.1477 27.8558 34.7338 29.9921 31.6674C30.9451 30.2995 31.8389 28.7671 32.7003 27.2843C34.057 24.9575 35.4606 22.5524 37.1889 20.5906C38.682 18.8957 40.3831 17.579 42.244 16.6764C44.1271 15.7628 46.0792 15.3202 48.0446 15.3597H56.3305C56.4827 15.3559 56.6344 15.3827 56.7759 15.4385C56.9178 15.4944 57.047 15.5782 57.1561 15.6849C57.2652 15.7917 57.3517 15.9193 57.411 16.0603C57.4702 16.2012 57.5005 16.3527 57.5005 16.5056C57.5005 16.6586 57.4702 16.81 57.411 16.9509C57.3517 17.0919 57.2652 17.2195 57.1561 17.3263C57.047 17.4331 56.9178 17.5169 56.7759 17.5727C56.6344 17.6286 56.4827 17.6553 56.3305 17.6515H48.0113C46.4053 17.6171 44.7997 17.9828 43.2389 18.7399C41.652 19.5094 40.1922 20.6418 38.9003 22.1091C37.3198 23.9027 36.0339 26.1074 34.6763 28.4415C33.7885 29.963 32.8708 31.5365 31.8658 32.9767C29.3246 36.6232 26.2753 38.3707 21.6695 38.8191L21.6145 38.8249H17.5082C17.3582 38.8255 17.2099 38.7964 17.0713 38.7394C16.9324 38.6823 16.8062 38.5983 16.7001 38.4923C16.5935 38.3863 16.5091 38.2603 16.4512 38.1214C16.3932 37.9826 16.3634 37.8336 16.3625 37.6831Z" fill="#91A88C"/>
<path d="M47.1299 37.5813C47.1299 37.4309 47.1593 37.2818 47.2164 37.1427C47.274 37.0037 47.3579 36.8773 47.4636 36.7709C47.5698 36.6644 47.6955 36.58 47.834 36.5224C47.9721 36.4647 48.1209 36.4351 48.2705 36.4351H50.082C50.1314 36.4351 54.6699 36.4146 59.8328 33.9181C62.8167 32.4818 65.4822 30.4571 67.6708 27.9646C70.4193 24.8345 72.4811 20.9072 73.7986 16.2908C73.8872 16.0049 74.0838 15.7651 74.3461 15.6228C74.6085 15.4806 74.916 15.4471 75.2026 15.5296C75.4893 15.612 75.7324 15.8039 75.88 16.0642C76.0275 16.3245 76.0678 16.6324 75.9922 16.9221C74.5735 21.8962 72.3333 26.1388 69.3349 29.5336C66.9298 32.2596 64.001 34.4693 60.7245 36.0299C55.1021 38.7217 50.2785 38.7283 50.076 38.7268H48.2705C47.9679 38.7268 47.678 38.6062 47.4641 38.3913C47.2501 38.1765 47.1299 37.8852 47.1299 37.5813Z" fill="#91A88C"/>
<path d="M72.7616 58.6035C72.7613 58.9994 72.6572 59.3884 72.4598 59.7313C72.2625 60.0742 71.9787 60.3586 71.6371 60.5563C71.2956 60.7545 71.012 61.0393 70.8149 61.3822C70.6177 61.7251 70.5139 62.1141 70.5139 62.5104C70.5139 62.9062 70.6177 63.2953 70.8149 63.6382C71.012 63.9811 71.2956 64.2659 71.6371 64.464C71.9781 64.6626 72.261 64.9474 72.4575 65.2908C72.654 65.6337 72.7571 66.0227 72.7565 66.4185C72.7563 66.8144 72.8599 67.2038 73.0569 67.5467C73.2539 67.8897 73.5373 68.1749 73.8787 68.373C74.22 68.5712 74.6074 68.6754 75.0017 68.6758C75.3959 68.6758 75.7833 68.5716 76.1249 68.3739C76.4663 68.1758 76.8536 68.0716 77.2479 68.0716C77.6422 68.0716 78.0295 68.1758 78.3709 68.3739C78.7123 68.572 79.0997 68.6767 79.494 68.6771C79.8884 68.6771 80.2759 68.5729 80.6175 68.3752C80.9591 68.1775 81.2429 67.8926 81.4402 67.5497C81.6375 67.2068 81.7414 66.8174 81.7415 66.4215C81.7418 66.0253 81.8459 65.6367 82.0432 65.2938C82.2406 64.9508 82.5244 64.6665 82.8659 64.4683C83.2073 64.2702 83.4907 63.9853 83.6877 63.6424C83.8847 63.2995 83.9885 62.9105 83.9885 62.5147C83.9885 62.1188 83.8847 61.7298 83.6877 61.3869C83.4907 61.044 83.2073 60.7592 82.8659 60.561C82.5244 60.3629 82.241 60.0776 82.0439 59.7347C81.8469 59.3914 81.7433 59.0024 81.7436 58.6065C81.7439 58.2102 81.6402 57.8212 81.4433 57.4783C81.2463 57.135 80.9629 56.8501 80.6215 56.652C80.2801 56.4539 79.8928 56.3492 79.4985 56.3492C79.1042 56.3492 78.7169 56.453 78.3753 56.6512C78.0339 56.8489 77.6466 56.9535 77.2523 56.9535C76.858 56.9535 76.4707 56.8489 76.1293 56.6512C75.7879 56.4534 75.4009 56.3497 75.007 56.3497C74.613 56.3497 74.2261 56.4539 73.8849 56.6516C73.5437 56.8497 73.2603 57.1341 73.0631 57.4766C72.866 57.8191 72.762 58.2077 72.7616 58.6035Z" fill="#F74700"/>
<path d="M74.6309 60.2309C74.6308 60.4619 74.5701 60.6887 74.4551 60.8889C74.3401 61.0888 74.1746 61.2549 73.9754 61.3706C73.7761 61.4859 73.6106 61.6525 73.4954 61.8527C73.3804 62.0526 73.3197 62.2798 73.3197 62.5108C73.3197 62.7422 73.3804 62.9694 73.4954 63.1693C73.6106 63.3695 73.7761 63.5357 73.9754 63.6514C74.1747 63.7671 74.3402 63.9332 74.4553 64.1335C74.5703 64.3333 74.6309 64.5605 74.6309 64.7915C74.6307 65.023 74.6912 65.2502 74.8062 65.4504C74.9212 65.6507 75.0867 65.8168 75.286 65.9326C75.4853 66.0483 75.7114 66.1094 75.9416 66.1094C76.1718 66.1094 76.3979 66.0483 76.5973 65.933C76.7965 65.8173 77.0226 65.7566 77.2527 65.7566C77.4829 65.7566 77.7089 65.8173 77.9082 65.933C78.1074 66.0483 78.3333 66.1094 78.5633 66.1094C78.7933 66.1094 79.0193 66.0487 79.2186 65.933C79.4178 65.8177 79.5833 65.6516 79.6984 65.4517C79.8136 65.2519 79.8743 65.0251 79.8746 64.7941C79.8746 64.5627 79.9351 64.3359 80.0502 64.1356C80.1653 63.9354 80.3308 63.7692 80.5301 63.6535C80.7292 63.5378 80.8946 63.3717 81.0096 63.1718C81.1245 62.9716 81.1851 62.7444 81.1851 62.5134C81.1851 62.2823 81.1245 62.0556 81.0096 61.8553C80.8946 61.6555 80.7292 61.4889 80.5301 61.3736C80.3306 61.2579 80.1651 61.0914 80.05 60.8911C79.935 60.6908 79.8744 60.4636 79.8746 60.2326C79.8747 60.0012 79.8142 59.774 79.6993 59.5737C79.5843 59.3734 79.4188 59.2073 79.2195 59.0916C79.0202 58.9759 78.7941 58.9148 78.5639 58.9148C78.3337 58.9148 78.1075 58.9759 77.9082 59.0912C77.7089 59.2069 77.4829 59.2675 77.2527 59.2675C77.0226 59.2675 76.7965 59.2069 76.5973 59.0912C76.398 58.9759 76.172 58.9148 75.942 58.9148C75.7119 58.9148 75.4859 58.9754 75.2866 59.0912C75.0874 59.2065 74.9219 59.3726 74.8067 59.5728C74.6917 59.7727 74.631 59.9999 74.6309 60.2309Z" fill="#F4F0E1"/>
<path d="M75.0925 62.5134C75.0925 63.7108 76.0589 64.6814 77.2511 64.6814C78.4434 64.6814 79.4098 63.7108 79.4098 62.5134C79.4098 61.3156 78.4434 60.345 77.2511 60.345C76.0589 60.345 75.0925 61.3156 75.0925 62.5134Z" fill="#F74700"/>
<path d="M76.3991 62.513C76.3991 62.9857 76.7805 63.3692 77.2511 63.3692C77.7217 63.3692 78.1032 62.9857 78.1032 62.513C78.1032 62.0407 77.7217 61.6572 77.2511 61.6572C76.7805 61.6572 76.3991 62.0407 76.3991 62.513Z" fill="#F4F0E1"/>
<path d="M74.9112 29.6704C74.9109 30.4847 74.6971 31.2846 74.2913 31.9895C73.8855 32.6945 73.302 33.2797 72.5996 33.6862C69.5196 35.4703 69.5174 39.9345 72.5959 41.7215C73.2978 42.1292 73.8805 42.7151 74.2855 43.4206C74.6905 44.126 74.9035 44.9258 74.9032 45.7402C74.9032 49.3114 78.7486 51.5452 81.8285 49.7636C82.5305 49.3563 83.3269 49.1419 84.1375 49.1419C84.9482 49.1419 85.7446 49.3563 86.4466 49.7636C89.525 51.5512 93.3748 49.3247 93.377 45.75C93.3773 44.9357 93.5912 44.1358 93.997 43.4308C94.4028 42.7258 94.9862 42.1406 95.6886 41.734C98.7685 39.9499 98.7707 35.4856 95.693 33.6987C94.991 33.2912 94.4082 32.7052 94.0032 31.9998C93.5982 31.2943 93.3852 30.4942 93.3857 29.6799C93.3857 26.1088 89.5396 23.8749 86.4597 25.6568C85.7576 26.064 84.9611 26.2784 84.1503 26.2784C83.3395 26.2784 82.543 26.064 81.8408 25.6568C78.7631 23.869 74.9133 26.0993 74.9112 29.6704Z" fill="#F74700"/>
<path d="M78.4215 32.7265C78.4206 33.2307 78.2878 33.7259 78.0364 34.1624C77.785 34.5989 77.4238 34.9613 76.989 35.2135C75.0801 36.3188 75.0786 39.086 76.989 40.1934C77.4241 40.446 77.7853 40.8091 78.0364 41.2463C78.2875 41.6835 78.4195 42.1794 78.4193 42.6841C78.4193 44.8976 80.803 46.2825 82.7119 45.1769C83.1471 44.9245 83.6408 44.7917 84.1433 44.7917C84.6459 44.7917 85.1396 44.9245 85.5748 45.1769C87.4829 46.2846 89.8717 44.9027 89.8717 42.69C89.8726 42.1857 90.0054 41.6905 90.2568 41.254C90.5082 40.8175 90.8695 40.4551 91.3043 40.2029C93.2139 39.0977 93.2153 36.3305 91.3043 35.223C90.8688 34.9708 90.5072 34.6079 90.2556 34.1708C90.004 33.7338 89.8714 33.2379 89.871 32.733C89.871 30.5196 87.4873 29.1349 85.5784 30.2401C85.1432 30.4926 84.6495 30.6255 84.147 30.6255C83.6444 30.6255 83.1507 30.4926 82.7155 30.2401C80.8089 29.1312 78.423 30.5137 78.4215 32.7265Z" fill="#F4F0E1"/>
<path d="M79.7058 37.7101C79.7058 40.1724 81.6932 42.1685 84.1448 42.1685C86.5964 42.1685 88.5837 40.1724 88.5837 37.7101C88.5837 35.2478 86.5964 33.2517 84.1448 33.2517C81.6932 33.2517 79.7058 35.2478 79.7058 37.7101Z" fill="#F74700"/>
<path d="M82.3924 37.7101C82.3924 38.6821 83.1769 39.4701 84.1447 39.4701C85.1124 39.4701 85.8969 38.6821 85.8969 37.7101C85.8969 36.7381 85.1124 35.9502 84.1447 35.9502C83.1769 35.9502 82.3924 36.7381 82.3924 37.7101Z" fill="#F4F0E1"/>
<path d="M38.9578 34.2854C39.046 33.9481 39.0392 33.5905 39.1151 33.2503C39.9671 29.3874 42.2249 26.6362 45.7536 24.948C46.5946 24.5457 47.5216 24.2948 48.4329 24.0746C50.7771 23.5084 53.1666 23.1441 55.5283 22.2883C55.571 22.5721 55.6464 22.8062 55.6319 23.0352C55.5906 23.6935 55.5219 24.3518 55.4482 25.0036C55.2547 26.7152 54.6968 28.2843 53.6384 29.6609C51.3415 32.6498 48.2769 34.1537 44.567 34.436C43.3186 34.5311 42.0842 34.6687 40.9534 35.3138C40.225 35.7278 39.9961 36.6341 39.9262 37.2581C39.9202 37.3162 39.8959 37.3709 39.8571 37.4146C39.8184 37.4582 39.7672 37.4887 39.7105 37.5016C39.6534 37.5146 39.5942 37.5094 39.5405 37.4869C39.4868 37.4644 39.4416 37.4255 39.4109 37.3758C39.0908 36.8667 38.7656 35.9217 38.9578 34.2854Z" fill="#91A88C"/>
<path d="M38.9578 40.6909C39.046 41.0281 39.0392 41.3858 39.1151 41.726C39.9671 45.589 42.2249 48.3399 45.7536 50.0284C46.5946 50.4307 47.5216 50.6813 48.4329 50.9017C50.7771 51.4679 53.1666 51.8322 55.5283 52.6879C55.571 52.404 55.6464 52.17 55.6319 51.9411C55.5906 51.2826 55.5219 50.6245 55.4482 49.9729C55.2547 48.261 54.6968 46.6921 53.6384 45.3153C51.3415 42.3265 48.2769 40.8226 44.567 40.5402C43.3186 40.4452 42.0842 40.3076 40.9534 39.6625C40.225 39.2477 39.9961 38.3414 39.9262 37.7182C39.9202 37.66 39.8959 37.6052 39.8576 37.5614C39.8188 37.5177 39.7672 37.4872 39.7105 37.4741C39.6538 37.4611 39.5946 37.4662 39.5405 37.4887C39.4868 37.5112 39.4416 37.55 39.4109 37.5997C39.0908 38.1103 38.7656 39.0546 38.9578 40.6909Z" fill="#91A88C"/>
<path d="M72.7616 9.08433C72.7612 9.48035 72.6571 9.86925 72.4597 10.2121C72.2624 10.5549 71.9787 10.8395 71.6371 11.0374C71.2956 11.2353 71.012 11.5201 70.8149 11.8631C70.6177 12.2061 70.5139 12.5951 70.5139 12.9912C70.5139 13.3872 70.6177 13.7762 70.8149 14.1192C71.012 14.4622 71.2956 14.747 71.6371 14.945C71.9778 15.1432 72.2605 15.428 72.457 15.7707C72.6534 16.1133 72.7568 16.5019 72.7565 16.8973C72.7563 17.2933 72.8599 17.6824 73.0569 18.0255C73.2539 18.3685 73.5373 18.6534 73.8787 18.8516C74.22 19.0498 74.6074 19.1542 75.0017 19.1543C75.3959 19.1545 75.7833 19.0504 76.1249 18.8525C76.4663 18.6545 76.8536 18.5503 77.2479 18.5503C77.6422 18.5503 78.0295 18.6545 78.3709 18.8525C78.7123 19.0508 79.0997 19.1554 79.494 19.1556C79.8884 19.1558 80.2759 19.0518 80.6175 18.8539C80.9591 18.6561 81.2429 18.3713 81.4402 18.0283C81.6375 17.6854 81.7414 17.2963 81.7415 16.9002C81.7418 16.5042 81.8459 16.1152 82.0432 15.7724C82.2406 15.4296 82.5244 15.145 82.8659 14.9472C83.2073 14.749 83.4907 14.4642 83.6877 14.1212C83.8847 13.7783 83.9885 13.3893 83.9885 12.9934C83.9885 12.5974 83.8847 12.2085 83.6877 11.8655C83.4907 11.5226 83.2073 11.2377 82.8659 11.0396C82.5244 10.8415 82.241 10.5565 82.0439 10.2134C81.8469 9.87031 81.7433 9.48112 81.7436 9.08505C81.7439 8.68903 81.6402 8.29997 81.4433 7.95689C81.2463 7.61382 80.9629 7.32891 80.6215 7.13072C80.2801 6.93258 79.8928 6.82817 79.4985 6.828C79.1042 6.82783 78.7169 6.93194 78.3753 7.12983C78.0338 7.32767 77.6465 7.43182 77.2523 7.43182C76.858 7.43182 76.4708 7.32767 76.1293 7.12983C75.7878 6.93216 75.4005 6.82822 75.0064 6.82843C74.6123 6.82864 74.2252 6.93301 73.8839 7.13106C73.5427 7.32912 73.2593 7.6139 73.0623 7.95676C72.8653 8.29958 72.7616 8.68847 72.7616 9.08433Z" fill="#F74700"/>
<path d="M74.6311 10.7119C74.6311 10.9431 74.5706 11.1701 74.4555 11.3703C74.3404 11.5705 74.1749 11.7368 73.9756 11.8523C73.7765 11.9679 73.6111 12.1341 73.4961 12.3342C73.3811 12.5343 73.3206 12.7613 73.3206 12.9923C73.3206 13.2234 73.3811 13.4503 73.4961 13.6504C73.6111 13.8505 73.7765 14.0167 73.9756 14.1323C74.175 14.248 74.3406 14.4143 74.4557 14.6146C74.5707 14.8149 74.6312 15.0422 74.6311 15.2734C74.631 15.5046 74.6914 15.7318 74.8064 15.9321C74.9214 16.1324 75.0869 16.2987 75.2862 16.4144C75.4855 16.53 75.7116 16.5909 75.9418 16.5909C76.172 16.591 76.3981 16.5301 76.5975 16.4145C76.7968 16.299 77.0228 16.2382 77.253 16.2382C77.483 16.2382 77.7091 16.299 77.9084 16.4145C78.1076 16.5301 78.3337 16.5909 78.5637 16.5909C78.7938 16.591 79.0198 16.5302 79.2191 16.4147C79.4183 16.2992 79.5838 16.1331 79.6989 15.933C79.814 15.733 79.8747 15.506 79.8748 15.2749C79.8749 15.0439 79.9355 14.817 80.0506 14.6169C80.1656 14.4169 80.3311 14.2508 80.5302 14.1353C80.7296 14.0197 80.8951 13.8535 81.0102 13.6533C81.1253 13.4531 81.1859 13.2261 81.1859 12.9949C81.1859 12.7637 81.1253 12.5366 81.0102 12.3365C80.8951 12.1363 80.7296 11.97 80.5302 11.8545C80.3309 11.7389 80.1655 11.5727 80.0504 11.3725C79.9354 11.1724 79.8748 10.9453 79.8748 10.7141C79.875 10.4829 79.8145 10.2558 79.6995 10.0555C79.5845 9.85523 79.419 9.68891 79.2197 9.57323C79.0204 9.45754 78.7943 9.39665 78.5641 9.39661C78.3339 9.39656 78.1078 9.45742 77.9084 9.57301C77.7091 9.68857 77.483 9.74942 77.253 9.74942C77.0228 9.74942 76.7968 9.68857 76.5975 9.57301C76.3983 9.4575 76.1723 9.39669 75.9423 9.39661C75.7124 9.39656 75.4864 9.45729 75.2871 9.57267C75.0879 9.6881 74.9224 9.85408 74.8072 10.0541C74.6921 10.254 74.6314 10.4809 74.6311 10.7119Z" fill="#F4F0E1"/>
<path d="M75.0925 12.994C75.0925 14.1915 76.0589 15.1622 77.2511 15.1622C78.4434 15.1622 79.4098 14.1915 79.4098 12.994C79.4098 11.7966 78.4434 10.8259 77.2511 10.8259C76.0589 10.8259 75.0925 11.7966 75.0925 12.994Z" fill="#F74700"/>
<path d="M76.3991 12.994C76.3991 13.4667 76.7805 13.8499 77.2511 13.8499C77.7217 13.8499 78.1032 13.4667 78.1032 12.994C78.1032 12.5214 77.7217 12.1382 77.2511 12.1382C76.7805 12.1382 76.3991 12.5214 76.3991 12.994Z" fill="#F4F0E1"/>
</svg>
